0
SECTION
2
HEADER
9
$INSUNITS
70
4
9
$ACADVER
1
AC1014
9
$HANDSEED
5
FFFF
0
ENDSEC
0
SECTION
2
TABLES
0
TABLE
2
VPORT
5
8
100
AcDbSymbolTable
0
ENDTAB
0
TABLE
2
LTYPE
5
5
100
AcDbSymbolTable
0
LTYPE
5
14
100
AcDbSymbolTableRecord
100
AcDbLinetypeTableRecord
2
BYBLOCK
70
0
0
LTYPE
5
15
100
AcDbSymbolTableRecord
100
AcDbLinetypeTableRecord
2
BYLAYER
70
0
0
ENDTAB
0
TABLE
2
LAYER
5
2
100
AcDbSymbolTable
70
2
0
LAYER
5
50
100
AcDbSymbolTableRecord
100
AcDbLayerTableRecord
2
0
70
0
6
CONTINUOUS
0
ENDTAB
0
TABLE
2
STYLE
5
3
100
AcDbSymbolTable
70
1
0
STYLE
5
11
100
AcDbSymbolTableRecord
100
AcDbTextStyleTableRecord
2
STANDARD
70
0
0
ENDTAB
0
TABLE
2
VIEW
5
6
100
AcDbSymbolTable
70
0
0
ENDTAB
0
TABLE
2
UCS
5
7
100
AcDbSymbolTable
70
0
0
ENDTAB
0
TABLE
2
APPID
5
9
100
AcDbSymbolTable
70
2
0
APPID
5
12
100
AcDbSymbolTableRecord
100
AcDbRegAppTableRecord
2
ACAD
70
0
0
ENDTAB
0
TABLE
2
DIMSTYLE
5
A
100
AcDbSymbolTable
70
1
0
ENDTAB
0
TABLE
2
BLOCK_RECORD
5
1
100
AcDbSymbolTable
70
1
0
BLOCK_RECORD
5
1F
100
AcDbSymbolTableRecord
100
AcDbBlockTableRecord
2
*MODEL_SPACE
0
BLOCK_RECORD
5
1B
100
AcDbSymbolTableRecord
100
AcDbBlockTableRecord
2
*PAPER_SPACE
0
ENDTAB
0
ENDSEC
0
SECTION
2
BLOCKS
0
BLOCK
5
20
100
AcDbEntity
100
AcDbBlockBegin
2
*MODEL_SPACE
0
ENDBLK
5
21
100
AcDbEntity
100
AcDbBlockEnd
0
BLOCK
5
1C
100
AcDbEntity
100
AcDbBlockBegin
2
*PAPER_SPACE
0
ENDBLK
5
1D
100
AcDbEntity
100
AcDbBlockEnd
0
ENDSEC
0
SECTION
2
ENTITIES
0
ARC
5
100
100
AcDbEntity
8
0
100
AcDbCircle
10
-126.01002636445057
20
3.51613949599591
30
0
40
14.999999999999996
210
0
220
-0
230
1
100
AcDbArc
50
90
51
179.9992549515035
0
LINE
5
101
100
AcDbEntity
8
0
100
AcDbLine
10
-141.01002636318236
20
3.5163345492055353
30
0
11
-141.01011812883857
21
-3.5406363720464205
31
0
0
ARC
5
102
100
AcDbEntity
8
0
100
AcDbCircle
10
-126.01011813015899
20
-3.5408314252560462
30
0
40
14.999999999947791
210
0
220
0
230
1
100
AcDbArc
50
179.9992549515035
51
266.71202046565918
0
CIRCLE
5
103
100
AcDbEntity
8
0
100
AcDbCircle
10
-60.888143842498849
20
0
30
0
40
10.875000000000004
210
0
220
0
230
1
0
CIRCLE
5
104
100
AcDbEntity
8
0
100
AcDbCircle
10
-32.324343663524601
20
0
30
0
40
11.390000000000002
210
0
220
0
230
1
0
CIRCLE
5
105
100
AcDbEntity
8
0
100
AcDbCircle
10
-115.79842692828495
20
0
30
0
40
10.800000000000001
210
0
220
0
230
1
0
CIRCLE
5
106
100
AcDbEntity
8
0
100
AcDbCircle
10
-88.232031083892679
20
-3.7161171376237844e-16
30
0
40
10.85
210
0
220
0
230
1
0
SPLINE
5
107
100
AcDbEntity
8
0
100
AcDbSpline
70
0
71
3
72
9
73
5
74
0
42
0.000000001
43
0.0000000001
44
0.0000000001
40
0
40
0
40
0
40
0
40
0.017531399094480326
40
0.033776406945767459
40
0.033776406945767459
40
0.033776406945767459
40
0.033776406945767459
10
-118.71847364936752
20
12.859862460108014
30
0
10
-118.75792565286591
20
12.816610333578485
30
0
10
-118.83393481321909
20
12.733279766573645
30
0
10
-118.89599322437071
20
12.639119425961617
30
0
10
-118.92584066723271
20
12.593832327337475
30
0
0
LINE
5
108
100
AcDbEntity
8
0
100
AcDbLine
10
-118.92584066723272
20
12.593832327337475
30
0
11
-116.96404006217404
21
12.593832327337475
31
0
0
LINE
5
109
100
AcDbEntity
8
0
100
AcDbLine
10
-116.96404006217404
20
12.593832327337475
30
0
11
-116.96404006217404
21
12.121799601526471
31
0
0
LINE
5
110
100
AcDbEntity
8
0
100
AcDbLine
10
-116.96404006217404
20
12.121799601526471
30
0
11
-119.60796890665574
21
12.121799601526471
31
0
0
SPLINE
5
111
100
AcDbEntity
8
0
100
AcDbSpline
70
0
71
3
72
9
73
5
74
0
42
0.000000001
43
0.0000000001
44
0.0000000001
40
0
40
0
40
0
40
0
40
0.017432885521515319
40
0.034758661836589405
40
0.034758661836589405
40
0.034758661836589405
40
0.034758661836589405
10
-119.60796890665574
20
12.121799601526471
30
0
10
-119.60697809087151
20
12.180264360964282
30
0
10
-119.60500254696376
20
12.296834667133524
30
0
10
-119.56874369968588
20
12.407634457589634
30
0
10
-119.55067014206929
20
12.462863637418957
30
0
0
SPLINE
5
112
100
AcDbEntity
8
0
100
AcDbSpline
70
0
71
3
72
9
73
5
74
0
42
0.000000001
43
0.0000000001
44
0.0000000001
40
0
40
0
40
0
40
0
40
0.029850823794351562
40
0.062494149759053347
40
0.062494149759053347
40
0.062494149759053347
40
0.062494149759053347
10
-119.55067014206929
20
12.462863637418957
30
0
10
-119.51042559785341
20
12.55434604846954
30
0
10
-119.42617168946757
20
12.74586892019666
30
0
10
-119.29556352114739
20
12.909468602108952
30
0
10
-119.22734137509747
20
12.99492360493681
30
0
0
SPLINE
5
113
100
AcDbEntity
8
0
100
AcDbSpline
70
0
71
3
72
9
73
5
74
0
42
0.000000001
43
0.0000000001
44
0.0000000001
40
0
40
0
40
0
40
0
40
0.039197034848229173
40
0.088389243403151047
40
0.088389243403151047
40
0.088389243403151047
40
0.088389243403151047
10
-119.22734137509747
20
12.99492360493681
30
0
10
-119.13847480837617
20
13.090887808138991
30
0
10
-118.93808085952919
20
13.307286914542576
30
0
10
-118.71110040859031
20
13.495760312505469
30
0
10
-118.58477655683441
20
13.600653423280926
30
0
0
SPLINE
5
114
100
AcDbEntity
8
0
100
AcDbSpline
70
0
71
3
72
9
73
5
74
0
42
0.000000001
43
0.0000000001
44
0.0000000001
40
0
40
0
40
0
40
0
40
0.072674904653933642
40
0.12243480952849067
40
0.12243480952849067
40
0.12243480952849067
40
0.12243480952849067
10
-118.58477655683441
20
13.600653423280926
30
0
10
-118.39698725001847
20
13.754618970921031
30
0
10
-118.08062016125541
20
14.014003452937624
30
0
10
-117.81245467823858
20
14.322484227441421
30
0
10
-117.70346697305126
20
14.447856856794568
30
0
0
SPLINE
5
115
100
AcDbEntity
8
0
100
AcDbSpline
70
0
71
3
72
9
73
5
74
0
42
0.000000001
43
0.0000000001
44
0.0000000001
40
0
40
0
40
0
40
0
40
0.034913668066671413
40
0.064163861246888776
40
0.064163861246888776
40
0.064163861246888776
40
0.064163861246888776
10
-117.70346697305126
20
14.447856856794568
30
0
10
-117.63678166175879
20
14.545662896175315
30
0
10
-117.51422830950703
20
14.725409496502442
30
0
10
-117.48678322549161
20
14.940518772476262
30
0
10
-117.47427191470547
20
15.038580013723584
30
0
0
SPLINE
5
116
100
AcDbEntity
8
0
100
AcDbSpline
70
0
71
3
72
9
73
5
74
0
42
0.000000001
43
0.0000000001
44
0.0000000001
40
0
40
0
40
0
40
0
40
0.027411233817898898
40
0.054690090809656561
40
0.054690090809656561
40
0.054690090809656561
40
0.054690090809656561
10
-117.47427191470547
20
15.038580013723584
30
0
10
-117.48288455264097
20
15.132007035973636
30
0
10
-117.50006823557671
20
15.318409894191376
30
0
10
-117.62212326243711
20
15.460302117107865
30
0
10
-117.68300305937214
20
15.531076504202099
30
0
0
SPLINE
5
117
100
AcDbEntity
8
0
100
AcDbSpline
70
0
71
3
72
9
73
5
74
0
42
0.000000001
43
0.0000000001
44
0.0000000001
40
0
40
0
40
0
40
0
40
0.028361817667699948
40
0.059161441746673385
40
0.059161441746673385
40
0.059161441746673385
40
0.059161441746673385
10
-117.68300305937214
20
15.531076504202099
30
0
10
-117.76000628056428
20
15.589541772505761
30
0
10
-117.92063144352954
20
15.711497621932507
30
0
10
-118.12233431475882
20
15.72473228612566
30
0
10
-118.22734143470211
20
15.731622292013379
30
0
0
SPLINE
5
118
100
AcDbEntity
8
0
100
AcDbSpline
70
0
71
3
72
9
73
5
74
0
42
0.000000001
43
0.0000000001
44
0.0000000001
40
0
40
0
40
0
40
0
40
0.032363947282576938
40
0.061881418798158387
40
0.061881418798158387
40
0.061881418798158387
40
0.061881418798158387
10
-118.22734143470211
20
15.731622292013379
30
0
10
-118.33785003824443
20
15.724504202735934
30
0
10
-118.54914778622594
20
15.71089407478169
30
0
10
-118.71551486284908
20
15.580836013612183
30
0
10
-118.79487205181999
20
15.518798245401593
30
0
0
SPLINE
5
119
100
AcDbEntity
8
0
100
AcDbSpline
70
0
71
3
72
9
73
5
74
0
42
0.000000001
43
0.0000000001
44
0.0000000001
40
0
40
0
40
0
40
0
40
0.030014341804669897
40
0.064026830635640825
40
0.064026830635640825
40
0.064026830635640825
40
0.064026830635640825
10
-118.79487205181999
20
15.518798245401593
30
0
10
-118.85702021090526
20
15.437527418762523
30
0
10
-118.98959515397635
20
15.264159850461267
30
0
10
-119.00319828642085
20
15.045562993354649
30
0
10
-119.01042457555218
20
14.929439438791485
30
0
0
LINE
5
120
100
AcDbEntity
8
0
100
AcDbLine
10
-119.01042457555218
20
14.929439438791485
30
0
11
-119.51519947384281
21
14.981281174631329
31
0
0
SPLINE
5
121
100
AcDbEntity
8
0
100
AcDbSpline
70
0
71
3
72
9
73
5
74
0
42
0.000000001
43
0.0000000001
44
0.0000000001
40
0
40
0
40
0
40
0
40
0.05127004155523842
40
0.09633375972052223
40
0.09633375972052223
40
0.09633375972052223
40
0.09633375972052223
10
-119.51519947384281
20
14.981281174631329
30
0
10
-119.49000895689284
20
15.154634272975397
30
0
10
-119.44267727676385
20
15.480355790183317
30
0
10
-119.22625957628776
20
15.726829585484152
30
0
10
-119.12502210472508
20
15.842126919241162
30
0
0
SPLINE
5
122
100
AcDbEntity
8
0
100
AcDbSpline
70
0
71
3
72
9
73
5
74
0
42
0.000000001
43
0.0000000001
44
0.0000000001
40
0
40
0
40
0
40
0
40
0.045427451835996488
40
0.097187146861107618
40
0.097187146861107618
40
0.097187146861107618
40
0.097187146861107618
10
-119.12502210472508
20
15.842126919241162
30
0
10
-118.99706809437917
20
15.928374690104308
30
0
10
-118.72332425244306
20
16.112892518741965
30
0
10
-118.39257631288989
20
16.129386401029326
30
0
10
-118.2164273772089
20
16.138170672865122
30
0
0
SPLINE
5
123
100
AcDbEntity
8
0
100
AcDbSpline
70
0
71
3
72
9
73
5
74
0
42
0.000000001
43
0.0000000001
44
0.0000000001
40
0
40
0
40
0
40
0
40
0.052182795896249662
40
0.098426919377052502
40
0.098426919377052502
40
0.098426919377052502
40
0.098426919377052502
10
-118.2164273772089
20
16.138170672865122
30
0
10
-118.03841235737406
20
16.128388598199756
30
0
10
-117.70264134885956
20
16.109937699625011
30
0
10
-117.4321769479661
20
15.911953893725832
30
0
10
-117.30510409806652
20
15.818934751959057
30
0
0
SPLINE
5
124
100
AcDbEntity
8
0
100
AcDbSpline
70
0
71
3
72
9
73
5
74
0
42
0.000000001
43
0.0000000001
44
0.0000000001
40
0
40
0
40
0
40
0
40
0.043716771241600935
40
0.087903999886518799
40
0.087903999886518799
40
0.087903999886518799
40
0.087903999886518799
10
-117.30510409806652
20
15.818934751959057
30
0
10
-117.20721948972134
20
15.705739229064879
30
0
10
-117.01039688922978
20
15.478130031289188
30
0
10
-116.98317876465049
20
15.178355341161724
30
0
10
-116.96949686740322
20
15.027665807218762
30
0
0
SPLINE
5
125
100
AcDbEntity
8
0
100
AcDbSpline
70
0
71
3
72
9
73
5
74
0
42
0.000000001
43
0.0000000001
44
0.0000000001
40
0
40
0
40
0
40
0
40
0.023932576018036056
40
0.048462010400868227
40
0.048462010400868227
40
0.048462010400868227
40
0.048462010400868227
10
-116.96949686740322
20
15.027665807218762
30
0
10
-116.97378751842139
20
14.947506195769041
30
0
10
-116.98247582569397
20
14.785187859419525
30
0
10
-117.03907527144723
20
14.632777038226141
30
0
10
-117.06772353385372
20
14.555633081407757
30
0
0
SPLINE
5
126
100
AcDbEntity
8
0
100
AcDbSpline
70
0
71
3
72
9
73
5
74
0
42
0.000000001
43
0.0000000001
44
0.0000000001
40
0
40
0
40
0
40
0
40
0.027154631177787294
40
0.058913631666511312
40
0.058913631666511312
40
0.058913631666511312
40
0.058913631666511312
10
-117.06772353385372
20
14.555633081407757
30
0
10
-117.10846443617112
20
14.47443393182342
30
0
10
-117.1968543132854
20
14.29826741499889
30
0
10
-117.32480529288402
20
14.14815274974297
30
0
10
-117.3937807593195
20
14.067229343862744
30
0
0
SPLINE
5
127
100
AcDbEntity
8
0
100
AcDbSpline
70
0
71
3
72
9
73
5
74
0
42
0.000000001
43
0.0000000001
44
0.0000000001
40
0
40
0
40
0
40
0
40
0.04295219871694405
40
0.10343840832960521
40
0.10343840832960521
40
0.10343840832960521
40
0.10343840832960521
10
-117.3937807593195
20
14.067229343862744
30
0
10
-117.49352372878759
20
13.964409490414658
30
0
10
-117.73372689211898
20
13.716796508936302
30
0
10
-117.99699530174698
20
13.493719015871363
30
0
10
-118.15094303224964
20
13.363273157091351
30
0
0
SPLINE
5
128
100
AcDbEntity
8
0
100
AcDbSpline
70
0
71
3
72
9
73
5
74
0
42
0.000000001
43
0.0000000001
44
0.0000000001
40
0
40
0
40
0
40
0
40
0.047817933233738598
40
0.07588004570641127
40
0.07588004570641127
40
0.07588004570641127
40
0.07588004570641127
10
-118.15094303224964
20
13.363273157091351
30
0
10
-118.27339719317902
20
13.261136400226651
30
0
10
-118.4677139839705
20
13.099060349358565
30
0
10
-118.65077401663662
20
12.924440665804013
30
0
10
-118.71847364936752
20
12.859862460108014
30
0
0
SPLINE
5
129
100
AcDbEntity
8
0
100
AcDbSpline
70
0
71
3
72
9
73
5
74
0
42
0.000000001
43
0.0000000001
44
0.0000000001
40
0
40
0
40
0
40
0
40
0.027411230981165612
40
0.054690070869931891
40
0.054690070869931891
40
0.054690070869931891
40
0.054690070869931891
10
-91.070452592119409
20
15.038580013723584
30
0
10
-91.079065183781012
20
15.132007027130491
30
0
10
-91.096248769905685
20
15.318409819033587
30
0
10
-91.218303604626641
20
15.460302104485301
30
0
10
-91.279183289751245
20
15.531076504202099
30
0
0
SPLINE
5
130
100
AcDbEntity
8
0
100
AcDbSpline
70
0
71
3
72
9
73
5
74
0
42
0.000000001
43
0.0000000001
44
0.0000000001
40
0
40
0
40
0
40
0
40
0.036961805163597074
40
0.077329023849955492
40
0.077329023849955492
40
0.077329023849955492
40
0.077329023849955492
10
-81.685729882463647
20
15.903518511266919
30
0
10
-81.580625477607612
20
15.971922402069406
30
0
10
-81.360733050983043
20
16.115032460679455
30
0
10
-81.098304437895592
20
16.130234775752502
30
0
10
-80.961311719164087
20
16.138170672865122
30
0
0
SPLINE
5
131
100
AcDbEntity
8
0
100
AcDbSpline
70
0
71
3
72
9
73
5
74
0
42
0.000000001
43
0.0000000001
44
0.0000000001
40
0
40
0
40
0
40
0
40
0.030391573730831647
40
0.058394783009756937
40
0.058394783009756937
40
0.058394783009756937
40
0.058394783009756937
10
-80.961311719164087
20
16.138170672865122
30
0
10
-80.859094960557655
20
16.133710481294123
30
0
10
-80.662694290699363
20
16.12514060856304
30
0
10
-80.482783725902394
20
16.046350241678432
30
0
10
-80.396507642015649
20
16.008566333265513
30
0
0
SPLINE
5
132
100
AcDbEntity
8
0
100
AcDbSpline
70
0
71
3
72
9
73
5
74
0
42
0.000000001
43
0.0000000001
44
0.0000000001
40
0
40
0
40
0
40
0
40
0.052358498973150168
40
0.11575123339518936
40
0.11575123339518936
40
0.11575123339518936
40
0.11575123339518936
10
-84.781230351671411
20
12.121799601526471
30
0
10
-84.769008743646509
20
12.29623737615495
30
0
10
-84.741989897982506
20
12.681874626266207
30
0
10
-84.647460782604554
20
13.056919610663599
30
0
10
-84.595690629228784
20
13.262318088026257
30
0
0
SPLINE
5
133
100
AcDbEntity
8
0
100
AcDbSpline
70
0
71
3
72
9
73
5
74
0
42
0.000000001
43
0.0000000001
44
0.0000000001
40
0
40
0
40
0
40
0
40
0.069113398869100937
40
0.13883498783305848
40
0.13883498783305848
40
0.13883498783305848
40
0.13883498783305848
10
-84.595690629228784
20
13.262318088026257
30
0
10
-84.529908590478456
20
13.483606150383778
30
0
10
-84.397765638475306
20
13.928129585024795
30
0
10
-84.190772092827416
20
14.343130753106117
30
0
10
-84.086821934923364
20
14.551540328474255
30
0
0
SPLINE
5
134
100
AcDbEntity
8
0
100
AcDbSpline
70
0
71
3
72
9
73
5
74
0
42
0.000000001
43
0.0000000001
44
0.0000000001
40
0
40
0
40
0
40
0
40
0.066645888977325013
40
0.12639630346770639
40
0.12639630346770639
40
0.12639630346770639
40
0.12639630346770639
10
-84.086821934923364
20
14.551540328474255
30
0
10
-83.978334498465586
20
14.745955879559602
30
0
10
-83.77258420911744
20
15.114671900471045
30
0
10
-83.507034762126935
20
15.442807853139804
30
0
10
-83.38150348399563
20
15.597925199480267
30
0
0
SPLINE
5
135
100
AcDbEntity
8
0
100
AcDbSpline
70
0
71
3
72
9
73
5
74
0
42
0.000000001
43
0.0000000001
44
0.0000000001
40
0
40
0
40
0
40
0
40
0.064121681645312248
40
0.11547285344575946
40
0.11547285344575946
40
0.11547285344575946
40
0.11547285344575946
10
-82.265540024980737
20
14.094514562101574
30
0
10
-82.262649870799791
20
14.309175280455491
30
0
10
-82.257445167154955
20
14.695744768887732
30
0
10
-82.162005726398561
20
15.069975443438842
30
0
10
-82.119563481554223
20
15.236397100897046
30
0
0
SPLINE
5
136
100
AcDbEntity
8
0
100
AcDbSpline
70
0
71
3
72
9
73
5
74
0
42
0.000000001
43
0.0000000001
44
0.0000000001
40
0
40
0
40
0
40
0
40
0.042381869435578638
40
0.080384123457202833
40
0.080384123457202833
40
0.080384123457202833
40
0.080384123457202833
10
-82.119563481554223
20
15.236397100897046
30
0
10
-82.067872531302328
20
15.369883037961054
30
0
10
-81.969832218734638
20
15.623060875268672
30
0
10
-81.77692727680099
20
15.81349107270106
30
0
10
-81.685729882463647
20
15.903518511266919
30
0
0
SPLINE
5
137
100
AcDbEntity
8
0
100
AcDbSpline
70
0
71
3
72
9
73
5
74
0
42
0.000000001
43
0.0000000001
44
0.0000000001
40
0
40
0
40
0
40
0
40
0.039196874674241509
40
0.088389038308182261
40
0.088389038308182261
40
0.088389038308182261
40
0.088389038308182261
10
-66.419697663530542
20
12.99492360493681
30
0
10
-66.330831929947763
20
13.090887865329115
30
0
10
-66.130439505928962
20
13.307287482863057
30
0
10
-65.903459521101411
20
13.495760420879829
30
0
10
-65.777135750993921
20
13.600653423280926
30
0
0
SPLINE
5
138
100
AcDbEntity
8
0
100
AcDbSpline
70
0
71
3
72
9
73
5
74
0
42
0.000000001
43
0.0000000001
44
0.0000000001
40
0
40
0
40
0
40
0
40
0.072674843037479592
40
0.12243479806057557
40
0.12243479806057557
40
0.12243479806057557
40
0.12243479806057557
10
-65.777135750993921
20
13.600653423280926
30
0
10
-65.589346820567044
20
13.754619073939775
30
0
10
-65.272980127308884
20
14.014003925131814
30
0
10
-65.004814233788196
20
14.322484265704718
30
0
10
-64.895826241716577
20
14.447856856794568
30
0
0
SPLINE
5
139
100
AcDbEntity
8
0
100
AcDbSpline
70
0
71
3
72
9
73
5
74
0
42
0.000000001
43
0.0000000001
44
0.0000000001
40
0
40
0
40
0
40
0
40
0.034913844144884895
40
0.064163996459525752
40
0.064163996459525752
40
0.064163996459525752
40
0.064163996459525752
10
-64.895826241716577
20
14.447856856794568
30
0
10
-64.829139200564441
20
14.545662685959197
30
0
10
-64.706583029017537
20
14.725408372231893
30
0
10
-64.679140016068459
20
14.940518656483112
30
0
10
-64.666629693254663
20
15.038580013723584
30
0
0
SPLINE
5
140
100
AcDbEntity
8
0
100
AcDbSpline
70
0
71
3
72
9
73
5
74
0
42
0.000000001
43
0.0000000001
44
0.0000000001
40
0
40
0
40
0
40
0
40
0.027411276369834991
40
0.05468997943545631
40
0.05468997943545631
40
0.05468997943545631
40
0.05468997943545631
10
-64.666629693254663
20
15.038580013723584
30
0
10
-64.675243362047695
20
15.132006914426899
30
0
10
-64.692429040043805
20
15.318408861174824
30
0
10
-64.814481896213053
20
15.460301943616351
30
0
10
-64.875360390886499
20
15.531076504202099
30
0
0
SPLINE
5
141
100
AcDbEntity
8
0
100
AcDbSpline
70
0
71
3
72
9
73
5
74
0
42
0.000000001
43
0.0000000001
44
0.0000000001
40
0
40
0
40
0
40
0
40
0.028361792401430646
40
0.05916143118281296
40
0.05916143118281296
40
0.05916143118281296
40
0.05916143118281296
10
-64.875360390886499
20
15.531076504202099
30
0
10
-64.952363510794996
20
15.589541771620251
30
0
10
-65.112988576899724
20
15.711497706068496
30
0
10
-65.314691435145079
20
15.724732311958963
30
0
10
-65.419698617204858
20
15.731622292013379
30
0
0
SPLINE
5
142
100
AcDbEntity
8
0
100
AcDbSpline
70
0
71
3
72
9
73
5
74
0
42
0.000000001
43
0.0000000001
44
0.0000000001
40
0
40
0
40
0
40
0
40
0.032364116314352619
40
0.061881525157280071
40
0.061881525157280071
40
0.061881525157280071
40
0.061881525157280071
10
-65.419698617204858
20
15.731622292013379
30
0
10
-65.530207852568765
20
15.724504352005265
30
0
10
-65.741506068217873
20
15.710894557150938
30
0
10
-65.907873262631071
20
15.580836008020476
30
0
10
-65.987230202898218
20
15.518798245401593
30
0
0
SPLINE
5
143
100
AcDbEntity
8
0
100
AcDbSpline
70
0
71
3
72
9
73
5
74
0
42
0.000000001
43
0.0000000001
44
0.0000000001
40
0
40
0
40
0
40
0
40
0.030014246304379277
40
0.064026714560019057
40
0.064026714560019057
40
0.064026714560019057
40
0.064026714560019057
10
-65.987230202898218
20
15.518798245401593
30
0
10
-66.049377711443299
20
15.437527354601713
30
0
10
-66.181951448257465
20
15.264159412108246
30
0
10
-66.195553792658586
20
15.045562932888446
30
0
10
-66.202779671892358
20
14.929439438791485
30
0
0
SPLINE
5
144
100
AcDbEntity
8
0
100
AcDbSpline
70
0
71
3
72
9
73
5
74
0
42
0.000000001
43
0.0000000001
44
0.0000000001
40
0
40
0
40
0
40
0
40
0.051269980553000492
40
0.096333813369927232
40
0.096333813369927232
40
0.096333813369927232
40
0.096333813369927232
10
-66.707554719194604
20
14.981281174631329
30
0
10
-66.682365338445209
20
15.154634396783504
30
0
10
-66.635035710506145
20
15.480356715570414
30
0
10
-66.418616380943007
20
15.726829724301862
30
0
10
-66.317377946123315
20
15.842126919241162
30
0
0
SPLINE
5
145
100
AcDbEntity
8
0
100
AcDbSpline
70
0
71
3
72
9
73
5
74
0
42
0.000000001
43
0.0000000001
44
0.0000000001
40
0
40
0
40
0
40
0
40
0.045427620836303757
40
0.097187065144749535
40
0.097187065144749535
40
0.097187065144749535
40
0.097187065144749535
10
-66.317377946123315
20
15.842126919241162
30
0
10
-66.189423284847479
20
15.928374702579324
30
0
10
-65.915679298874721
20
16.112891716315985
30
0
10
-65.584931806856048
20
16.129386145127725
30
0
10
-65.408783814653589
20
16.138170672865122
30
0
0
SPLINE
5
146
100
AcDbEntity
8
0
100
AcDbSpline
70
0
71
3
72
9
73
5
74
0
42
0.000000001
43
0.0000000001
44
0.0000000001
40
0
40
0
40
0
40
0
40
0.052182427749945193
40
0.098426729709297889
40
0.098426729709297889
40
0.098426729709297889
40
0.098426729709297889
10
-65.408783814653589
20
16.138170672865122
30
0
10
-65.23077017458354
20
16.128388251385761
30
0
10
-64.895000046760003
20
16.10993660403302
30
0
10
-64.624535723410958
20
15.911953909718719
30
0
10
-64.49746217463894
20
15.818934751959057
30
0
0
SPLINE
5
147
100
AcDbEntity
8
0
100
AcDbSpline
70
0
71
3
72
9
73
5
74
0
42
0.000000001
43
0.0000000001
44
0.0000000001
40
0
40
0
40
0
40
0
40
0.043716651128242516
40
0.087903925044253678
40
0.087903925044253678
40
0.087903925044253678
40
0.087903925044253678
10
-64.49746217463894
20
15.818934751959057
30
0
10
-64.399578630671229
20
15.705739083587421
30
0
10
-64.202757797191481
20
15.478129161713818
30
0
10
-64.175537607134189
20
15.178355238391127
30
0
10
-64.161854645952417
20
15.027665807218762
30
0
0
SPLINE
5
148
100
AcDbEntity
8
0
100
AcDbSpline
70
0
71
3
72
9
73
5
74
0
42
0.000000001
43
0.0000000001
44
0.0000000001
40
0
40
0
40
0
40
0
40
0.050141692977685927
40
0.095835334423232207
40
0.095835334423232207
40
0.095835334423232207
40
0.095835334423232207
10
-54.576593301042742
20
12.053586853952618
30
0
10
-54.747168473147134
20
12.063783339979551
30
0
10
-55.073187155248661
20
12.083271785428881
30
0
10
-55.340162035378846
20
12.270101173085404
30
0
10
-55.467453858598894
20
12.35918016573927
30
0
0
LINE
5
149
100
AcDbEntity
8
0
100
AcDbLine
10
-55.861721894487566
20
13.169548524828167
30
0
11
-55.34603204463405
21
13.213204754801007
31
0
0
SPLINE
5
150
100
AcDbEntity
8
0
100
AcDbSpline
70
0
71
3
72
9
73
5
74
0
42
0.000000001
43
0.0000000001
44
0.0000000001
40
0
40
0
40
0
40
0
40
0.027060591620122542
40
0.054788308275692199
40
0.054788308275692199
40
0.054788308275692199
40
0.054788308275692199
10
-55.080004594072527
20
12.647038413496228
30
0
10
-55.006262354216268
20
12.591731319291268
30
0
10
-54.856959906328164
20
12.479753644535601
30
0
10
-54.670804404855758
20
12.464915794881662
30
0
10
-54.576593301042742
20
12.457406534166546
30
0
0
SPLINE
5
151
100
AcDbEntity
8
0
100
AcDbSpline
70
0
71
3
72
9
73
5
74
0
42
0.000000001
43
0.0000000001
44
0.0000000001
40
0
40
0
40
0
40
0
40
0.033417935429795542
40
0.067280362313987693
40
0.067280362313987693
40
0.067280362313987693
40
0.067280362313987693
10
-54.576593301042742
20
12.457406534166546
30
0
10
-54.462637353893811
20
12.468839387214883
30
0
10
-54.233209733264154
20
12.491857161517267
30
0
10
-54.062324437288112
20
12.646811826473261
30
0
10
-53.976317307695574
20
12.724801017255993
30
0
0
SPLINE
5
152
100
AcDbEntity
8
0
100
AcDbSpline
70
0
71
3
72
9
73
5
74
0
42
0.000000001
43
0.0000000001
44
0.0000000001
40
0
40
0
40
0
40
0
40
0.038045580226820155
40
0.071780304802229661
40
0.071780304802229661
40
0.071780304802229661
40
0.071780304802229661
10
-53.730755707964128
20
13.434214307279797
30
0
10
-53.738000904405169
20
13.564090239572081
30
0
10
-53.751670361035586
20
13.809126166237803
30
0
10
-53.898000144704753
20
14.005127738102999
30
0
10
-53.966771027788347
20
14.097242964716168
30
0
0
SPLINE
5
153
100
AcDbEntity
8
0
100
AcDbSpline
70
0
71
3
72
9
73
5
74
0
42
0.000000001
43
0.0000000001
44
0.0000000001
40
0
40
0
40
0
40
0
40
0.032776688138847897
40
0.067855727616248945
40
0.067855727616248945
40
0.067855727616248945
40
0.067855727616248945
10
-53.966771027788347
20
14.097242964716168
30
0
10
-54.053556398033805
20
14.168048084997448
30
0
10
-54.233223252094959
20
14.31463192944474
30
0
10
-54.46497056563345
20
14.33140799344956
30
0
10
-54.584775826677507
20
14.340080632181378
30
0
0
LINE
5
154
100
AcDbEntity
8
0
100
AcDbLine
10
-55.386958977922625
20
16.067229224653452
30
0
11
-53.397875687822527
21
16.067229224653452
31
0
0
SPLINE
5
155
100
AcDbEntity
8
0
100
AcDbSpline
70
0
71
3
72
9
73
5
74
0
42
0.000000001
43
0.0000000001
44
0.0000000001
40
0
40
0
40
0
40
0
40
0.041428319041544842
40
0.080610879134710406
40
0.080610879134710406
40
0.080610879134710406
40
0.080610879134710406
10
-55.209608933672136
20
14.52289105793974
30
0
10
-55.090015401646596
20
14.596089449165115
30
0
10
-54.857311300238656
20
14.738518270909173
30
0
10
-54.585787437876625
20
14.762336766321376
30
0
10
-54.453807732805437
20
14.773914231271954
30
0
0
SPLINE
5
156
100
AcDbEntity
8
0
100
AcDbSpline
70
0
71
3
72
9
73
5
74
0
42
0.000000001
43
0.0000000001
44
0.0000000001
40
0
40
0
40
0
40
0
40
0.049139288732598228
40
0.097610979253276484
40
0.097610979253276484
40
0.097610979253276484
40
0.097610979253276484
10
-54.453807732805437
20
14.773914231271954
30
0
10
-54.286421610470406
20
14.759211657293026
30
0
10
-53.953923445846144
20
14.730006256062321
30
0
10
-53.697236432250499
20
14.516864219422679
30
0
10
-53.569770714983171
20
14.411022080393048
30
0
0
SPLINE
5
157
100
AcDbEntity
8
0
100
AcDbSpline
70
0
71
3
72
9
73
5
74
0
42
0.000000001
43
0.0000000001
44
0.0000000001
40
0
40
0
40
0
40
0
40
0.049494559234990271
40
0.10211242389026082
40
0.10211242389026082
40
0.10211242389026082
40
0.10211242389026082
10
-53.569770714983171
20
14.411022080393048
30
0
10
-53.464749940565071
20
14.278667410326129
30
0
10
-53.248081159179435
20
14.00560595907525
30
0
10
-53.222689980878648
20
13.657333209107495
30
0
10
-53.209606072649187
20
13.477870537252636
30
0
0
SPLINE
5
158
100
AcDbEntity
8
0
100
AcDbSpline
70
0
71
3
72
9
73
5
74
0
42
0.000000001
43
0.0000000001
44
0.0000000001
40
0
40
0
40
0
40
0
40
0.051228753967643967
40
0.10056215806184036
40
0.10056215806184036
40
0.10056215806184036
40
0.10056215806184036
10
-53.209606072649187
20
13.477870537252636
30
0
10
-53.221772920198319
20
13.304313331531045
30
0
10
-53.24565646901786
20
12.963620150401374
30
0
10
-53.433811760258152
20
12.678926248946276
30
0
10
-53.526116273149675
20
12.539262188883038
30
0
0
SPLINE
5
159
100
AcDbEntity
8
0
100
AcDbSpline
70
0
71
3
72
9
73
5
74
0
42
0.000000001
43
0.0000000001
44
0.0000000001
40
0
40
0
40
0
40
0
40
0.058282813686452349
40
0.11905784988140847
40
0.11905784988140847
40
0.11905784988140847
40
0.11905784988140847
10
-53.526116273149675
20
12.539262188883038
30
0
10
-53.668303499296982
20
12.397624253875787
30
0
10
-53.958757997886735
20
12.108291825720803
30
0
10
-54.367794100123049
20
12.072074555016615
30
0
10
-54.576593301042742
20
12.053586853952618
30
0
0
LINE
5
160
100
AcDbEntity
8
0
100
AcDbLine
10
-39.714375397905535
20
12.593832327337475
30
0
11
-37.752581498369402
21
12.593832327337475
31
0
0
SPLINE
5
161
100
AcDbEntity
8
0
100
AcDbSpline
70
0
71
3
72
9
73
5
74
0
42
0.000000001
43
0.0000000001
44
0.0000000001
40
0
40
0
40
0
40
0
40
0.03268765241023594
40
0.067536787559454081
40
0.067536787559454081
40
0.067536787559454081
40
0.067536787559454081
10
-27.019978425249285
20
13.903518630476208
30
0
10
-26.963888856471758
20
13.808201798955729
30
0
10
-26.848000776064893
20
13.611265276245303
30
0
10
-26.834552249180152
20
13.382889109347902
30
0
10
-26.82761277888698
20
13.265046490640851
30
0
0
SPLINE
5
162
100
AcDbEntity
8
0
100
AcDbSpline
70
0
71
3
72
9
73
5
74
0
42
0.000000001
43
0.0000000001
44
0.0000000001
40
0
40
0
40
0
40
0
40
0.048067199191305289
40
0.095639712844621222
40
0.095639712844621222
40
0.095639712844621222
40
0.095639712844621222
10
-26.82761277888698
20
13.265046490640851
30
0
10
-26.842418008991356
20
13.101185542335473
30
0
10
-26.871876100571548
20
12.775150027347358
30
0
10
-27.084662190651692
20
12.526512256058702
30
0
10
-27.190504929765886
20
12.402836395712109
30
0
0
SPLINE
5
163
100
AcDbEntity
8
0
100
AcDbSpline
70
0
71
3
72
9
73
5
74
0
42
0.000000001
43
0.0000000001
44
0.0000000001
40
0
40
0
40
0
40
0
40
0.049514619024385455
40
0.10370187690001278
40
0.10370187690001278
40
0.10370187690001278
40
0.10370187690001278
10
-27.190504929765886
20
12.402836395712109
30
0
10
-27.325117789141995
20
12.30102852344328
30
0
10
-27.607046771879524
20
12.087805284620121
30
0
10
-27.960694512214079
20
12.065330555818576
30
0
10
-28.145485779985613
20
12.053586853952618
30
0
0
SPLINE
5
164
100
AcDbEntity
8
0
100
AcDbSpline
70
0
71
3
72
9
73
5
74
0
42
0.000000001
43
0.0000000001
44
0.0000000001
40
0
40
0
40
0
40
0
40
0.054192761898359261
40
0.10376159646803708
40
0.10376159646803708
40
0.10376159646803708
40
0.10376159646803708
10
-28.145485779985613
20
12.053586853952618
30
0
10
-28.330313672392187
20
12.065409473963815
30
0
10
-28.684199256299081
20
12.088045964222376
30
0
10
-28.965895244380189
20
12.301993871819398
30
0
10
-29.100466630205339
20
12.404200746031018
30
0
0
SPLINE
5
165
100
AcDbEntity
8
0
100
AcDbSpline
70
0
71
3
72
9
73
5
74
0
42
0.000000001
43
0.0000000001
44
0.0000000001
40
0
40
0
40
0
40
0
40
0.047880684305629272
40
0.096785497168619922
40
0.096785497168619922
40
0.096785497168619922
40
0.096785497168619922
10
-29.100466630205339
20
12.404200746031018
30
0
10
-29.206306823682553
20
12.529197301864595
30
0
10
-29.420251045547197
20
12.781863987317458
30
0
10
-29.448888527441905
20
13.111916586582293
30
0
10
-29.463358781084246
20
13.278689099760266
30
0
0
SPLINE
5
166
100
AcDbEntity
8
0
100
AcDbSpline
70
0
71
3
72
9
73
5
74
0
42
0.000000001
43
0.0000000001
44
0.0000000001
40
0
40
0
40
0
40
0
40
0.036185427502790642
40
0.069207937331343644
40
0.069207937331343644
40
0.069207937331343644
40
0.069207937331343644
10
-29.463358781084246
20
13.278689099760266
30
0
10
-29.456730053012752
20
13.401240977876176
30
0
10
-29.444052004731489
20
13.63563264562227
30
0
10
-29.323201727202868
20
13.836380993512787
30
0
10
-29.265538117632097
20
13.932167901010724
30
0
0
SPLINE
5
167
100
AcDbEntity
8
0
100
AcDbSpline
70
0
71
3
72
9
73
5
74
0
42
0.000000001
43
0.0000000001
44
0.0000000001
40
0
40
0
40
0
40
0
40
0.032631650384049034
40
0.067795960352143914
40
0.067795960352143914
40
0.067795960352143914
40
0.067795960352143914
10
-29.265538117632097
20
13.932167901010724
30
0
10
-29.190477781801132
20
14.013476148797448
30
0
10
-29.034531407893507
20
14.182403269503103
30
0
10
-28.815641058895558
20
14.253889121410577
30
0
10
-28.702107331499285
20
14.290967298956128
30
0
0
SPLINE
5
168
100
AcDbEntity
8
0
100
AcDbSpline
70
0
71
3
72
9
73
5
74
0
42
0.000000001
43
0.0000000001
44
0.0000000001
40
0
40
0
40
0
40
0
40
0.031072208499584326
40
0.057651121295777256
40
0.057651121295777256
40
0.057651121295777256
40
0.057651121295777256
10
-36.332398316606707
20
14.913068427057476
30
0
10
-36.422397494979307
20
14.861534400905633
30
0
10
-36.589381233806471
20
14.765918590636485
30
0
10
-36.767386227857521
20
14.692954984918289
30
0
10
-36.849451920732683
20
14.659316553087445
30
0
0
SPLINE
5
169
100
AcDbEntity
8
0
100
AcDbSpline
70
0
71
3
72
9
73
5
74
0
42
0.000000001
43
0.0000000001
44
0.0000000001
40
0
40
0
40
0
40
0
40
0.044151847406605264
40
0.086199800575454427
40
0.086199800575454427
40
0.086199800575454427
40
0.086199800575454427
10
-36.849451920732683
20
15.134077979536267
30
0
10
-36.717758852852711
20
15.200890413220929
30
0
10
-36.460648066889831
20
15.331331579284505
30
0
10
-36.237818230198954
20
15.514186184791699
30
0
10
-36.129122636064714
20
15.603382004709454
30
0
0
SPLINE
5
170
100
AcDbEntity
8
0
100
AcDbSpline
70
0
71
3
72
9
73
5
74
0
42
0.000000001
43
0.0000000001
44
0.0000000001
40
0
40
0
40
0
40
0
40
0.037819595289918989
40
0.069339097483650303
40
0.069339097483650303
40
0.069339097483650303
40
0.069339097483650303
10
-36.129122636064714
20
15.603382004709454
30
0
10
-36.036319436349714
20
15.689837691512412
30
0
10
-35.866172451367362
20
15.84834703697979
30
0
10
-35.746815350776728
20
16.047597367700234
30
0
10
-35.692559144243425
20
16.138170672865122
30
0
0
SPLINE
5
171
100
AcDbEntity
8
0
100
AcDbSpline
70
0
71
3
72
9
73
5
74
0
42
0.000000001
43
0.0000000001
44
0.0000000001
40
0
40
0
40
0
40
0
40
0.060722564387846269
40
0.13217861948544976
40
0.13217861948544976
40
0.13217861948544976
40
0.13217861948544976
10
-29.943581483110613
20
15.687966062040539
30
0
10
-30.074939738732951
20
15.533421544560969
30
0
10
-30.360875503488867
20
15.197014787444779
30
0
10
-30.581481550937006
20
14.814346268187395
30
0
10
-30.700741669878191
20
14.607474817247601
30
0
0
SPLINE
5
172
100
AcDbEntity
8
0
100
AcDbSpline
70
0
71
3
72
9
73
5
74
0
42
0.000000001
43
0.0000000001
44
0.0000000001
40
0
40
0
40
0
40
0
40
0.07600937745982049
40
0.15049308187221971
40
0.15049308187221971
40
0.15049308187221971
40
0.15049308187221971
10
-30.700741669878191
20
14.607474817247601
30
0
10
-30.818337768489741
20
14.382463231082241
30
0
10
-31.051169556982607
20
13.936956529269278
30
0
10
-31.204612766483866
20
13.458294820103546
30
0
10
-31.280556580766863
20
13.221390260668011
30
0
0
SPLINE
5
173
100
AcDbEntity
8
0
100
AcDbSpline
70
0
71
3
72
9
73
5
74
0
42
0.000000001
43
0.0000000001
44
0.0000000001
40
0
40
0
40
0
40
0
40
0.053959944667843804
40
0.11172311962918241
40
0.11172311962918241
40
0.11172311962918241
40
0.11172311962918241
10
-31.280556580766863
20
13.221390260668011
30
0
10
-31.325437740521984
20
13.046886399197671
30
0
10
-31.418363395121567
20
12.685579212713032
30
0
10
-31.451624661520441
20
12.313943163336489
30
0
10
-31.468821427568621
20
12.121799601526471
30
0
0
SPLINE
5
174
100
AcDbEntity
8
0
100
AcDbSpline
70
0
71
3
72
9
73
5
74
0
42
0.000000001
43
0.0000000001
44
0.0000000001
40
0
40
0
40
0
40
0
40
0.052358498973150168
40
0.11575118259921513
40
0.11575118259921513
40
0.11575118259921513
40
0.11575118259921513
10
-31.973591706499285
20
12.121799601526471
30
0
10
-31.961369958777439
20
12.296237345569006
30
0
10
-31.934350816136217
20
12.681874358830537
30
0
10
-31.839823511291332
20
13.056919564130578
30
0
10
-31.788054368242449
20
13.262318088026257
30
0
0
SPLINE
5
175
100
AcDbEntity
8
0
100
AcDbSpline
70
0
71
3
72
9
73
5
74
0
42
0.000000001
43
0.0000000001
44
0.0000000001
40
0
40
0
40
0
40
0
40
0.030014500973513013
40
0.064026969229152797
40
0.064026969229152797
40
0.064026969229152797
40
0.064026969229152797
10
-39.583407304033464
20
15.518798245401593
30
0
10
-39.645556781546567
20
15.437527565864533
30
0
10
-39.778134121008293
20
15.264160855468658
30
0
10
-39.791735959602036
20
15.045563131983634
30
0
10
-39.798961541399187
20
14.929439438791485
30
0
0
SPLINE
5
176
100
AcDbEntity
8
0
100
AcDbSpline
70
0
71
3
72
9
73
5
74
0
42
0.000000001
43
0.0000000001
44
0.0000000001
40
0
40
0
40
0
40
0
40
0.017432888866921188
40
0.034758724634964322
40
0.034758724634964322
40
0.034758724634964322
40
0.034758724634964322
10
-40.396510026201433
20
12.121799601526471
30
0
10
-40.395519173205386
20
12.180264405718349
30
0
10
-40.393543551912444
20
12.296834989358024
30
0
10
-40.357282961009616
20
12.407634504892231
30
0
10
-40.339208504900164
20
12.462863637418957
30
0
0
SPLINE
5
177
100
AcDbEntity
8
0
100
AcDbSpline
70
0
71
3
72
9
73
5
74
0
42
0.000000001
43
0.0000000001
44
0.0000000001
40
0
40
0
40
0
40
0
40
0.029850899994500666
40
0.062494136114425003
40
0.062494136114425003
40
0.062494136114425003
40
0.062494136114425003
10
-40.339208504900164
20
12.462863637418957
30
0
10
-40.298963218094279
20
12.554345952402674
30
0
10
-40.214707988534258
20
12.745868092294883
30
0
10
-40.084100927718715
20
12.909468460284373
30
0
10
-40.015879533037371
20
12.99492360493681
30
0
0
SPLINE
5
178
100
AcDbEntity
8
0
100
AcDbSpline
70
0
71
3
72
9
73
5
74
0
42
0.000000001
43
0.0000000001
44
0.0000000001
40
0
40
0
40
0
40
0
40
0.039196874674241509
40
0.088389397676904846
40
0.088389397676904846
40
0.088389397676904846
40
0.088389397676904846
10
-40.015879533037371
20
12.99492360493681
30
0
10
-39.927013913684618
20
13.090887996990727
30
0
10
-39.726620932508041
20
13.307288791252274
30
0
10
-39.499638431719987
20
13.49576067038174
30
0
10
-39.373312852129168
20
13.600653423280926
30
0
0
SPLINE
5
179
100
AcDbEntity
8
0
100
AcDbSpline
70
0
71
3
72
9
73
5
74
0
42
0.000000001
43
0.0000000001
44
0.0000000001
40
0
40
0
40
0
40
0
40
0.072674484542544007
40
0.12243476051773416
40
0.12243476051773416
40
0.12243476051773416
40
0.12243476051773416
10
-39.373312852129168
20
13.600653423280926
30
0
10
-39.185526147200704
20
13.754619705867475
30
0
10
-38.869161739650337
20
14.014006821647488
30
0
10
-38.600993162147965
20
14.322484500422078
30
0
10
-38.492003342851824
20
14.447856856794568
30
0
0
SPLINE
5
180
100
AcDbEntity
8
0
100
AcDbSpline
70
0
71
3
72
9
73
5
74
0
42
0.000000001
43
0.0000000001
44
0.0000000001
40
0
40
0
40
0
40
0
40
0.034913844144884895
40
0.064163996459525752
40
0.064163996459525752
40
0.064163996459525752
40
0.064163996459525752
10
-38.492003342851824
20
14.447856856794568
30
0
10
-38.425316301699688
20
14.545662685959197
30
0
10
-38.302760130152791
20
14.725408372231893
30
0
10
-38.27531711720372
20
14.940518656483112
30
0
10
-38.26280679438991
20
15.038580013723584
30
0
0
SPLINE
5
181
100
AcDbEntity
8
0
100
AcDbSpline
70
0
71
3
72
9
73
5
74
0
42
0.000000001
43
0.0000000001
44
0.0000000001
40
0
40
0
40
0
40
0
40
0.027411094827148964
40
0.05469034519373514
40
0.05469034519373514
40
0.05469034519373514
40
0.05469034519373514
10
-38.26280679438991
20
15.038580013723584
30
0
10
-38.27141615467761
20
15.132007365226798
30
0
10
-38.288593465142625
20
15.318412692575729
30
0
10
-38.410654235514357
20
15.46030258709769
30
0
10
-38.471537492021746
20
15.531076504202099
30
0
0
SPLINE
5
182
100
AcDbEntity
8
0
100
AcDbSpline
70
0
71
3
72
9
73
5
74
0
42
0.000000001
43
0.0000000001
44
0.0000000001
40
0
40
0
40
0
40
0
40
0.028362600926416733
40
0.059161298754016198
40
0.059161298754016198
40
0.059161298754016198
40
0.059161298754016198
10
-38.471537492021746
20
15.531076504202099
30
0
10
-38.548543837280178
20
15.589541809830603
30
0
10
-38.709170692680658
20
15.711494074434484
30
0
10
-38.910872208264124
20
15.72473119692026
30
0
10
-39.015875718340105
20
15.731622292013379
30
0
0
SPLINE
5
183
100
AcDbEntity
8
0
100
AcDbSpline
70
0
71
3
72
9
73
5
74
0
42
0.000000001
43
0.0000000001
44
0.0000000001
40
0
40
0
40
0
40
0
40
0.032363645965124581
40
0.061881455913987887
40
0.061881455913987887
40
0.061881455913987887
40
0.061881455913987887
10
-39.015875718340105
20
15.731622292013379
30
0
10
-39.126383105266065
20
15.724503780588584
30
0
10
-39.337680620990895
20
15.710892710581783
30
0
10
-39.504048750538075
20
15.580836029424123
30
0
10
-39.583407304033464
20
15.518798245401593
30
0
0
SPLINE
5
184
100
AcDbEntity
8
0
100
AcDbSpline
70
0
71
3
72
9
73
5
74
0
42
0.000000001
43
0.0000000001
44
0.0000000001
40
0
40
0
40
0
40
0
40
0.044151847406605264
40
0.086199800575454427
40
0.086199800575454427
40
0.086199800575454427
40
0.086199800575454427
10
-63.253265282854265
20
15.134077979536267
30
0
10
-63.121572214974286
20
15.200890413220929
30
0
10
-62.864461429011421
20
15.331331579284505
30
0
10
-62.641631592320536
20
15.514186184791699
30
0
10
-62.532935998186296
20
15.603382004709454
30
0
0
SPLINE
5
185
100
AcDbEntity
8
0
100
AcDbSpline
70
0
71
3
72
9
73
5
74
0
42
0.000000001
43
0.0000000001
44
0.0000000001
40
0
40
0
40
0
40
0
40
0.037819595289918989
40
0.069338835367501198
40
0.069338835367501198
40
0.069338835367501198
40
0.069338835367501198
10
-62.532935998186296
20
15.603382004709454
30
0
10
-62.440132416479472
20
15.689837437405149
30
0
10
-62.269985374340173
20
15.848345717791503
30
0
10
-62.150631684675218
20
16.047597237876133
30
0
10
-62.096377274736589
20
16.138170672865122
30
0
0
LINE
5
186
100
AcDbEntity
8
0
100
AcDbLine
10
-82.751215359911157
20
16.06995792529127
30
0
11
-82.751215359911157
21
15.687966062040539
31
0
0
SPLINE
5
187
100
AcDbEntity
8
0
100
AcDbSpline
70
0
71
3
72
9
73
5
74
0
42
0.000000001
43
0.0000000001
44
0.0000000001
40
0
40
0
40
0
40
0
40
0.042952230273813584
40
0.1034384287029749
40
0.1034384287029749
40
0.1034384287029749
40
0.1034384287029749
10
-90.989960095628931
20
14.067229343862744
30
0
10
-91.089703231141215
20
13.964409507721429
30
0
10
-91.329906665177774
20
13.716796701071916
30
0
10
-91.593175024362367
20
13.4937190553355
30
0
10
-91.7471226665823
20
13.363273157091351
30
0
0
SPLINE
5
188
100
AcDbEntity
8
0
100
AcDbSpline
70
0
71
3
72
9
73
5
74
0
42
0.000000001
43
0.0000000001
44
0.0000000001
40
0
40
0
40
0
40
0
40
0.047817933233738598
40
0.075880116338306852
40
0.075880116338306852
40
0.075880116338306852
40
0.075880116338306852
10
-91.7471226665823
20
13.363273157091351
30
0
10
-91.869576744960938
20
13.261136312183105
30
0
10
-92.063893585633508
20
13.099059970736437
30
0
10
-92.246954270839296
20
12.924440638360659
30
0
10
-92.314654252275659
20
12.859862460108014
30
0
0
SPLINE
5
189
100
AcDbEntity
8
0
100
AcDbSpline
70
0
71
3
72
9
73
5
74
0
42
0.000000001
43
0.0000000001
44
0.0000000001
40
0
40
0
40
0
40
0
40
0.01753144292658395
40
0.033776408230392296
40
0.033776408230392296
40
0.033776408230392296
40
0.033776408230392296
10
-92.314654252275659
20
12.859862460108014
30
0
10
-92.354106565603828
20
12.816610399707706
30
0
10
-92.43011613573367
20
12.733280165282386
30
0
10
-92.492174064221871
20
12.639119474191956
30
0
10
-92.522021195635034
20
12.593832327337475
30
0
0
SPLINE
5
190
100
AcDbEntity
8
0
100
AcDbSpline
70
0
71
3
72
9
73
5
74
0
42
0.000000001
43
0.0000000001
44
0.0000000001
40
0
40
0
40
0
40
0
40
0.026577006272630183
40
0.057615598704034272
40
0.057615598704034272
40
0.057615598704034272
40
0.057615598704034272
10
-88.674817940935327
20
15.25140406033537
30
0
10
-88.741771698623353
20
15.193145312788229
30
0
10
-88.88691900359477
20
15.066847693513761
30
0
10
-89.051413546017045
20
14.966907866736587
30
0
10
-89.14002980922146
20
14.913068427057476
30
0
0
SPLINE
5
191
100
AcDbEntity
8
0
100
AcDbSpline
70
0
71
3
72
9
73
5
74
0
42
0.000000001
43
0.0000000001
44
0.0000000001
40
0
40
0
40
0
40
0
40
0.031071789246425643
40
0.05765113952882582
40
0.05765113952882582
40
0.05765113952882582
40
0.05765113952882582
10
-89.14002980922146
20
14.913068427057476
30
0
10
-89.230027250832961
20
14.861534098634577
30
0
10
-89.397010073174926
20
14.765916407137308
30
0
10
-89.57501597644837
20
14.692954667589614
30
0
10
-89.657083413347436
20
14.659316553087445
30
0
0
SPLINE
5
192
100
AcDbEntity
8
0
100
AcDbSpline
70
0
71
3
72
9
73
5
74
0
42
0.000000001
43
0.0000000001
44
0.0000000001
40
0
40
0
40
0
40
0
40
0.03444228491576011
40
0.067338229300620986
40
0.067338229300620986
40
0.067338229300620986
40
0.067338229300620986
10
-109.32011093829556
20
12.720708264322491
30
0
10
-109.37815358569179
20
12.619937273213019
30
0
10
-109.4916329645757
20
12.422919563070465
30
0
10
-109.67610511048287
20
12.290279933910554
30
0
10
-109.76622309420986
20
12.225483073206158
30
0
0
SPLINE
5
193
100
AcDbEntity
8
0
100
AcDbSpline
70
0
71
3
72
9
73
5
74
0
42
0.000000001
43
0.0000000001
44
0.0000000001
40
0
40
0
40
0
40
0
40
0.032916280855439961
40
0.067292321503253524
40
0.067292321503253524
40
0.067292321503253524
40
0.067292321503253524
10
-109.76622309420986
20
12.225483073206158
30
0
10
-109.86524462375621
20
12.175353126781474
30
0
10
-110.06767905525356
20
12.072870088476947
30
0
10
-110.29435509885886
20
12.06010688869897
30
0
10
-110.41015174125118
20
12.053586853952618
30
0
0
SPLINE
5
194
100
AcDbEntity
8
0
100
AcDbSpline
70
0
71
3
72
9
73
5
74
0
42
0.000000001
43
0.0000000001
44
0.0000000001
40
0
40
0
40
0
40
0
40
0.05686186355207104
40
0.11270949911242253
40
0.11270949911242253
40
0.11270949911242253
40
0.11270949911242253
10
-110.41015174125118
20
12.053586853952618
30
0
10
-110.60476114315513
20
12.071715829580004
30
0
10
-110.99050875747795
20
12.107650419738361
30
0
10
-111.27202488975166
20
12.373451295460615
30
0
10
-111.41151632998867
20
12.505155815096112
30
0
0
SPLINE
5
195
100
AcDbEntity
8
0
100
AcDbSpline
70
0
71
3
72
9
73
5
74
0
42
0.000000001
43
0.0000000001
44
0.0000000001
40
0
40
0
40
0
40
0
40
0.066476101088174588
40
0.1560531839233604
40
0.1560531839233604
40
0.1560531839233604
40
0.1560531839233604
10
-111.41151632998867
20
12.505155815096112
30
0
10
-111.52390582056429
20
12.69997963995128
30
0
10
-111.78774105693881
20
13.157330141486403
30
0
10
-111.79487182235711
20
13.688601203972501
30
0
10
-111.79896499846859
20
13.99355949303648
30
0
0
SPLINE
5
196
100
AcDbEntity
8
0
100
AcDbSpline
70
0
71
3
72
9
73
5
74
0
42
0.000000001
43
0.0000000001
44
0.0000000001
40
0
40
0
40
0
40
0
40
0.10070747629377275
40
0.17635477635051472
40
0.17635477635051472
40
0.17635477635051472
40
0.17635477635051472
10
-111.79896499846859
20
13.99355949303648
30
0
10
-111.79378221808022
20
14.335878182762755
30
0
10
-111.78470634695424
20
14.935332544931212
30
0
10
-111.49490035242634
20
15.45630826227036
30
0
10
-111.3705882046072
20
15.679780556173535
30
0
0
SPLINE
5
197
100
AcDbEntity
8
0
100
AcDbSpline
70
0
71
3
72
9
73
5
74
0
42
0.000000001
43
0.0000000001
44
0.0000000001
40
0
40
0
40
0
40
0
40
0.026577121199590915
40
0.057615538723085738
40
0.057615538723085738
40
0.057615538723085738
40
0.057615538723085738
10
-115.07863756154461
20
15.25140406033537
30
0
10
-115.14559188985152
20
15.193145413669624
30
0
10
-115.29073965308271
20
15.066848690720693
30
0
10
-115.45523340405892
20
14.966908055118475
30
0
10
-115.5438488337843
20
14.913068427057476
30
0
0
SPLINE
5
198
100
AcDbEntity
8
0
100
AcDbSpline
70
0
71
3
72
9
73
5
74
0
42
0.000000001
43
0.0000000001
44
0.0000000001
40
0
40
0
40
0
40
0
40
0.031071605823690934
40
0.057651120163767819
40
0.057651120163767819
40
0.057651120163767819
40
0.057651120163767819
10
-115.5438488337843
20
14.913068427057476
30
0
10
-115.63384552001138
20
14.861533976778178
30
0
10
-115.80082787043956
20
14.76591552685049
30
0
10
-115.978834044176
20
14.692954539652096
30
0
10
-116.06090213988705
20
14.659316553087445
30
0
0
SPLINE
5
199
100
AcDbEntity
8
0
100
AcDbSpline
70
0
71
3
72
9
73
5
74
0
42
0.000000001
43
0.0000000001
44
0.0000000001
40
0
40
0
40
0
40
0
40
0.044151769224768808
40
0.086199651323077803
40
0.086199651323077803
40
0.086199651323077803
40
0.086199651323077803
10
-116.06090213988705
20
15.134077979536267
30
0
10
-115.92920936391653
20
15.200890415242391
30
0
10
-115.67209913776378
20
15.331331590376156
30
0
10
-115.44926993348656
20
15.514186185955602
30
0
10
-115.34057464335842
20
15.603382004709454
30
0
0
SPLINE
5
200
100
AcDbEntity
8
0
100
AcDbSpline
70
0
71
3
72
9
73
5
74
0
42
0.000000001
43
0.0000000001
44
0.0000000001
40
0
40
0
40
0
40
0
40
0.037819699031922817
40
0.069339037402471021
40
0.069339037402471021
40
0.069339037402471021
40
0.069339037402471021
10
-115.34057464335842
20
15.603382004709454
30
0
10
-115.24777061829482
20
15.689837448876993
30
0
10
-115.07762273426344
20
15.848345777346776
30
0
10
-114.95826768206592
20
16.047597243737034
30
0
10
-114.90401264165325
20
16.138170672865122
30
0
0
LINE
5
201
100
AcDbEntity
8
0
100
AcDbLine
10
-114.90401264165325
20
16.138170672865122
30
0
11
-114.58750512336178
21
16.138170672865122
31
0
0
LINE
5
202
100
AcDbEntity
8
0
100
AcDbLine
10
-114.58750512336178
20
16.138170672865122
30
0
11
-114.58750512336178
21
12.121799601526471
31
0
0
LINE
5
203
100
AcDbEntity
8
0
100
AcDbLine
10
-114.58750512336178
20
12.121799601526471
30
0
11
-115.07863756154461
21
12.121799601526471
31
0
0
LINE
5
204
100
AcDbEntity
8
0
100
AcDbLine
10
-115.07863756154461
20
12.121799601526471
30
0
11
-115.07863756154461
21
15.25140406033537
31
0
0
LINE
5
205
100
AcDbEntity
8
0
100
AcDbLine
10
-116.06090213988705
20
14.659316553087445
30
0
11
-116.06090213988705
21
15.134077979536267
31
0
0
SPLINE
5
206
100
AcDbEntity
8
0
100
AcDbSpline
70
0
71
3
72
9
73
5
74
0
42
0.000000001
43
0.0000000001
44
0.0000000001
40
0
40
0
40
0
40
0
40
0.026189789698245609
40
0.046290727582999187
40
0.046290727582999187
40
0.046290727582999187
40
0.046290727582999187
10
-109.71711005900784
20
15.104064358682843
30
0
10
-109.73787314215525
20
15.189874248647602
30
0
10
-109.77457210907457
20
15.341544127865907
30
0
10
-109.86387177367553
20
15.468937156618395
30
0
10
-109.90264858935757
20
15.524255348654004
30
0
0
SPLINE
5
207
100
AcDbEntity
8
0
100
AcDbSpline
70
0
71
3
72
9
73
5
74
0
42
0.000000001
43
0.0000000001
44
0.0000000001
40
0
40
0
40
0
40
0
40
0.027254133121486591
40
0.054638419047729647
40
0.054638419047729647
40
0.054638419047729647
40
0.054638419047729647
10
-109.90264858935757
20
15.524255348654004
30
0
10
-109.97302311445922
20
15.585533021593614
30
0
10
-110.11410823999412
20
15.708381000555921
30
0
10
-110.30040863917665
20
15.725680393787346
30
0
10
-110.39378072951718
20
15.734350694627972
30
0
0
SPLINE
5
208
100
AcDbEntity
8
0
100
AcDbSpline
70
0
71
3
72
9
73
5
74
0
42
0.000000001
43
0.0000000001
44
0.0000000001
40
0
40
0
40
0
40
0
40
0.022274692657183227
40
0.043812805463129725
40
0.043812805463129725
40
0.043812805463129725
40
0.043812805463129725
10
-110.39378072951718
20
15.734350694627972
30
0
10
-110.46909529039712
20
15.729270101449114
30
0
10
-110.61723390919465
20
15.719276920218356
30
0
10
-110.74364404557086
20
15.641578420111333
30
0
10
-110.80578651164456
20
15.603382302732678
30
0
0
SPLINE
5
209
100
AcDbEntity
8
0
100
AcDbSpline
70
0
71
3
72
9
73
5
74
0
42
0.000000001
43
0.0000000001
44
0.0000000001
40
0
40
0
40
0
40
0
40
0.029374348965443893
40
0.062044310709977853
40
0.062044310709977853
40
0.062044310709977853
40
0.062044310709977853
10
-110.80578651164456
20
15.603382302732678
30
0
10
-110.88004360893254
20
15.537893596908352
30
0
10
-111.03688897159834
20
15.399568774222452
30
0
10
-111.12500730566521
20
15.209567995060223
30
0
10
-111.17140676711483
20
15.109521461935254
30
0
0
SPLINE
5
210
100
AcDbEntity
8
0
100
AcDbSpline
70
0
71
3
72
9
73
5
74
0
42
0.000000001
43
0.0000000001
44
0.0000000001
40
0
40
0
40
0
40
0
40
0.040649949071165786
40
0.093920004436831933
40
0.093920004436831933
40
0.093920004436831933
40
0.093920004436831933
10
-111.17140676711483
20
15.109521461935254
30
0
10
-111.21055236263902
20
14.979183929898589
30
0
10
-111.30099662122544
20
14.678044522177851
30
0
10
-111.30709949946157
20
14.363155743068566
30
0
10
-111.31056096290035
20
14.184555424661847
30
0
0
SPLINE
5
211
100
AcDbEntity
8
0
100
AcDbSpline
70
0
71
3
72
9
73
5
74
0
42
0.000000001
43
0.0000000001
44
0.0000000001
40
0
40
0
40
0
40
0
40
0.030699212664229081
40
0.059595854271267713
40
0.059595854271267713
40
0.059595854271267713
40
0.059595854271267713
10
-111.31056096290035
20
14.184555424661847
30
0
10
-111.24951378121109
20
14.268085819628553
30
0
10
-111.13100393591256
20
14.430241940702555
30
0
10
-110.95976010485849
20
14.534900301063926
30
0
10
-110.87672795985623
20
14.585646702261181
30
0
0
SPLINE
5
212
100
AcDbEntity
8
0
100
AcDbSpline
70
0
71
3
72
9
73
5
74
0
42
0.000000001
43
0.0000000001
44
0.0000000001
40
0
40
0
40
0
40
0
40
0.028038831404769253
40
0.055722859280717643
40
0.055722859280717643
40
0.055722859280717643
40
0.055722859280717643
10
-110.87672795985623
20
14.585646702261181
30
0
10
-110.79051310082663
20
14.623845383346154
30
0
10
-110.61917434607398
20
14.69975937919282
30
0
10
-110.43213506371612
20
14.71102062237934
30
0
10
-110.33921088908596
20
14.716615392179699
30
0
0
SPLINE
5
213
100
AcDbEntity
8
0
100
AcDbSpline
70
0
71
3
72
9
73
5
74
0
42
0.000000001
43
0.0000000001
44
0.0000000001
40
0
40
0
40
0
40
0
40
0.046353546455788763
40
0.093169920511407545
40
0.093169920511407545
40
0.093169920511407545
40
0.093169920511407545
10
-110.33921088908596
20
14.716615392179699
30
0
10
-110.18129969248447
20
14.701254733069895
30
0
10
-109.86390059877641
20
14.670380042831717
30
0
10
-109.62364599974022
20
14.460532353992399
30
0
10
-109.50292196010037
20
14.355087293596478
30
0
0
SPLINE
5
214
100
AcDbEntity
8
0
100
AcDbSpline
70
0
71
3
72
9
73
5
74
0
42
0.000000001
43
0.0000000001
44
0.0000000001
40
0
40
0
40
0
40
0
40
0.04886041573875799
40
0.10158360522142608
40
0.10158360522142608
40
0.10158360522142608
40
0.10158360522142608
10
-109.50292196010037
20
14.355087293596478
30
0
10
-109.40229126784565
20
14.222377263055726
30
0
10
-109.19307429004061
20
13.946465502020885
30
0
10
-109.16982911709219
20
13.600257879328675
30
0
10
-109.15776457522793
20
13.420571698160382
30
0
0
SPLINE
5
215
100
AcDbEntity
8
0
100
AcDbSpline
70
0
71
3
72
9
73
5
74
0
42
0.000000001
43
0.0000000001
44
0.0000000001
40
0
40
0
40
0
40
0
40
0.036549393087509888
40
0.07234675124696098
40
0.07234675124696098
40
0.07234675124696098
40
0.07234675124696098
10
-109.15776457522793
20
13.420571698160382
30
0
10
-109.16424361405076
20
13.297849368560302
30
0
10
-109.17706837994805
20
13.054929825935703
30
0
10
-109.27276165851217
20
12.831340725131955
30
0
10
-109.32011093829556
20
12.720708264322491
30
0
0
LINE
5
216
100
AcDbEntity
8
0
100
AcDbLine
10
-89.657083413347451
20
14.659316553087445
30
0
11
-89.657083413347436
21
15.134077979536267
31
0
0
SPLINE
5
217
100
AcDbEntity
8
0
100
AcDbSpline
70
0
71
3
72
9
73
5
74
0
42
0.000000001
43
0.0000000001
44
0.0000000001
40
0
40
0
40
0
40
0
40
0.028361792401430646
40
0.05916143118281296
40
0.05916143118281296
40
0.05916143118281296
40
0.05916143118281296
10
-91.279183289751245
20
15.531076504202099
30
0
10
-91.356186409659728
20
15.589541771620251
30
0
10
-91.51681147576447
20
15.711497706068496
30
0
10
-91.718514334009825
20
15.724732311958963
30
0
10
-91.823521516069604
20
15.731622292013379
30
0
0
SPLINE
5
218
100
AcDbEntity
8
0
100
AcDbSpline
70
0
71
3
72
9
73
5
74
0
42
0.000000001
43
0.0000000001
44
0.0000000001
40
0
40
0
40
0
40
0
40
0.032363881139714862
40
0.061881490535328681
40
0.061881490535328681
40
0.061881490535328681
40
0.061881490535328681
10
-91.823521516069604
20
15.731622292013379
30
0
10
-91.93402982721274
20
15.72450406629425
30
0
10
-92.145327692896927
20
15.71089363386295
30
0
10
-92.311695354881806
20
15.580836018723049
30
0
10
-92.391053101762964
20
15.518798245401593
30
0
0
SPLINE
5
219
100
AcDbEntity
8
0
100
AcDbSpline
70
0
71
3
72
9
73
5
74
0
42
0.000000001
43
0.0000000001
44
0.0000000001
40
0
40
0
40
0
40
0
40
0.030014246304379277
40
0.064026753290435515
40
0.064026753290435515
40
0.064026753290435515
40
0.064026753290435515
10
-92.391053101762964
20
15.518798245401593
30
0
10
-92.453200444996142
20
15.437527326249576
30
0
10
-92.585773909360171
20
15.26415921840294
30
0
10
-92.599378094179031
20
15.045562906168723
30
0
10
-92.606604954942895
20
14.929439438791485
30
0
0
SPLINE
5
220
100
AcDbEntity
8
0
100
AcDbSpline
70
0
71
3
72
9
73
5
74
0
42
0.000000001
43
0.0000000001
44
0.0000000001
40
0
40
0
40
0
40
0
40
0.05127003796683885
40
0.096333729674128038
40
0.096333729674128038
40
0.096333729674128038
40
0.096333729674128038
10
-93.111380002245141
20
14.981281174631329
30
0
10
-93.086189520850525
20
15.154634255828867
30
0
10
-93.038857918978067
20
15.480355662024472
30
0
10
-92.822440528064178
20
15.726829566259067
30
0
10
-92.721203229173852
20
15.842126919241162
30
0
0
SPLINE
5
221
100
AcDbEntity
8
0
100
AcDbSpline
70
0
71
3
72
9
73
5
74
0
42
0.000000001
43
0.0000000001
44
0.0000000001
40
0
40
0
40
0
40
0
40
0.045427412835953605
40
0.09718732908167288
40
0.09718732908167288
40
0.09718732908167288
40
0.09718732908167288
10
-92.721203229173852
20
15.842126919241162
30
0
10
-92.593249364371687
20
15.928374682627622
30
0
10
-92.319505085543739
20
16.112892999641794
30
0
10
-91.988756445079019
20
16.129386554393847
30
0
10
-91.812606713518335
20
16.138170672865122
30
0
0
SPLINE
5
222
100
AcDbEntity
8
0
100
AcDbSpline
70
0
71
3
72
9
73
5
74
0
42
0.000000001
43
0.0000000001
44
0.0000000001
40
0
40
0
40
0
40
0
40
0.052182898977226055
40
0.09842679298597834
40
0.09842679298597834
40
0.09842679298597834
40
0.09842679298597834
10
-91.812606713518335
20
16.138170672865122
30
0
10
-91.634591240111945
20
16.128388818649107
30
0
10
-91.298820470517143
20
16.109938396023896
30
0
10
-91.028357012858521
20
15.911953883559541
30
0
10
-90.901285073503686
20
15.818934751959057
30
0
0
SPLINE
5
223
100
AcDbEntity
8
0
100
AcDbSpline
70
0
71
3
72
9
73
5
74
0
42
0.000000001
43
0.0000000001
44
0.0000000001
40
0
40
0
40
0
40
0
40
0.043716925674039633
40
0.087904109049104256
40
0.087904109049104256
40
0.087904109049104256
40
0.087904109049104256
10
-90.901285073503686
20
15.818934751959057
30
0
10
-90.803399152574599
20
15.705739404818642
30
0
10
-90.606574363661494
20
15.47813108183011
30
0
10
-90.579358349967663
20
15.1783554653185
30
0
10
-90.565677544817163
20
15.027665807218762
30
0
0
SPLINE
5
224
100
AcDbEntity
8
0
100
AcDbSpline
70
0
71
3
72
9
73
5
74
0
42
0.000000001
43
0.0000000001
44
0.0000000001
40
0
40
0
40
0
40
0
40
0.0271546168413817
40
0.058913589821729291
40
0.058913589821729291
40
0.058913589821729291
40
0.058913589821729291
10
-90.663903615221216
20
14.555633081407757
30
0
10
-90.704644419813775
20
14.474433937048243
30
0
10
-90.793034068792934
20
14.298267463677801
30
0
10
-90.920984783008009
20
14.148152758596851
30
0
10
-90.989960095628931
20
14.067229343862744
30
0
0
LINE
5
225
100
AcDbEntity
8
0
100
AcDbLine
10
-85.340574643358423
20
16.06995792529127
30
0
11
-82.751215359911157
21
16.06995792529127
31
0
0
SPLINE
5
226
100
AcDbEntity
8
0
100
AcDbSpline
70
0
71
3
72
9
73
5
74
0
42
0.000000001
43
0.0000000001
44
0.0000000001
40
0
40
0
40
0
40
0
40
0.051269980553000492
40
0.096333813369927232
40
0.096333813369927232
40
0.096333813369927232
40
0.096333813369927232
10
-40.303736588701433
20
14.981281174631329
30
0
10
-40.278547207952045
20
15.154634396783504
30
0
10
-40.231217580013009
20
15.480356715570414
30
0
10
-40.01479825044985
20
15.726829724301862
30
0
10
-39.913559815630144
20
15.842126919241162
30
0
0
LINE
5
227
100
AcDbEntity
8
0
100
AcDbLine
10
-53.397875687822527
20
15.597925199480267
30
0
11
-54.994054696306414
21
15.597925199480267
31
0
0
SPLINE
5
228
100
AcDbEntity
8
0
100
AcDbSpline
70
0
71
3
72
9
73
5
74
0
42
0.000000001
43
0.0000000001
44
0.0000000001
40
0
40
0
40
0
40
0
40
0.044701545952935177
40
0.091835902448391307
40
0.091835902448391307
40
0.091835902448391307
40
0.091835902448391307
10
-55.467453858598894
20
12.35918016573927
30
0
10
-55.570361276853703
20
12.471468848499491
30
0
10
-55.781776685931838
20
12.702157346988635
30
0
10
-55.834606985234274
20
13.011024085379429
30
0
10
-55.861721894487566
20
13.169548524828167
30
0
0
SPLINE
5
229
100
AcDbEntity
8
0
100
AcDbSpline
70
0
71
3
72
9
73
5
74
0
42
0.000000001
43
0.0000000001
44
0.0000000001
40
0
40
0
40
0
40
0
40
0.029865842257283892
40
0.056057761306951011
40
0.056057761306951011
40
0.056057761306951011
40
0.056057761306951011
10
-28.702107331499285
20
14.290967298956128
30
0
10
-28.795481271762675
20
14.329689715911737
30
0
10
-28.970742830116993
20
14.402371142011365
30
0
10
-29.096348856217187
20
14.544020540137769
30
0
10
-29.155035874590105
20
14.610203517885418
30
0
0
SPLINE
5
230
100
AcDbEntity
8
0
100
AcDbSpline
70
0
71
3
72
9
73
5
74
0
42
0.000000001
43
0.0000000001
44
0.0000000001
40
0
40
0
40
0
40
0
40
0.025321865055977815
40
0.052448911650075036
40
0.052448911650075036
40
0.052448911650075036
40
0.052448911650075036
10
-29.155035874590105
20
14.610203517885418
30
0
10
-29.19799909364734
20
14.684292914564308
30
0
10
-29.286988355518631
20
14.837753499399904
30
0
10
-29.297132113860247
20
15.015078621070035
30
0
10
-29.302378556474871
20
15.106792761297436
30
0
0
SPLINE
5
231
100
AcDbEntity
8
0
100
AcDbSpline
70
0
71
3
72
9
73
5
74
0
42
0.000000001
43
0.0000000001
44
0.0000000001
40
0
40
0
40
0
40
0
40
0.040936085766742208
40
0.081646539233148588
40
0.081646539233148588
40
0.081646539233148588
40
0.081646539233148588
10
-29.302378556474871
20
15.106792761297436
30
0
10
-29.289447210701649
20
15.246377556283154
30
0
10
-29.263655794394126
20
15.524777780112347
30
0
10
-29.080116614985734
20
15.735628735337768
30
0
10
-28.988600632890886
20
15.840762866945477
30
0
0
SPLINE
5
232
100
AcDbEntity
8
0
100
AcDbSpline
70
0
71
3
72
9
73
5
74
0
42
0.000000001
43
0.0000000001
44
0.0000000001
40
0
40
0
40
0
40
0
40
0.042828921251537089
40
0.090345507081143889
40
0.090345507081143889
40
0.090345507081143889
40
0.090345507081143889
10
-28.988600632890886
20
15.840762866945477
30
0
10
-28.87126206855438
20
15.927443379217134
30
0
10
-28.623742126763343
20
16.110291665057517
30
0
10
-28.315687484330017
20
16.128561684350842
30
0
10
-28.153668305620378
20
16.138170672865122
30
0
0
SPLINE
5
233
100
AcDbEntity
8
0
100
AcDbSpline
70
0
71
3
72
9
73
5
74
0
42
0.000000001
43
0.0000000001
44
0.0000000001
40
0
40
0
40
0
40
0
40
0.04787967698628999
40
0.091382519401844844
40
0.091382519401844844
40
0.091382519401844844
40
0.091382519401844844
10
-28.153668305620378
20
16.138170672865122
30
0
10
-27.990414151655099
20
16.128106254708506
30
0
10
-27.678829428632952
20
16.10889743908244
30
0
10
-27.429335231712706
20
15.922619447049799
30
0
10
-27.310562989458269
20
15.833941413374157
30
0
0
SPLINE
5
234
100
AcDbEntity
8
0
100
AcDbSpline
70
0
71
3
72
9
73
5
74
0
42
0.000000001
43
0.0000000001
44
0.0000000001
40
0
40
0
40
0
40
0
40
0.041364409954536357
40
0.082494137766221484
40
0.082494137766221484
40
0.082494137766221484
40
0.082494137766221484
10
-27.310562989458269
20
15.833941413374157
30
0
10
-27.217455986394583
20
15.727225990574588
30
0
10
-27.031770225466865
20
15.51440059792705
30
0
10
-27.004784517723976
20
15.233300406283202
30
0
10
-26.991330048784441
20
15.093150152178021
30
0
0
SPLINE
5
235
100
AcDbEntity
8
0
100
AcDbSpline
70
0
71
3
72
9
73
5
74
0
42
0.000000001
43
0.0000000001
44
0.0000000001
40
0
40
0
40
0
40
0
40
0.026277733824742161
40
0.051217210804128131
40
0.051217210804128131
40
0.051217210804128131
40
0.051217210804128131
10
-26.991330048784441
20
15.093150152178021
30
0
10
-26.996748423658197
20
15.00434297743416
30
0
10
-27.007309229623253
20
14.831251347078549
30
0
10
-27.094730783571634
20
14.681673787772723
30
0
10
-27.137299439653582
20
14.60883916756651
30
0
0
SPLINE
5
236
100
AcDbEntity
8
0
100
AcDbSpline
70
0
71
3
72
9
73
5
74
0
42
0.000000001
43
0.0000000001
44
0.0000000001
40
0
40
0
40
0
40
0
40
0.025901482332008327
40
0.055176223426016122
40
0.055176223426016122
40
0.055176223426016122
40
0.055176223426016122
10
-27.137299439653582
20
14.60883916756651
30
0
10
-27.194991753311086
20
14.543112851008601
30
0
10
-27.317889892789236
20
14.403100403810296
30
0
10
-27.489585499916309
20
14.329837993107816
30
0
10
-27.580681702837175
20
14.290967298956128
30
0
0
SPLINE
5
237
100
AcDbEntity
8
0
100
AcDbSpline
70
0
71
3
72
9
73
5
74
0
42
0.000000001
43
0.0000000001
44
0.0000000001
40
0
40
0
40
0
40
0
40
0.026577374040096028
40
0.057615566682605257
40
0.057615566682605257
40
0.057615566682605257
40
0.057615566682605257
10
-35.867186448320574
20
15.25140406033537
30
0
10
-35.934141998502668
20
15.193145583426608
30
0
10
-36.079291100158372
20
15.066850368703744
30
0
10
-36.243784019783462
20
14.966908372098633
30
0
10
-36.332398316606707
20
14.913068427057476
30
0
0
LINE
5
238
100
AcDbEntity
8
0
100
AcDbLine
10
-35.376053712114519
20
16.138170672865122
30
0
11
-35.376053712114519
21
12.121799601526471
31
0
0
LWPOLYLINE
5
239
100
AcDbEntity
8
0
100
AcDbPolyline
90
4
70
1
43
0.0
10
-33.842621705278582
20
12.121799601526471
10
-33.842621705278582
20
12.681144787283154
10
-33.283272645219988
20
12.681144787283154
10
-33.283272645219988
20
12.121799601526471
0
LINE
5
240
100
AcDbEntity
8
0
100
AcDbLine
10
-32.532940766557878
20
15.597925199480267
30
0
11
-32.532940766557878
21
16.06995792529127
31
0
0
LINE
5
241
100
AcDbEntity
8
0
100
AcDbLine
10
-53.397875687822527
20
16.067229224653452
30
0
11
-53.397875687822527
21
15.597925199480267
31
0
0
LINE
5
242
100
AcDbEntity
8
0
100
AcDbLine
10
-55.313292405351824
20
13.952631665678235
30
0
11
-55.774408242448992
21
14.012658907385083
31
0
0
LINE
5
243
100
AcDbEntity
8
0
100
AcDbLine
10
-55.774408242448992
20
14.012658907385083
30
0
11
-55.386958977922625
21
16.067229224653452
31
0
0
SPLINE
5
244
100
AcDbEntity
8
0
100
AcDbSpline
70
0
71
3
72
9
73
5
74
0
42
0.000000001
43
0.0000000001
44
0.0000000001
40
0
40
0
40
0
40
0
40
0.066645888977325013
40
0.12639630346770639
40
0.12639630346770639
40
0.12639630346770639
40
0.12639630346770639
10
-57.683006188615984
20
14.551540328474255
30
0
10
-57.57451875215822
20
14.745955879559602
30
0
10
-57.368768462810067
20
15.114671900471045
30
0
10
-57.103219015819562
20
15.442807853139804
30
0
10
-56.97768773768825
20
15.597925199480267
30
0
0
LINE
5
245
100
AcDbEntity
8
0
100
AcDbLine
10
-56.97768773768825
20
15.597925199480267
30
0
11
-58.936758897051043
21
15.597925199480267
31
0
0
LINE
5
246
100
AcDbEntity
8
0
100
AcDbLine
10
-58.936758897051043
20
15.597925199480267
30
0
11
-58.936758897051043
21
16.06995792529127
31
0
0
SPLINE
5
247
100
AcDbEntity
8
0
100
AcDbSpline
70
0
71
3
72
9
73
5
74
0
42
0.000000001
43
0.0000000001
44
0.0000000001
40
0
40
0
40
0
40
0
40
0.060722564387846269
40
0.1321788709797122
40
0.1321788709797122
40
0.1321788709797122
40
0.1321788709797122
10
-56.347399613603777
20
15.687966062040539
30
0
10
-56.478757636532237
20
15.533421399344201
30
0
10
-56.764693438813438
20
15.197013686048891
30
0
10
-56.985302582913263
20
14.814346098817207
30
0
10
-57.104564568742937
20
14.607474817247601
30
0
0
SPLINE
5
248
100
AcDbEntity
8
0
100
AcDbSpline
70
0
71
3
72
9
73
5
74
0
42
0.000000001
43
0.0000000001
44
0.0000000001
40
0
40
0
40
0
40
0
40
0.07600937745982049
40
0.15049276526761901
40
0.15049276526761901
40
0.15049276526761901
40
0.15049276526761901
10
-57.104564568742937
20
14.607474817247601
30
0
10
-57.222161410498359
20
14.38246349356049
30
0
10
-57.454994180532125
20
13.936958248683291
30
0
10
-57.608429966016452
20
13.458295049133842
30
0
10
-57.684369942888445
20
13.221390260668011
30
0
0
SPLINE
5
249
100
AcDbEntity
8
0
100
AcDbSpline
70
0
71
3
72
9
73
5
74
0
42
0.000000001
43
0.0000000001
44
0.0000000001
40
0
40
0
40
0
40
0
40
0.053960264736965635
40
0.11172332819832262
40
0.11172332819832262
40
0.11172332819832262
40
0.11172332819832262
10
-57.684369942888445
20
13.221390260668011
30
0
10
-57.729257718599257
20
13.04688674161056
30
0
10
-57.822196693644663
20
12.685581732703472
30
0
10
-57.855448004510095
20
12.313943541241388
30
0
10
-57.872639558061785
20
12.121799601526471
30
0
0
SPLINE
5
250
100
AcDbEntity
8
0
100
AcDbSpline
70
0
71
3
72
9
73
5
74
0
42
0.000000001
43
0.0000000001
44
0.0000000001
40
0
40
0
40
0
40
0
40
0.052358544946400076
40
0.11575122857246505
40
0.11575122857246505
40
0.11575122857246505
40
0.11575122857246505
10
-58.377414605364031
20
12.121799601526471
30
0
10
-58.365190918298197
20
12.296237312053135
30
0
10
-58.338167501260827
20
12.681874065776897
30
0
10
-58.243641117034393
20
13.056919513140182
30
0
10
-58.191872498735613
20
13.262318088026257
30
0
0
SPLINE
5
251
100
AcDbEntity
8
0
100
AcDbSpline
70
0
71
3
72
9
73
5
74
0
42
0.000000001
43
0.0000000001
44
0.0000000001
40
0
40
0
40
0
40
0
40
0.06911332439271077
40
0.13883491335666831
40
0.13883491335666831
40
0.13883491335666831
40
0.13883491335666831
10
-58.191872498735613
20
13.262318088026257
30
0
10
-58.126091423214405
20
13.4836062051357
30
0
10
-57.993950334636395
20
13.928129990320457
30
0
10
-57.786956531560712
20
14.343130814174771
30
0
10
-57.683006188615984
20
14.551540328474255
30
0
0
SPLINE
5
252
100
AcDbEntity
8
0
100
AcDbSpline
70
0
71
3
72
9
73
5
74
0
42
0.000000001
43
0.0000000001
44
0.0000000001
40
0
40
0
40
0
40
0
40
0.027237869411942027
40
0.055282020660568428
40
0.055282020660568428
40
0.055282020660568428
40
0.055282020660568428
10
-80.396507642015649
20
16.008566333265513
30
0
10
-80.318715213754288
20
15.960011438127896
30
0
10
-80.160827584537031
20
15.861464350043516
30
0
10
-80.05108833993468
20
15.711059313917442
30
0
10
-79.995418450578882
20
15.634759975881787
30
0
0
SPLINE
5
253
100
AcDbEntity
8
0
100
AcDbSpline
70
0
71
3
72
9
73
5
74
0
42
0.000000001
43
0.0000000001
44
0.0000000001
40
0
40
0
40
0
40
0
40
0.030540620069784773
40
0.064665671039237871
40
0.064665671039237871
40
0.064665671039237871
40
0.064665671039237871
10
-79.995418450578882
20
15.634759975881787
30
0
10
-79.944781206958098
20
15.546000876405055
30
0
10
-79.837563628178316
20
15.358065375574153
30
0
10
-79.778364727591807
20
15.149832170429987
30
0
10
-79.747124573930932
20
15.039944364042492
30
0
0
SPLINE
5
254
100
AcDbEntity
8
0
100
AcDbSpline
70
0
71
3
72
9
73
5
74
0
42
0.000000001
43
0.0000000001
44
0.0000000001
40
0
40
0
40
0
40
0
40
0.041716658004775219
40
0.095140633500572058
40
0.095140633500572058
40
0.095140633500572058
40
0.095140633500572058
10
-79.747124573930932
20
15.039944364042492
30
0
10
-79.720964289088414
20
14.903097854703535
30
0
10
-79.661302125542448
20
14.591000380611534
30
0
10
-79.658600466287922
20
14.273051337321942
30
0
10
-79.657083413347436
20
14.094514562101574
30
0
0
SPLINE
5
255
100
AcDbEntity
8
0
100
AcDbSpline
70
0
71
3
72
9
73
5
74
0
42
0.000000001
43
0.0000000001
44
0.0000000001
40
0
40
0
40
0
40
0
40
0.063711103175133205
40
0.11490729883949638
40
0.11490729883949638
40
0.11490729883949638
40
0.11490729883949638
10
-79.657083413347436
20
14.094514562101574
30
0
10
-79.660000659264469
20
13.881244791190777
30
0
10
-79.665262110278064
20
13.496598284095873
30
0
10
-79.759643020766958
20
13.124067488625123
30
0
10
-79.801693818315698
20
12.95808882853529
30
0
0
SPLINE
5
256
100
AcDbEntity
8
0
100
AcDbSpline
70
0
71
3
72
9
73
5
74
0
42
0.000000001
43
0.0000000001
44
0.0000000001
40
0
40
0
40
0
40
0
40
0.042369027640295653
40
0.080425105951508258
40
0.080425105951508258
40
0.080425105951508258
40
0.080425105951508258
10
-79.801693818315698
20
12.95808882853529
30
0
10
-79.853037159079349
20
12.824516310707953
30
0
10
-79.950497352310109
20
12.570968271095717
30
0
10
-80.143048612634175
20
12.379977385722661
30
0
10
-80.234161278948022
20
12.289603067846508
30
0
0
SPLINE
5
257
100
AcDbEntity
8
0
100
AcDbSpline
70
0
71
3
72
9
73
5
74
0
42
0.000000001
43
0.0000000001
44
0.0000000001
40
0
40
0
40
0
40
0
40
0.037070952429312846
40
0.077645515322698228
40
0.077645515322698228
40
0.077645515322698228
40
0.077645515322698228
10
-80.234161278948022
20
12.289603067846508
30
0
10
-80.339467373149191
20
12.220803213963114
30
0
10
-80.560032139227474
20
12.076701167513445
30
0
10
-80.823587706461183
20
12.061519966360112
30
0
10
-80.961311719164087
20
12.053586853952618
30
0
0
SPLINE
5
258
100
AcDbEntity
8
0
100
AcDbSpline
70
0
71
3
72
9
73
5
74
0
42
0.000000001
43
0.0000000001
44
0.0000000001
40
0
40
0
40
0
40
0
40
0.052667829149674036
40
0.10272687181651201
40
0.10272687181651201
40
0.10272687181651201
40
0.10272687181651201
10
-80.961311719164087
20
12.053586853952618
30
0
10
-81.142297519547185
20
12.069043435700294
30
0
10
-81.495304381928548
20
12.099190991002086
30
0
10
-81.747170774115872
20
12.34737842769194
30
0
10
-81.869905850633813
20
12.468320740671368
30
0
0
SPLINE
5
259
100
AcDbEntity
8
0
100
AcDbSpline
70
0
71
3
72
9
73
5
74
0
42
0.000000001
43
0.0000000001
44
0.0000000001
40
0
40
0
40
0
40
0
40
0.072017688050183659
40
0.16951929020036027
40
0.16951929020036027
40
0.16951929020036027
40
0.16951929020036027
10
-81.869905850633813
20
12.468320740671368
30
0
10
-81.984651708559085
20
12.682790222066021
30
0
10
-82.254746971480728
20
13.187620566388192
30
0
10
-82.261598985015354
20
13.763365876378696
30
0
10
-82.265540024980737
20
14.094514562101574
30
0
0
LINE
5
260
100
AcDbEntity
8
0
100
AcDbLine
10
-86.090918442949487
20
12.121799601526471
30
0
11
-86.650262734636499
21
12.121799601526471
31
0
0
LINE
5
261
100
AcDbEntity
8
0
100
AcDbLine
10
-85.340574643358423
20
15.597925199480267
30
0
11
-85.340574643358423
21
16.06995792529127
31
0
0
LINE
5
262
100
AcDbEntity
8
0
100
AcDbLine
10
-86.650262734636499
20
12.121799601526471
30
0
11
-86.650262734636499
21
12.681144787283154
31
0
0
SPLINE
5
263
100
AcDbEntity
8
0
100
AcDbSpline
70
0
71
3
72
9
73
5
74
0
42
0.000000001
43
0.0000000001
44
0.0000000001
40
0
40
0
40
0
40
0
40
0.030540620069784773
40
0.064665708450251574
40
0.064665708450251574
40
0.064665708450251574
40
0.064665708450251574
10
-106.39923777316494
20
15.634759975881787
30
0
10
-106.34860060731714
20
15.546000850508793
30
0
10
-106.24138313118281
20
15.35806518611972
30
0
10
-106.18218334277623
20
15.149832142229505
30
0
10
-106.1509427044241
20
15.039944364042492
30
0
0
SPLINE
5
264
100
AcDbEntity
8
0
100
AcDbSpline
70
0
71
3
72
9
73
5
74
0
42
0.000000001
43
0.0000000001
44
0.0000000001
40
0
40
0
40
0
40
0
40
0.041716677302184348
40
0.09514064777494266
40
0.09514064777494266
40
0.09514064777494266
40
0.09514064777494266
10
-106.1509427044241
20
15.039944364042492
30
0
10
-106.12478186664829
20
14.903097871774388
30
0
10
-106.06511846070886
20
14.591000534160344
30
0
10
-106.06241795094286
20
14.273051364634078
30
0
10
-106.0609015438406
20
14.094514562101574
30
0
0
SPLINE
5
265
100
AcDbEntity
8
0
100
AcDbSpline
70
0
71
3
72
9
73
5
74
0
42
0.000000001
43
0.0000000001
44
0.0000000001
40
0
40
0
40
0
40
0
40
0.06371112346757131
40
0.11490726862244582
40
0.11490726862244582
40
0.11490726862244582
40
0.11490726862244582
10
-106.0609015438406
20
14.094514562101574
30
0
10
-106.06382056492316
20
13.881244865562332
30
0
10
-106.069085214507
20
13.496598716264153
30
0
10
-106.16346352997536
20
13.124067538740862
30
0
10
-106.20551314090176
20
12.95808882853529
30
0
0
SPLINE
5
266
100
AcDbEntity
8
0
100
AcDbSpline
70
0
71
3
72
9
73
5
74
0
42
0.000000001
43
0.0000000001
44
0.0000000001
40
0
40
0
40
0
40
0
40
0.042369129167103947
40
0.080425207478316552
40
0.080425207478316552
40
0.080425207478316552
40
0.080425207478316552
10
-106.20551314090176
20
12.95808882853529
30
0
10
-106.25685741671687
20
12.824516370935072
30
0
10
-106.35431927435778
20
12.570968733136873
30
0
10
-106.54687046662701
20
12.379977456687946
30
0
10
-106.63798298571987
20
12.289603067846508
30
0
0
SPLINE
5
267
100
AcDbEntity
8
0
100
AcDbSpline
70
0
71
3
72
9
73
5
74
0
42
0.000000001
43
0.0000000001
44
0.0000000001
40
0
40
0
40
0
40
0
40
0.037070847688042897
40
0.077645292639348551
40
0.077645292639348551
40
0.077645292639348551
40
0.077645292639348551
10
-106.63798298571987
20
12.289603067846508
30
0
10
-106.74328867185199
20
12.220803213895643
30
0
10
-106.96385257384645
20
12.076701173432124
30
0
10
-107.22740741422459
20
12.061519968189053
30
0
10
-107.36513104175015
20
12.053586853952618
30
0
0
SPLINE
5
268
100
AcDbEntity
8
0
100
AcDbSpline
70
0
71
3
72
9
73
5
74
0
42
0.000000001
43
0.0000000001
44
0.0000000001
40
0
40
0
40
0
40
0
40
0.052667829149674036
40
0.10272696521938016
40
0.10272696521938016
40
0.10272696521938016
40
0.10272696521938016
10
-107.36513104175015
20
12.053586853952618
30
0
10
-107.54611679269689
20
12.069043505247965
30
0
10
-107.89912387962042
20
12.099191223611536
30
0
10
-108.15099087664522
20
12.347378426115672
30
0
10
-108.27372636531277
20
12.468320740671368
30
0
0
SPLINE
5
269
100
AcDbEntity
8
0
100
AcDbSpline
70
0
71
3
72
9
73
5
74
0
42
0.000000001
43
0.0000000001
44
0.0000000001
40
0
40
0
40
0
40
0
40
0.072017688050183659
40
0.16951929020036027
40
0.16951929020036027
40
0.16951929020036027
40
0.16951929020036027
10
-108.27372636531277
20
12.468320740671368
30
0
10
-108.38847222323804
20
12.682790222066021
30
0
10
-108.6585674861597
20
13.187620566388192
30
0
10
-108.66541949969432
20
13.763365876378696
30
0
10
-108.66936053965969
20
14.094514562101574
30
0
0
LWPOLYLINE
5
270
100
AcDbEntity
8
0
100
AcDbPolyline
90
4
70
1
43
0.0
10
-112.4947359773962
20
12.681144787283154
10
-112.4947359773962
20
12.121799601526471
10
-113.05408086512966
20
12.121799601526471
10
-113.05408086512966
20
12.681144787283154
0
LINE
5
271
100
AcDbEntity
8
0
100
AcDbLine
10
-25.708061868107134
20
18.516139495995905
30
0
11
-126.01002636445057
21
18.516139495995905
31
0
0
LINE
5
272
100
AcDbEntity
8
0
100
AcDbLine
10
-126.87043678324058
20
-18.516139495996814
30
0
11
-25.708061868107137
21
-18.516139495995905
31
0
0
ARC
5
273
100
AcDbEntity
8
0
100
AcDbCircle
10
-25.708061868107137
20
0
30
0
40
18.516139495995905
210
-0
220
0
230
1
100
AcDbArc
50
-90
51
89.999999999999986
0
SPLINE
5
274
100
AcDbEntity
8
0
100
AcDbSpline
70
0
71
3
72
9
73
5
74
0
42
0.000000001
43
0.0000000001
44
0.0000000001
40
0
40
0
40
0
40
0
40
0.064121674860648889
40
0.1154728466610961
40
0.1154728466610961
40
0.1154728466610961
40
0.1154728466610961
10
-108.66936053965969
20
14.094514562101574
30
0
10
-108.66647089139541
20
14.309175286530614
30
0
10
-108.6612670985804
20
14.695744804092701
30
0
10
-108.5658275040486
20
15.069975447507211
30
0
10
-108.52338518832607
20
15.236397100897046
30
0
0
SPLINE
5
275
100
AcDbEntity
8
0
100
AcDbSpline
70
0
71
3
72
9
73
5
74
0
42
0.000000001
43
0.0000000001
44
0.0000000001
40
0
40
0
40
0
40
0
40
0.042381971507006247
40
0.080384067184642943
40
0.080384067184642943
40
0.080384067184642943
40
0.080384067184642943
10
-108.52338518832607
20
15.236397100897046
30
0
10
-108.47169319013923
20
15.369882872965523
30
0
10
-108.37365119474809
20
15.623059610351905
30
0
10
-108.18074789233071
20
15.813490878572921
30
0
10
-108.0895515892355
20
15.903518511266919
30
0
0
SPLINE
5
276
100
AcDbEntity
8
0
100
AcDbSpline
70
0
71
3
72
9
73
5
74
0
42
0.000000001
43
0.0000000001
44
0.0000000001
40
0
40
0
40
0
40
0
40
0.036962014822081439
40
0.077329233508439843
40
0.077329233508439843
40
0.077329233508439843
40
0.077329233508439843
10
-108.0895515892355
20
15.903518511266919
30
0
10
-107.98444637455829
20
15.97192240664028
30
0
10
-107.76455290479339
20
16.1150320510597
30
0
10
-107.50212369864768
20
16.130234649398805
30
0
10
-107.36513104175015
20
16.138170672865122
30
0
0
SPLINE
5
277
100
AcDbEntity
8
0
100
AcDbSpline
70
0
71
3
72
9
73
5
74
0
42
0.000000001
43
0.0000000001
44
0.0000000001
40
0
40
0
40
0
40
0
40
0.030391455200955146
40
0.058394552682735038
40
0.058394552682735038
40
0.058394552682735038
40
0.058394552682735038
10
-107.36513104175015
20
16.138170672865122
30
0
10
-107.2629146739026
20
16.133710482418241
30
0
10
-107.06651476353819
20
16.125140612225998
30
0
10
-106.88660502993505
20
16.046350241640134
30
0
10
-106.8003293487875
20
16.008566333265513
30
0
0
SPLINE
5
278
100
AcDbEntity
8
0
100
AcDbSpline
70
0
71
3
72
9
73
5
74
0
42
0.000000001
43
0.0000000001
44
0.0000000001
40
0
40
0
40
0
40
0
40
0.027238160485700068
40
0.05528223547543986
40
0.05528223547543986
40
0.05528223547543986
40
0.05528223547543986
10
-106.8003293487875
20
16.008566333265513
30
0
10
-106.72253550499403
20
15.960011697134469
30
0
10
-106.56464607654354
20
15.861465804895161
30
0
10
-106.45490713903484
20
15.711059469210715
30
0
10
-106.39923777316494
20
15.634759975881787
30
0
0
LINE
5
279
100
AcDbEntity
8
0
100
AcDbLine
10
-88.50019302104397
20
16.138170672865122
30
0
11
-88.183685204729272
21
16.138170672865122
31
0
0
LINE
5
280
100
AcDbEntity
8
0
100
AcDbLine
10
-88.183685204729272
20
16.138170672865122
30
0
11
-88.183685204729272
21
12.121799601526471
31
0
0
LINE
5
281
100
AcDbEntity
8
0
100
AcDbLine
10
-88.183685204729272
20
12.121799601526471
30
0
11
-88.674817940935327
21
12.121799601526471
31
0
0
LINE
5
282
100
AcDbEntity
8
0
100
AcDbLine
10
-88.674817940935327
20
12.121799601526471
30
0
11
-88.674817940935327
21
15.25140406033537
31
0
0
SPLINE
5
283
100
AcDbEntity
8
0
100
AcDbSpline
70
0
71
3
72
9
73
5
74
0
42
0.000000001
43
0.0000000001
44
0.0000000001
40
0
40
0
40
0
40
0
40
0.044151847406605264
40
0.08619961105416947
40
0.08619961105416947
40
0.08619961105416947
40
0.08619961105416947
10
-89.657083413347436
20
15.134077979536267
30
0
10
-89.525390260203324
20
15.200890300069307
30
0
10
-89.268279873066518
20
15.331330958430369
30
0
10
-89.045451259450203
20
15.514186119642648
30
0
10
-88.936756512865259
20
15.603382004709454
30
0
0
SPLINE
5
284
100
AcDbEntity
8
0
100
AcDbSpline
70
0
71
3
72
9
73
5
74
0
42
0.000000001
43
0.0000000001
44
0.0000000001
40
0
40
0
40
0
40
0
40
0.037819761277270339
40
0.069339132412297846
40
0.069339132412297846
40
0.069339132412297846
40
0.069339132412297846
10
-88.936756512865259
20
15.603382004709454
30
0
10
-88.843952183588016
20
15.689837430349357
30
0
10
-88.67380378870493
20
15.848345681161861
30
0
10
-88.554448260081642
20
16.047597234271372
30
0
10
-88.50019302104397
20
16.138170672865122
30
0
0
LINE
5
285
100
AcDbEntity
8
0
100
AcDbLine
10
-83.38150348399563
20
15.597925199480267
30
0
11
-85.340574643358423
21
15.597925199480267
31
0
0
SPLINE
5
286
100
AcDbEntity
8
0
100
AcDbSpline
70
0
71
3
72
9
73
5
74
0
42
0.000000001
43
0.0000000001
44
0.0000000001
40
0
40
0
40
0
40
0
40
0.060722564387846269
40
0.13217874523229386
40
0.13217874523229386
40
0.13217874523229386
40
0.13217874523229386
10
-82.751215359911157
20
15.687966062040539
30
0
10
-82.882573499186165
20
15.533421471952558
30
0
10
-83.168509282703482
20
15.197014236747632
30
0
10
-83.38911687847903
20
14.814346183502568
30
0
10
-83.508377930864526
20
14.607474817247601
30
0
0
SPLINE
5
287
100
AcDbEntity
8
0
100
AcDbSpline
70
0
71
3
72
9
73
5
74
0
42
0.000000001
43
0.0000000001
44
0.0000000001
40
0
40
0
40
0
40
0
40
0.07600937745982049
40
0.15049292356856125
40
0.15049292356856125
40
0.15049292356856125
40
0.15049292356856125
10
-83.508377930864526
20
14.607474817247601
30
0
10
-83.625974401046506
20
14.382463362322081
30
0
10
-83.858806680305548
20
13.936957388982709
30
0
10
-84.012246177803931
20
13.458294934619806
30
0
10
-84.088188073381616
20
13.221390260668011
30
0
0
SPLINE
5
288
100
AcDbEntity
8
0
100
AcDbSpline
70
0
71
3
72
9
73
5
74
0
42
0.000000001
43
0.0000000001
44
0.0000000001
40
0
40
0
40
0
40
0
40
0.053960158043255574
40
0.11172324937815203
40
0.11172324937815203
40
0.11172324937815203
40
0.11172324937815203
10
-84.088188073381616
20
13.221390260668011
30
0
10
-84.133073703101473
20
13.046886634476305
30
0
10
-84.226008353119823
20
12.685580944252433
30
0
10
-84.259262344509835
20
12.313943423003661
30
0
10
-84.276455304369165
20
12.121799601526471
30
0
0
LINE
5
289
100
AcDbEntity
8
0
100
AcDbLine
10
-84.276455304369165
20
12.121799601526471
30
0
11
-84.781230351671411
21
12.121799601526471
31
0
0
SPLINE
5
290
100
AcDbEntity
8
0
100
AcDbSpline
70
0
71
3
72
9
73
5
74
0
42
0.000000001
43
0.0000000001
44
0.0000000001
40
0
40
0
40
0
40
0
40
0.01753144292658395
40
0.033776408230392296
40
0.033776408230392296
40
0.033776408230392296
40
0.033776408230392296
10
-65.910831353410913
20
12.859862460108014
30
0
10
-65.950283666739082
20
12.816610399707706
30
0
10
-66.026293236868923
20
12.733280165282386
30
0
10
-66.088351165357125
20
12.639119474191956
30
0
10
-66.118198296770288
20
12.593832327337475
30
0
0
LINE
5
291
100
AcDbEntity
8
0
100
AcDbLine
10
-66.118198296770274
20
12.593832327337475
30
0
11
-64.156399628862573
21
12.593832327337475
31
0
0
LINE
5
292
100
AcDbEntity
8
0
100
AcDbLine
10
-64.156399628862573
20
12.593832327337475
30
0
11
-64.156399628862573
21
12.121799601526471
31
0
0
LINE
5
293
100
AcDbEntity
8
0
100
AcDbLine
10
-64.156399628862573
20
12.121799601526471
30
0
11
-66.800328156694604
21
12.121799601526471
31
0
0
SPLINE
5
294
100
AcDbEntity
8
0
100
AcDbSpline
70
0
71
3
72
9
73
5
74
0
42
0.000000001
43
0.0000000001
44
0.0000000001
40
0
40
0
40
0
40
0
40
0.017432888866921188
40
0.034758724634964322
40
0.034758724634964322
40
0.034758724634964322
40
0.034758724634964322
10
-66.800328156694604
20
12.121799601526471
30
0
10
-66.79933730369855
20
12.180264405718349
30
0
10
-66.797361682405608
20
12.296834989358024
30
0
10
-66.76110109150278
20
12.407634504892231
30
0
10
-66.743026635393335
20
12.462863637418957
30
0
0
SPLINE
5
295
100
AcDbEntity
8
0
100
AcDbSpline
70
0
71
3
72
9
73
5
74
0
42
0.000000001
43
0.0000000001
44
0.0000000001
40
0
40
0
40
0
40
0
40
0.029850690241207237
40
0.062494206853692155
40
0.062494206853692155
40
0.062494206853692155
40
0.062494206853692155
10
-66.743026635393335
20
12.462863637418957
30
0
10
-66.702783417681843
20
12.554346235245548
30
0
10
-66.61853183248239
20
12.745870529856195
30
0
10
-66.487921352944511
20
12.909468877857126
30
0
10
-66.419697663530542
20
12.99492360493681
30
0
0
LINE
5
296
100
AcDbEntity
8
0
100
AcDbLine
10
-66.202779671892344
20
14.929439438791483
30
0
11
-66.707554719194604
21
14.981281174631329
31
0
0
SPLINE
5
297
100
AcDbEntity
8
0
100
AcDbSpline
70
0
71
3
72
9
73
5
74
0
42
0.000000001
43
0.0000000001
44
0.0000000001
40
0
40
0
40
0
40
0
40
0.023932582133968098
40
0.048462052319626428
40
0.048462052319626428
40
0.048462052319626428
40
0.048462052319626428
10
-64.161854645952417
20
15.027665807218762
30
0
10
-64.166145458478269
20
14.947506173637503
30
0
10
-64.174834098089221
20
14.785187693550752
30
0
10
-64.231434391866856
20
14.632777012939453
30
0
10
-64.260083100542261
20
14.555633081407757
30
0
0
SPLINE
5
298
100
AcDbEntity
8
0
100
AcDbSpline
70
0
71
3
72
9
73
5
74
0
42
0.000000001
43
0.0000000001
44
0.0000000001
40
0
40
0
40
0
40
0
40
0.027154502151041954
40
0.058913621843182246
40
0.058913621843182246
40
0.058913621843182246
40
0.058913621843182246
10
-64.260083100542261
20
14.555633081407757
30
0
10
-64.300822897522778
20
14.474433800434991
30
0
10
-64.389210781783305
20
14.298266190859277
30
0
10
-64.517163114619933
20
14.148152527090849
30
0
10
-64.586139580949975
20
14.067229343862744
30
0
0
SPLINE
5
299
100
AcDbEntity
8
0
100
AcDbSpline
70
0
71
3
72
9
73
5
74
0
42
0.000000001
43
0.0000000001
44
0.0000000001
40
0
40
0
40
0
40
0
40
0.042951893668408625
40
0.10343827103375992
40
0.10343827103375992
40
0.10343827103375992
40
0.10343827103375992
10
-64.586139580949975
20
14.067229343862744
30
0
10
-64.685880929032294
20
13.964409304559718
30
0
10
-64.92608157480268
20
13.716794445591328
30
0
10
-65.18935088140428
20
13.493718592062379
30
0
10
-65.343299767717554
20
13.363273157091351
30
0
0
SPLINE
5
300
100
AcDbEntity
8
0
100
AcDbSpline
70
0
71
3
72
9
73
5
74
0
42
0.000000001
43
0.0000000001
44
0.0000000001
40
0
40
0
40
0
40
0
40
0.047817933233738598
40
0.075880116338306852
40
0.075880116338306852
40
0.075880116338306852
40
0.075880116338306852
10
-65.343299767717554
20
13.363273157091351
30
0
10
-65.465753846096177
20
13.261136312183105
30
0
10
-65.660070686768748
20
13.099059970736437
30
0
10
-65.84313137197455
20
12.924440638360659
30
0
10
-65.910831353410913
20
12.859862460108014
30
0
0
LWPOLYLINE
5
301
100
AcDbEntity
8
0
100
AcDbPolyline
90
4
70
1
43
0.0
10
-59.687100312456316
20
12.681144787283154
10
-59.687100312456316
20
12.121799601526471
10
-60.246444604143328
20
12.121799601526471
10
-60.246444604143328
20
12.681144787283154
0
SPLINE
5
302
100
AcDbEntity
8
0
100
AcDbSpline
70
0
71
3
72
9
73
5
74
0
42
0.000000001
43
0.0000000001
44
0.0000000001
40
0
40
0
40
0
40
0
40
0.034326107679789004
40
0.063491640583508674
40
0.063491640583508674
40
0.063491640583508674
40
0.063491640583508674
10
-55.34603204463405
20
13.213204754801007
30
0
10
-55.323861804399584
20
13.098616081331468
30
0
10
-55.282854389933988
20
12.886665954660018
30
0
10
-55.143855261787166
20
12.7224655463713
30
0
10
-55.080004594072527
20
12.647038413496228
30
0
0
SPLINE
5
303
100
AcDbEntity
8
0
100
AcDbSpline
70
0
71
3
72
9
73
5
74
0
42
0.000000001
43
0.0000000001
44
0.0000000001
40
0
40
0
40
0
40
0
40
0.036148619577187548
40
0.07645512880875846
40
0.07645512880875846
40
0.07645512880875846
40
0.07645512880875846
10
-53.976317307695574
20
12.724801017255993
30
0
10
-53.904751423527117
20
12.824842397025176
30
0
10
-53.753387997857985
20
13.03643212481898
30
0
10
-53.738568450375482
20
13.296898563182634
30
0
10
-53.730755707964128
20
13.434214307279797
30
0
0
SPLINE
5
304
100
AcDbEntity
8
0
100
AcDbSpline
70
0
71
3
72
9
73
5
74
0
42
0.000000001
43
0.0000000001
44
0.0000000001
40
0
40
0
40
0
40
0
40
0.022738914007402935
40
0.044550876005110929
40
0.044550876005110929
40
0.044550876005110929
40
0.044550876005110929
10
-54.584775826677507
20
14.340080632181378
30
0
10
-54.66127922733898
20
14.335975648960101
30
0
10
-54.811167366927755
20
14.327933022191095
30
0
10
-54.946764241698496
20
14.263735367587707
30
0
10
-55.013152024492449
20
14.232304407568188
30
0
0
SPLINE
5
305
100
AcDbEntity
8
0
100
AcDbSpline
70
0
71
3
72
9
73
5
74
0
42
0.000000001
43
0.0000000001
44
0.0000000001
40
0
40
0
40
0
40
0
40
0.021073808563787304
40
0.041344879882989446
40
0.041344879882989446
40
0.041344879882989446
40
0.041344879882989446
10
-55.013152024492449
20
14.232304407568188
30
0
10
-55.073038573166983
20
14.194283540575363
30
0
10
-55.190530489925195
20
14.119690086140807
30
0
10
-55.272904884030766
20
14.007592322611979
30
0
10
-55.313292405351824
20
13.952631665678235
30
0
0
LINE
5
306
100
AcDbEntity
8
0
100
AcDbLine
10
-54.994054696306414
20
15.597925199480267
30
0
11
-55.209608933672136
21
14.52289105793974
31
0
0
LINE
5
307
100
AcDbEntity
8
0
100
AcDbLine
10
-35.692559144243418
20
16.138170672865122
30
0
11
-35.376053712114519
21
16.138170672865122
31
0
0
LINE
5
308
100
AcDbEntity
8
0
100
AcDbLine
10
-35.376053712114519
20
12.121799601526471
30
0
11
-35.867186448320574
21
12.121799601526471
31
0
0
LINE
5
309
100
AcDbEntity
8
0
100
AcDbLine
10
-35.867186448320574
20
12.121799601526471
30
0
11
-35.867186448320574
21
15.25140406033537
31
0
0
LINE
5
310
100
AcDbEntity
8
0
100
AcDbLine
10
-36.849451920732683
20
14.659316553087443
30
0
11
-36.849451920732683
21
15.134077979536267
31
0
0
SPLINE
5
311
100
AcDbEntity
8
0
100
AcDbSpline
70
0
71
3
72
9
73
5
74
0
42
0.000000001
43
0.0000000001
44
0.0000000001
40
0
40
0
40
0
40
0
40
0.06664613373508628
40
0.12639683810230862
40
0.12639683810230862
40
0.12639683810230862
40
0.12639683810230862
10
-31.279192826494402
20
14.551540328474255
30
0
10
-31.170703803874247
20
14.745955932288465
30
0
10
-30.964950391643242
20
15.114672258693016
30
0
10
-30.699397719563244
20
15.44280790264947
30
0
10
-30.573864838823503
20
15.597925199480267
30
0
0
LINE
5
312
100
AcDbEntity
8
0
100
AcDbLine
10
-30.5738648388235
20
15.597925199480267
30
0
11
-32.532940766557878
21
15.597925199480267
31
0
0
LINE
5
313
100
AcDbEntity
8
0
100
AcDbLine
10
-32.532940766557878
20
16.06995792529127
30
0
11
-29.943581483110613
21
16.06995792529127
31
0
0
LINE
5
314
100
AcDbEntity
8
0
100
AcDbLine
10
-29.943581483110613
20
16.06995792529127
30
0
11
-29.943581483110613
21
15.687966062040539
31
0
0
LINE
5
315
100
AcDbEntity
8
0
100
AcDbLine
10
-31.468821427568624
20
12.121799601526471
30
0
11
-31.973591706499285
21
12.121799601526471
31
0
0
SPLINE
5
316
100
AcDbEntity
8
0
100
AcDbSpline
70
0
71
3
72
9
73
5
74
0
42
0.000000001
43
0.0000000001
44
0.0000000001
40
0
40
0
40
0
40
0
40
0.06911332439271077
40
0.13883471298871072
40
0.13883471298871072
40
0.13883471298871072
40
0.13883471298871072
10
-31.788054368242449
20
13.262318088026257
30
0
10
-31.722272978717765
20
13.483606059118106
30
0
10
-31.590131450077603
20
13.928128909441755
30
0
10
-31.383141224261824
20
14.343130651311709
30
0
10
-31.279192826494402
20
14.551540328474255
30
0
0
SPLINE
5
317
100
AcDbEntity
8
0
100
AcDbSpline
70
0
71
3
72
9
73
5
74
0
42
0.000000001
43
0.0000000001
44
0.0000000001
40
0
40
0
40
0
40
0
40
0.036029678824319164
40
0.069048296515125646
40
0.069048296515125646
40
0.069048296515125646
40
0.069048296515125646
10
-27.580681702837175
20
14.290967298956128
30
0
10
-27.466789429562155
20
14.246906142101881
30
0
10
-27.248523052717104
20
14.162466093715494
30
0
10
-27.093912547176604
20
13.987288061121003
30
0
10
-27.019978425249285
20
13.903518630476208
30
0
0
SPLINE
5
318
100
AcDbEntity
8
0
100
AcDbSpline
70
0
71
3
72
9
73
5
74
0
42
0.000000001
43
0.0000000001
44
0.0000000001
40
0
40
0
40
0
40
0
40
0.01753175462577913
40
0.033776447631176279
40
0.033776447631176279
40
0.033776447631176279
40
0.033776447631176279
10
-39.50700845454616
20
12.859862460108014
30
0
10
-39.546462936677038
20
12.816610845916458
30
0
10
-39.62247542247519
20
12.733282855484923
30
0
10
-39.684530279040388
20
12.639119799601541
30
0
10
-39.714375397905535
20
12.593832327337475
30
0
0
LINE
5
319
100
AcDbEntity
8
0
100
AcDbLine
10
-37.752581498369402
20
12.593832327337475
30
0
11
-37.752581498369402
21
12.121799601526471
31
0
0
LINE
5
320
100
AcDbEntity
8
0
100
AcDbLine
10
-37.752581498369402
20
12.121799601526471
30
0
11
-40.396510026201433
21
12.121799601526471
31
0
0
LINE
5
321
100
AcDbEntity
8
0
100
AcDbLine
10
-39.798961541399187
20
14.929439438791483
30
0
11
-40.303736588701433
21
14.981281174631329
31
0
0
SPLINE
5
322
100
AcDbEntity
8
0
100
AcDbSpline
70
0
71
3
72
9
73
5
74
0
42
0.000000001
43
0.0000000001
44
0.0000000001
40
0
40
0
40
0
40
0
40
0.045427620836303757
40
0.097187065144749535
40
0.097187065144749535
40
0.097187065144749535
40
0.097187065144749535
10
-39.913559815630144
20
15.842126919241162
30
0
10
-39.785605154354315
20
15.928374702579324
30
0
10
-39.51186116838155
20
16.112891716315985
30
0
10
-39.181113676362891
20
16.129386145127725
30
0
10
-39.004965684160418
20
16.138170672865122
30
0
0
SPLINE
5
323
100
AcDbEntity
8
0
100
AcDbSpline
70
0
71
3
72
9
73
5
74
0
42
0.000000001
43
0.0000000001
44
0.0000000001
40
0
40
0
40
0
40
0
40
0.052182898977226055
40
0.09842679298597834
40
0.09842679298597834
40
0.09842679298597834
40
0.09842679298597834
10
-39.004965684160418
20
16.138170672865122
30
0
10
-38.826950210754028
20
16.128388818649107
30
0
10
-38.491179441159233
20
16.109938396023896
30
0
10
-38.220715983500625
20
15.911953883559541
30
0
10
-38.093644044145769
20
15.818934751959057
30
0
0
SPLINE
5
324
100
AcDbEntity
8
0
100
AcDbSpline
70
0
71
3
72
9
73
5
74
0
42
0.000000001
43
0.0000000001
44
0.0000000001
40
0
40
0
40
0
40
0
40
0.043716651128242516
40
0.087903925044253678
40
0.087903925044253678
40
0.087903925044253678
40
0.087903925044253678
10
-38.093644044145769
20
15.818934751959057
30
0
10
-37.995760500178051
20
15.705739083587421
30
0
10
-37.798939666698317
20
15.478129161713818
30
0
10
-37.771719476641046
20
15.178355238391127
30
0
10
-37.758036515459246
20
15.027665807218762
30
0
0
SPLINE
5
325
100
AcDbEntity
8
0
100
AcDbSpline
70
0
71
3
72
9
73
5
74
0
42
0.000000001
43
0.0000000001
44
0.0000000001
40
0
40
0
40
0
40
0
40
0.023932582133968098
40
0.048462052319626428
40
0.048462052319626428
40
0.048462052319626428
40
0.048462052319626428
10
-37.758036515459246
20
15.027665807218762
30
0
10
-37.762327327985084
20
14.947506173637503
30
0
10
-37.771015967596057
20
14.785187693550752
30
0
10
-37.827616261373684
20
14.632777012939453
30
0
10
-37.856264970049089
20
14.555633081407757
30
0
0
SPLINE
5
326
100
AcDbEntity
8
0
100
AcDbSpline
70
0
71
3
72
9
73
5
74
0
42
0.000000001
43
0.0000000001
44
0.0000000001
40
0
40
0
40
0
40
0
40
0.027154502151041954
40
0.058913328420708955
40
0.058913328420708955
40
0.058913328420708955
40
0.058913328420708955
10
-37.856264970049089
20
14.555633081407757
30
0
10
-37.897004947679882
20
14.474433943164389
30
0
10
-37.985392783651406
20
14.298267520660978
30
0
10
-38.113342123136427
20
14.148152768961126
30
0
10
-38.182316682085222
20
14.067229343862744
30
0
0
SPLINE
5
327
100
AcDbEntity
8
0
100
AcDbSpline
70
0
71
3
72
9
73
5
74
0
42
0.000000001
43
0.0000000001
44
0.0000000001
40
0
40
0
40
0
40
0
40
0.042951893668408625
40
0.10343898678262411
40
0.10343898678262411
40
0.10343898678262411
40
0.10343898678262411
10
-38.182316682085222
20
14.067229343862744
30
0
10
-38.2820578346616
20
13.964409081866949
30
0
10
-38.522259671690726
20
13.716791973208672
30
0
10
-38.785533890417483
20
13.493718084229071
30
0
10
-38.939486405595964
20
13.363273157091351
30
0
0
SPLINE
5
328
100
AcDbEntity
8
0
100
AcDbSpline
70
0
71
3
72
9
73
5
74
0
42
0.000000001
43
0.0000000001
44
0.0000000001
40
0
40
0
40
0
40
0
40
0.047817933233738598
40
0.075879420892613514
40
0.075879420892613514
40
0.075879420892613514
40
0.075879420892613514
10
-38.939486405595964
20
13.363273157091351
30
0
10
-39.061941296815007
20
13.261137179091005
30
0
10
-39.256257646410276
20
13.099063698727809
30
0
10
-39.439311906516927
20
12.924440908565504
30
0
10
-39.50700845454616
20
12.859862460108014
30
0
0
LINE
5
329
100
AcDbEntity
8
0
100
AcDbLine
10
-58.936758897051043
20
16.06995792529127
30
0
11
-56.347399613603777
21
16.06995792529127
31
0
0
LINE
5
330
100
AcDbEntity
8
0
100
AcDbLine
10
-56.347399613603777
20
16.06995792529127
30
0
11
-56.347399613603777
21
15.687966062040539
31
0
0
LINE
5
331
100
AcDbEntity
8
0
100
AcDbLine
10
-57.872639558061785
20
12.121799601526471
30
0
11
-58.377414605364031
21
12.121799601526471
31
0
0
LINE
5
332
100
AcDbEntity
8
0
100
AcDbLine
10
-62.096377274736597
20
16.138170672865122
30
0
11
-61.779867074236101
21
16.138170672865122
31
0
0
LINE
5
333
100
AcDbEntity
8
0
100
AcDbLine
10
-61.779867074236101
20
16.138170672865122
30
0
11
-61.779867074236101
21
12.121799601526471
31
0
0
LINE
5
334
100
AcDbEntity
8
0
100
AcDbLine
10
-61.779867074236101
20
12.121799601526471
30
0
11
-62.270999810442156
21
12.121799601526471
31
0
0
LINE
5
335
100
AcDbEntity
8
0
100
AcDbLine
10
-62.270999810442156
20
12.121799601526471
30
0
11
-62.270999810442156
21
15.25140406033537
31
0
0
SPLINE
5
336
100
AcDbEntity
8
0
100
AcDbSpline
70
0
71
3
72
9
73
5
74
0
42
0.000000001
43
0.0000000001
44
0.0000000001
40
0
40
0
40
0
40
0
40
0.026577374040096028
40
0.057615566682605257
40
0.057615566682605257
40
0.057615566682605257
40
0.057615566682605257
10
-62.270999810442156
20
15.25140406033537
30
0
10
-62.33795536062425
20
15.193145583426608
30
0
10
-62.483104462279954
20
15.066850368703744
30
0
10
-62.647597381905044
20
14.966908372098633
30
0
10
-62.736211678728289
20
14.913068427057476
30
0
0
SPLINE
5
337
100
AcDbEntity
8
0
100
AcDbSpline
70
0
71
3
72
9
73
5
74
0
42
0.000000001
43
0.0000000001
44
0.0000000001
40
0
40
0
40
0
40
0
40
0.031071369994927673
40
0.057651157764888737
40
0.057651157764888737
40
0.057651157764888737
40
0.057651157764888737
10
-62.736211678728289
20
14.913068427057476
30
0
10
-62.826207383587864
20
14.861533796383659
30
0
10
-62.993189289434582
20
14.765914223644621
30
0
10
-63.171196101922462
20
14.692954350243712
30
0
10
-63.253265282854265
20
14.659316553087445
30
0
0
LINE
5
338
100
AcDbEntity
8
0
100
AcDbLine
10
-63.253265282854265
20
14.659316553087445
30
0
11
-63.253265282854265
21
15.134077979536267
31
0
0
LINE
5
339
100
AcDbEntity
8
0
100
AcDbLine
10
-86.090918442949487
20
12.681144787283154
30
0
11
-86.090918442949487
21
12.121799601526471
31
0
0
LINE
5
340
100
AcDbEntity
8
0
100
AcDbLine
10
-86.650262734636499
20
12.681144787283154
30
0
11
-86.090918442949487
21
12.681144787283154
31
0
0
LINE
5
341
100
AcDbEntity
8
0
100
AcDbLine
10
-92.522021195635048
20
12.593832327337475
30
0
11
-90.560220143541528
21
12.593832327337475
31
0
0
LINE
5
342
100
AcDbEntity
8
0
100
AcDbLine
10
-90.560220143541528
20
12.593832327337475
30
0
11
-90.560220143541528
21
12.121799601526471
31
0
0
LINE
5
343
100
AcDbEntity
8
0
100
AcDbLine
10
-90.560220143541528
20
12.121799601526471
30
0
11
-93.204148671373559
21
12.121799601526471
31
0
0
SPLINE
5
344
100
AcDbEntity
8
0
100
AcDbSpline
70
0
71
3
72
9
73
5
74
0
42
0.000000001
43
0.0000000001
44
0.0000000001
40
0
40
0
40
0
40
0
40
0.017432888866921188
40
0.034758661742650777
40
0.034758661742650777
40
0.034758661742650777
40
0.034758661742650777
10
-93.204148671373559
20
12.121799601526471
30
0
10
-93.203157637006413
20
12.180264355570783
30
0
10
-93.201181657660356
20
12.296834628301054
30
0
10
-93.164922995875173
20
12.407634451889042
30
0
10
-93.146849534258081
20
12.462863637418957
30
0
0
SPLINE
5
345
100
AcDbEntity
8
0
100
AcDbSpline
70
0
71
3
72
9
73
5
74
0
42
0.000000001
43
0.0000000001
44
0.0000000001
40
0
40
0
40
0
40
0
40
0.029850899994500666
40
0.062494136114425003
40
0.062494136114425003
40
0.062494136114425003
40
0.062494136114425003
10
-93.146849534258081
20
12.462863637418957
30
0
10
-93.106604247452196
20
12.554345952402674
30
0
10
-93.022349017892168
20
12.745868092294883
30
0
10
-92.891741957076619
20
12.909468460284373
30
0
10
-92.823520562395288
20
12.99492360493681
30
0
0
SPLINE
5
346
100
AcDbEntity
8
0
100
AcDbSpline
70
0
71
3
72
9
73
5
74
0
42
0.000000001
43
0.0000000001
44
0.0000000001
40
0
40
0
40
0
40
0
40
0.039197040015143764
40
0.088389203649084508
40
0.088389203649084508
40
0.088389203649084508
40
0.088389203649084508
10
-92.823520562395288
20
12.99492360493681
30
0
10
-92.734653954058857
20
13.090887789305253
30
0
10
-92.534260027915025
20
13.30728672738536
30
0
10
-92.307279886581156
20
13.495760276816144
30
0
10
-92.180956265672876
20
13.600653423280926
30
0
0
SPLINE
5
347
100
AcDbEntity
8
0
100
AcDbSpline
70
0
71
3
72
9
73
5
74
0
42
0.000000001
43
0.0000000001
44
0.0000000001
40
0
40
0
40
0
40
0
40
0.072674843037479592
40
0.12243479806057557
40
0.12243479806057557
40
0.12243479806057557
40
0.12243479806057557
10
-92.180956265672876
20
13.600653423280926
30
0
10
-91.993167335246
20
13.754619073939775
30
0
10
-91.676800641987839
20
14.014003925131814
30
0
10
-91.408634748467136
20
14.322484265704718
30
0
10
-91.299646756395532
20
14.447856856794568
30
0
0
SPLINE
5
348
100
AcDbEntity
8
0
100
AcDbSpline
70
0
71
3
72
9
73
5
74
0
42
0.000000001
43
0.0000000001
44
0.0000000001
40
0
40
0
40
0
40
0
40
0.034913609374550313
40
0.064163808392823971
40
0.064163808392823971
40
0.064163808392823971
40
0.064163808392823971
10
-91.299646756395532
20
14.447856856794568
30
0
10
-91.232961979219766
20
14.545662957560474
30
0
10
-91.110409503492605
20
14.725409824802664
30
0
10
-91.082964073450867
20
14.940518806347963
30
0
10
-91.070452592119409
20
15.038580013723584
30
0
0
LINE
5
349
100
AcDbEntity
8
0
100
AcDbLine
10
-92.606604954942895
20
14.929439438791483
30
0
11
-93.111380002245141
21
14.981281174631329
31
0
0
SPLINE
5
350
100
AcDbEntity
8
0
100
AcDbSpline
70
0
71
3
72
9
73
5
74
0
42
0.000000001
43
0.0000000001
44
0.0000000001
40
0
40
0
40
0
40
0
40
0.023932582133968098
40
0.048461980714501189
40
0.048461980714501189
40
0.048461980714501189
40
0.048461980714501189
10
-90.565677544817163
20
15.027665807218762
30
0
10
-90.569968525778833
20
14.947506227294845
30
0
10
-90.578657493623908
20
14.785188095694586
30
0
10
-90.63525590210358
20
14.632777074246164
30
0
10
-90.663903615221216
20
14.555633081407757
30
0
0
SPLINE
5
351
100
AcDbEntity
8
0
100
AcDbSpline
70
0
71
3
72
9
73
5
74
0
42
0.000000001
43
0.0000000001
44
0.0000000001
40
0
40
0
40
0
40
0
40
0.043446810596962183
40
0.083174657025116366
40
0.083174657025116366
40
0.083174657025116366
40
0.083174657025116366
10
-110.36376740668697
20
16.138170672865122
30
0
10
-110.2160153733977
20
16.129253725788356
30
0
10
-109.93315859922387
20
16.112183105307114
30
0
10
-109.7010827721314
20
15.950656870239886
30
0
10
-109.59023322795315
20
15.873504890413495
30
0
0
SPLINE
5
352
100
AcDbEntity
8
0
100
AcDbSpline
70
0
71
3
72
9
73
5
74
0
42
0.000000001
43
0.0000000001
44
0.0000000001
40
0
40
0
40
0
40
0
40
0.039681198679817835
40
0.082997800635652971
40
0.082997800635652971
40
0.082997800635652971
40
0.082997800635652971
10
-109.59023322795315
20
15.873504890413495
30
0
10
-109.49943015660199
20
15.773718928359644
30
0
10
-109.30950506704214
20
15.565005087540246
30
0
10
-109.25641418607457
20
15.287232937296743
30
0
10
-109.2287060234396
20
15.142263485403271
30
0
0
LINE
5
353
100
AcDbEntity
8
0
100
AcDbLine
10
-109.2287060234396
20
15.142263485403269
30
0
11
-109.71711005900784
21
15.104064358682843
31
0
0
SPLINE
5
354
100
AcDbEntity
8
0
100
AcDbSpline
70
0
71
3
72
9
73
5
74
0
42
0.000000001
43
0.0000000001
44
0.0000000001
40
0
40
0
40
0
40
0
40
0.05572883100237716
40
0.1136942047759025
40
0.1136942047759025
40
0.1136942047759025
40
0.1136942047759025
10
-111.3705882046072
20
15.679780556173535
30
0
10
-111.23318245183756
20
15.813463176765179
30
0
10
-110.95285649646071
20
16.086193448819106
30
0
10
-110.56268883922917
20
16.120619195429391
30
0
10
-110.36376740668697
20
16.138170672865122
30
0
0
ENDSEC
0
SECTION
2
OBJECTS
0
DICTIONARY
5
C
100
AcDbDictionary
3
ACAD_GROUP
350
D
3
ACAD_MLINESTYLE
350
17
0
DICTIONARY
5
D
100
AcDbDictionary
0
DICTIONARY
5
1A
330
C
100
AcDbDictionary
0
DICTIONARY
5
17
100
AcDbDictionary
0
ENDSEC
0
EOF
