%TF.GenerationSoftware,KiCad,Pcbnew,(6.0.4)*%
%TF.CreationDate,2022-10-09T11:32:06+02:00*%
%TF.ProjectId,V8_controller1.0,56385f63-6f6e-4747-926f-6c6c6572312e,rev?*%
%TF.SameCoordinates,Original*%
%TF.FileFunction,Copper,L1,Top*%
%TF.FilePolarity,Positive*%
%FSLAX46Y46*%
G04 Gerber Fmt 4.6, Leading zero omitted, Abs format (unit mm)*
G04 Created by KiCad (PCBNEW (6.0.4)) date 2022-10-09 11:32:06*
%MOMM*%
%LPD*%
G01*
G04 APERTURE LIST*
G04 Aperture macros list*
%AMRoundRect*
0 Rectangle with rounded corners*
0 $1 Rounding radius*
0 $2 $3 $4 $5 $6 $7 $8 $9 X,Y pos of 4 corners*
0 Add a 4 corners polygon primitive as box body*
4,1,4,$2,$3,$4,$5,$6,$7,$8,$9,$2,$3,0*
0 Add four circle primitives for the rounded corners*
1,1,$1+$1,$2,$3*
1,1,$1+$1,$4,$5*
1,1,$1+$1,$6,$7*
1,1,$1+$1,$8,$9*
0 Add four rect primitives between the rounded corners*
20,1,$1+$1,$2,$3,$4,$5,0*
20,1,$1+$1,$4,$5,$6,$7,0*
20,1,$1+$1,$6,$7,$8,$9,0*
20,1,$1+$1,$8,$9,$2,$3,0*%
%AMHorizOval*
0 Thick line with rounded ends*
0 $1 width*
0 $2 $3 position (X,Y) of the first rounded end (center of the circle)*
0 $4 $5 position (X,Y) of the second rounded end (center of the circle)*
0 Add line between two ends*
20,1,$1,$2,$3,$4,$5,0*
0 Add two circle primitives to create the rounded ends*
1,1,$1,$2,$3*
1,1,$1,$4,$5*%
%AMRotRect*
0 Rectangle, with rotation*
0 The origin of the aperture is its center*
0 $1 length*
0 $2 width*
0 $3 Rotation angle, in degrees counterclockwise*
0 Add horizontal line*
21,1,$1,$2,0,0,$3*%
%AMOutline4P*
0 Free polygon, 4 corners , with rotation*
0 The origin of the aperture is its center*
0 number of corners: always 4*
0 $1 to $8 corner X, Y*
0 $9 Rotation angle, in degrees counterclockwise*
0 create outline with 4 corners*
4,1,4,$1,$2,$3,$4,$5,$6,$7,$8,$1,$2,$9*%
G04 Aperture macros list end*
%TA.AperFunction,ComponentPad*%
%ADD10C,2.600000*%
%TD*%
%TA.AperFunction,SMDPad,CuDef*%
%ADD11RoundRect,0.250000X-0.350000X-0.450000X0.350000X-0.450000X0.350000X0.450000X-0.350000X0.450000X0*%
%TD*%
%TA.AperFunction,SMDPad,CuDef*%
%ADD12Outline4P,-1.800000X-1.150000X1.800000X-0.550000X1.800000X0.550000X-1.800000X1.150000X291.000000*%
%TD*%
%TA.AperFunction,SMDPad,CuDef*%
%ADD13Outline4P,-1.800000X-1.150000X1.800000X-0.550000X1.800000X0.550000X-1.800000X1.150000X111.000000*%
%TD*%
%TA.AperFunction,ComponentPad*%
%ADD14RotRect,1.905000X2.000000X45.000000*%
%TD*%
%TA.AperFunction,ComponentPad*%
%ADD15HorizOval,1.905000X-0.033588X0.033588X0.033588X-0.033588X0*%
%TD*%
%TA.AperFunction,SMDPad,CuDef*%
%ADD16Outline4P,-1.800000X-1.150000X1.800000X-0.550000X1.800000X0.550000X-1.800000X1.150000X249.000000*%
%TD*%
%TA.AperFunction,SMDPad,CuDef*%
%ADD17Outline4P,-1.800000X-1.150000X1.800000X-0.550000X1.800000X0.550000X-1.800000X1.150000X69.000000*%
%TD*%
%TA.AperFunction,SMDPad,CuDef*%
%ADD18RoundRect,0.250000X-0.565685X-0.070711X-0.070711X-0.565685X0.565685X0.070711X0.070711X0.565685X0*%
%TD*%
%TA.AperFunction,SMDPad,CuDef*%
%ADD19RoundRect,0.250000X-0.070711X0.565685X-0.565685X0.070711X0.070711X-0.565685X0.565685X-0.070711X0*%
%TD*%
%TA.AperFunction,ComponentPad*%
%ADD20RoundRect,0.250000X0.909982X-0.307300X0.499557X0.820331X-0.909982X0.307300X-0.499557X-0.820331X0*%
%TD*%
%TA.AperFunction,ComponentPad*%
%ADD21HorizOval,1.700000X0.140954X0.051303X-0.140954X-0.051303X0*%
%TD*%
%TA.AperFunction,ComponentPad*%
%ADD22RoundRect,0.250000X-0.499557X0.820331X-0.909982X-0.307300X0.499557X-0.820331X0.909982X0.307300X0*%
%TD*%
%TA.AperFunction,ComponentPad*%
%ADD23HorizOval,1.700000X-0.140954X0.051303X0.140954X-0.051303X0*%
%TD*%
%TA.AperFunction,ComponentPad*%
%ADD24R,1.905000X2.000000*%
%TD*%
%TA.AperFunction,ComponentPad*%
%ADD25O,1.905000X2.000000*%
%TD*%
%TA.AperFunction,SMDPad,CuDef*%
%ADD26RoundRect,0.250000X0.450000X-0.350000X0.450000X0.350000X-0.450000X0.350000X-0.450000X-0.350000X0*%
%TD*%
%TA.AperFunction,ComponentPad*%
%ADD27C,1.400000*%
%TD*%
%TA.AperFunction,ComponentPad*%
%ADD28HorizOval,1.400000X0.000000X0.000000X0.000000X0.000000X0*%
%TD*%
%TA.AperFunction,ComponentPad*%
%ADD29RotRect,1.905000X2.000000X315.000000*%
%TD*%
%TA.AperFunction,ComponentPad*%
%ADD30HorizOval,1.905000X-0.033588X-0.033588X0.033588X0.033588X0*%
%TD*%
%TA.AperFunction,SMDPad,CuDef*%
%ADD31R,4.600000X1.100000*%
%TD*%
%TA.AperFunction,SMDPad,CuDef*%
%ADD32R,9.400000X10.800000*%
%TD*%
%TA.AperFunction,ViaPad*%
%ADD33C,2.000000*%
%TD*%
%TA.AperFunction,ViaPad*%
%ADD34C,1.500000*%
%TD*%
%TA.AperFunction,Conductor*%
%ADD35C,1.250000*%
%TD*%
%TA.AperFunction,Conductor*%
%ADD36C,1.500000*%
%TD*%
%TA.AperFunction,Conductor*%
%ADD37C,2.000000*%
%TD*%
%TA.AperFunction,Conductor*%
%ADD38C,2.500000*%
%TD*%
%TA.AperFunction,Conductor*%
%ADD39C,2.250000*%
%TD*%
G04 APERTURE END LIST*
D10*
%TO.P,J1,1,Pin_1*%
%TO.N,VCC*%
X122920000Y-123259485D03*
X122920000Y-118179485D03*
X128000000Y-123259485D03*
X128000000Y-118179485D03*
%TD*%
%TO.P,J2,1,Pin_1*%
%TO.N,GNDREF*%
X71954299Y-123259485D03*
X77034299Y-118179485D03*
X71954299Y-118179485D03*
X77034299Y-123259485D03*
%TD*%
D11*
%TO.P,R1_3,1*%
%TO.N,Net-(R1_3-Pad1)*%
X113416198Y-111500429D03*
%TO.P,R1_3,2*%
%TO.N,Vdrive*%
X115416198Y-111500429D03*
%TD*%
D12*
%TO.P,D2,1,A*%
%TO.N,Net-(D2-Pad1)*%
X81620733Y-100722617D03*
D13*
%TO.P,D2,2,K*%
%TO.N,Vdrive*%
X83699267Y-106137383D03*
%TD*%
D14*
%TO.P,Q2,1,G*%
%TO.N,Net-(C2-Pad1)*%
X87000000Y-90500000D03*
D15*
%TO.P,Q2,2,D*%
%TO.N,Net-(D2-Pad1)*%
X88796051Y-88703949D03*
%TO.P,Q2,3,S*%
%TO.N,GNDREF*%
X90592102Y-86907898D03*
%TD*%
D16*
%TO.P,D1,1,A*%
%TO.N,Net-(D1-Pad1)*%
X118539267Y-100662617D03*
D17*
%TO.P,D1,2,K*%
%TO.N,Vdrive*%
X116460733Y-106077383D03*
%TD*%
D18*
%TO.P,R2,1*%
%TO.N,Net-(C2-Pad1)*%
X78017931Y-91644101D03*
%TO.P,R2,2*%
%TO.N,GNDREF*%
X79432145Y-93058315D03*
%TD*%
D19*
%TO.P,C1,1*%
%TO.N,Net-(C1-Pad1)*%
X124617107Y-94232893D03*
%TO.P,C1,2*%
%TO.N,GNDREF*%
X123202893Y-95647107D03*
%TD*%
%TO.P,R1_SW1,1*%
%TO.N,Net-(R1_SW1-Pad1)*%
X125647107Y-88052893D03*
%TO.P,R1_SW1,2*%
%TO.N,Net-(C1-Pad1)*%
X124232893Y-89467107D03*
%TD*%
D20*
%TO.P,L2_2,1,1*%
%TO.N,Vdrive*%
X75980726Y-107745364D03*
D21*
%TO.P,L2_2,2,2*%
%TO.N,Net-(D2-Pad1)*%
X75125676Y-105396132D03*
%TD*%
D22*
%TO.P,L1_1,1,1*%
%TO.N,Vdrive*%
X128218033Y-96410198D03*
D23*
%TO.P,L1_1,2,2*%
%TO.N,Net-(D1-Pad1)*%
X127362983Y-98759430D03*
%TD*%
D24*
%TO.P,U1_2,1,ADJ*%
%TO.N,Net-(R1_3-Pad1)*%
X97460000Y-84730000D03*
D25*
%TO.P,U1_2,2,VO*%
%TO.N,Vdrive*%
X100000000Y-84730000D03*
%TO.P,U1_2,3,VI*%
%TO.N,VCC*%
X102540000Y-84730000D03*
%TD*%
D26*
%TO.P,R3_2,1*%
%TO.N,GNDREF*%
X110500000Y-79000000D03*
%TO.P,R3_2,2*%
%TO.N,Net-(R3_1-Pad1)*%
X110500000Y-77000000D03*
%TD*%
D27*
%TO.P,R1_VAR1,1*%
%TO.N,GNDREF*%
X114809528Y-96649578D03*
D28*
%TO.P,R1_VAR1,2*%
%TO.N,Net-(R1_3-Pad1)*%
X114159690Y-98434994D03*
%TD*%
D20*
%TO.P,SW2,1,A*%
%TO.N,VCOM*%
X69482343Y-89891204D03*
D21*
%TO.P,SW2,2,B*%
%TO.N,Net-(R2_SW1-Pad1)*%
X68627293Y-87541972D03*
%TD*%
D18*
%TO.P,R2_SW1,1*%
%TO.N,Net-(R2_SW1-Pad1)*%
X74310824Y-87936994D03*
%TO.P,R2_SW1,2*%
%TO.N,Net-(C2-Pad1)*%
X75725038Y-89351208D03*
%TD*%
D29*
%TO.P,Q1,1,G*%
%TO.N,Net-(C1-Pad1)*%
X109500000Y-87000000D03*
D30*
%TO.P,Q1,2,D*%
%TO.N,Net-(D1-Pad1)*%
X111296051Y-88796051D03*
%TO.P,Q1,3,S*%
%TO.N,GNDREF*%
X113092102Y-90592102D03*
%TD*%
D18*
%TO.P,C2,1*%
%TO.N,Net-(C2-Pad1)*%
X75600271Y-94039090D03*
%TO.P,C2,2*%
%TO.N,GNDREF*%
X77014485Y-95453304D03*
%TD*%
D20*
%TO.P,L2_1,1,1*%
%TO.N,Vdrive*%
X72731534Y-98818284D03*
D21*
%TO.P,L2_1,2,2*%
%TO.N,Net-(D2-Pad1)*%
X71876484Y-96469052D03*
%TD*%
D31*
%TO.P,U3,1,ADJ*%
%TO.N,Net-(R3_1-Pad1)*%
X107650000Y-121540000D03*
D32*
%TO.P,U3,2,VO*%
%TO.N,VCOM*%
X98500000Y-119000000D03*
D31*
%TO.P,U3,3,VI*%
%TO.N,VCC*%
X107650000Y-116460000D03*
%TD*%
D22*
%TO.P,SW1,1,A*%
%TO.N,VCOM*%
X131484325Y-87436132D03*
D23*
%TO.P,SW1,2,B*%
%TO.N,Net-(R1_SW1-Pad1)*%
X130629275Y-89785364D03*
%TD*%
D22*
%TO.P,L1_2,1,1*%
%TO.N,Vdrive*%
X124951741Y-105384262D03*
D23*
%TO.P,L1_2,2,2*%
%TO.N,Net-(D1-Pad1)*%
X124096691Y-107733494D03*
%TD*%
D19*
%TO.P,R1,1*%
%TO.N,Net-(C1-Pad1)*%
X122117107Y-91582893D03*
%TO.P,R1,2*%
%TO.N,GNDREF*%
X120702893Y-92997107D03*
%TD*%
D26*
%TO.P,R3_1,1*%
%TO.N,Net-(R3_1-Pad1)*%
X110500000Y-73000000D03*
%TO.P,R3_1,2*%
%TO.N,VCOM*%
X110500000Y-71000000D03*
%TD*%
D33*
%TO.N,GNDREF*%
X77301168Y-99589168D03*
D34*
%TO.N,Net-(D1-Pad1)*%
X118000000Y-96500000D03*
D33*
%TO.N,Net-(D2-Pad1)*%
X79500000Y-97000000D03*
%TO.N,Net-(R1_3-Pad1)*%
X125000000Y-110500000D03*
D34*
%TO.N,Net-(R3_1-Pad1)*%
X107000000Y-73000000D03*
D33*
X114169825Y-121612854D03*
%TD*%
D35*
%TO.N,Net-(C1-Pad1)*%
X122117107Y-91582893D02*
X122117107Y-89617107D01*
X124232893Y-89467107D02*
X124082893Y-89617107D01*
X122117107Y-89617107D02*
X119485443Y-86985443D01*
X124082893Y-89617107D02*
X122117107Y-89617107D01*
X109514557Y-86985443D02*
X109500000Y-87000000D01*
D36*
X124232893Y-89467107D02*
X122117107Y-91582893D01*
D35*
X119485443Y-86985443D02*
X109514557Y-86985443D01*
X124617107Y-94232893D02*
X124617107Y-94082893D01*
X124617107Y-94082893D02*
X122117107Y-91582893D01*
D36*
%TO.N,GNDREF*%
X90592102Y-82407898D02*
X94000000Y-79000000D01*
D37*
X118461999Y-92997107D02*
X114809528Y-96649578D01*
D35*
X77014485Y-95453304D02*
X77037156Y-95453304D01*
D37*
X118459106Y-93000000D02*
X118461999Y-92997107D01*
X77034299Y-118179485D02*
X77034299Y-123259485D01*
X115500000Y-93000000D02*
X118459106Y-93000000D01*
X71954299Y-123259485D02*
X71954299Y-118179485D01*
D35*
X77037156Y-95453304D02*
X79432145Y-93058315D01*
X77301168Y-95739987D02*
X77014485Y-95453304D01*
D37*
X116000000Y-95459106D02*
X116000000Y-93000000D01*
X113092102Y-90592102D02*
X115500000Y-93000000D01*
D35*
X123202893Y-95497107D02*
X120702893Y-92997107D01*
D37*
X114809528Y-96649578D02*
X116000000Y-95459106D01*
X120702893Y-92997107D02*
X118461999Y-92997107D01*
X71954299Y-123259485D02*
X77034299Y-123259485D01*
D35*
X77301168Y-99589168D02*
X77301168Y-95739987D01*
D36*
X90592102Y-86907898D02*
X90592102Y-82407898D01*
X94000000Y-79000000D02*
X110500000Y-79000000D01*
D37*
X71954299Y-118179485D02*
X77034299Y-118179485D01*
D35*
X123202893Y-95647107D02*
X123202893Y-95497107D01*
%TO.N,Net-(D1-Pad1)*%
X118183024Y-96500000D02*
X120442454Y-98759430D01*
D37*
X118539267Y-100662617D02*
X120442454Y-98759430D01*
X120442454Y-98759430D02*
X122240570Y-98759430D01*
D35*
X118000000Y-96500000D02*
X118183024Y-96500000D01*
D37*
X122240570Y-98759430D02*
X127362983Y-98759430D01*
D38*
%TO.N,VCC*%
X119000000Y-120500000D02*
X114960000Y-116460000D01*
D37*
X122920000Y-121920000D02*
X122920000Y-118179485D01*
D38*
X114960000Y-116460000D02*
X107000000Y-116460000D01*
D37*
X121887218Y-122226703D02*
X121887218Y-120670501D01*
X128000000Y-118179485D02*
X128000000Y-123259485D01*
X122920000Y-123259485D02*
X121887218Y-122226703D01*
D38*
X122920000Y-118179485D02*
X120599485Y-120500000D01*
D37*
X128000000Y-118179485D02*
X122920000Y-118179485D01*
X122920000Y-123259485D02*
X128000000Y-123259485D01*
X122920000Y-118179485D02*
X121620000Y-119479485D01*
D38*
X120599485Y-120500000D02*
X119000000Y-120500000D01*
D36*
%TO.N,Net-(R1_SW1-Pad1)*%
X127379578Y-89785364D02*
X125647107Y-88052893D01*
X130629275Y-89785364D02*
X127379578Y-89785364D01*
D35*
%TO.N,Net-(C2-Pad1)*%
X80500000Y-90500000D02*
X82500000Y-92500000D01*
X85000000Y-92500000D02*
X87000000Y-90500000D01*
X79500000Y-90500000D02*
X80500000Y-90500000D01*
X75600271Y-94039090D02*
X75622942Y-94039090D01*
X78017931Y-91644101D02*
X78355899Y-91644101D01*
X78017931Y-91644101D02*
X75725038Y-89351208D01*
X78355899Y-91644101D02*
X79500000Y-90500000D01*
X82500000Y-92500000D02*
X85000000Y-92500000D01*
X75622942Y-94039090D02*
X78017931Y-91644101D01*
D37*
%TO.N,Vdrive*%
X96000000Y-81500000D02*
X98581522Y-81500000D01*
D35*
X83699267Y-106137383D02*
X81836650Y-108000000D01*
D37*
X84311740Y-96688260D02*
X94500000Y-86500000D01*
D35*
X115416198Y-107583802D02*
X115500000Y-107500000D01*
D37*
X94500000Y-86500000D02*
X94500000Y-83000000D01*
D35*
X115416198Y-109083802D02*
X115416198Y-107583802D01*
X81836650Y-108000000D02*
X76235362Y-108000000D01*
D37*
X98581522Y-81500000D02*
X100000000Y-82918478D01*
X126115738Y-105384262D02*
X124951741Y-105384262D01*
X115416198Y-111500429D02*
X115416198Y-107121918D01*
X94500000Y-83000000D02*
X96000000Y-81500000D01*
X84311740Y-105524910D02*
X84311740Y-96688260D01*
X128218033Y-96410198D02*
X129720210Y-97912375D01*
D35*
X72731534Y-98818284D02*
X72731534Y-105755050D01*
D37*
X83699267Y-106137383D02*
X84311740Y-105524910D01*
X129720210Y-101779790D02*
X126115738Y-105384262D01*
D35*
X81836650Y-108000000D02*
X82878568Y-108000000D01*
X116460733Y-106077383D02*
X116460733Y-108039267D01*
D37*
X117153854Y-105384262D02*
X124951741Y-105384262D01*
X116460733Y-106077383D02*
X117153854Y-105384262D01*
D35*
X76235362Y-108000000D02*
X75980726Y-107745364D01*
D37*
X100000000Y-82918478D02*
X100000000Y-84730000D01*
D35*
X72731534Y-105755050D02*
X74721848Y-107745364D01*
X74721848Y-107745364D02*
X75980726Y-107745364D01*
D37*
X115416198Y-107121918D02*
X116460733Y-106077383D01*
D35*
X116460733Y-108039267D02*
X115416198Y-109083802D01*
X115416198Y-111500429D02*
X115416198Y-109083802D01*
D37*
X129720210Y-97912375D02*
X129720210Y-101779790D01*
D39*
%TO.N,Net-(D2-Pad1)*%
X79500000Y-97697304D02*
X79500000Y-97000000D01*
D35*
X74469052Y-96469052D02*
X75125676Y-97125676D01*
D39*
X81620733Y-99818037D02*
X79500000Y-97697304D01*
D35*
X75125676Y-105396132D02*
X76947218Y-105396132D01*
X76947218Y-105396132D02*
X81620733Y-100722617D01*
X75125676Y-97125676D02*
X75125676Y-105396132D01*
X71876484Y-96469052D02*
X74469052Y-96469052D01*
D39*
X81620733Y-100722617D02*
X81620733Y-99818037D01*
D36*
%TO.N,Net-(R1_3-Pad1)*%
X114159690Y-101340310D02*
X114159690Y-98599098D01*
X113000000Y-111084231D02*
X113000000Y-102500000D01*
D37*
X113216678Y-112897106D02*
X113216678Y-111500429D01*
X125000000Y-110500000D02*
X120000000Y-110500000D01*
D35*
X114159690Y-98434994D02*
X114159690Y-101340310D01*
D37*
X114170582Y-113851010D02*
X113216678Y-112897106D01*
X116648990Y-113851010D02*
X114170582Y-113851010D01*
X120000000Y-110500000D02*
X116648990Y-113851010D01*
D36*
X114159690Y-101340310D02*
X113000000Y-102500000D01*
X113416198Y-111500429D02*
X113000000Y-111084231D01*
D35*
%TO.N,Net-(R2_SW1-Pad1)*%
X68627293Y-87541972D02*
X73915802Y-87541972D01*
X73915802Y-87541972D02*
X74310824Y-87936994D01*
%TO.N,VCOM*%
X71500000Y-80000000D02*
X78500000Y-80000000D01*
X69482343Y-89891204D02*
X66391204Y-89891204D01*
X65500000Y-86000000D02*
X71500000Y-80000000D01*
X112000000Y-71000000D02*
X128436132Y-87436132D01*
X78500000Y-80000000D02*
X87500000Y-71000000D01*
D38*
X100075000Y-119000000D02*
X90000000Y-119000000D01*
X70500000Y-105500000D02*
X69000000Y-104000000D01*
D35*
X66391204Y-89891204D02*
X65500000Y-89000000D01*
D38*
X73145480Y-111145480D02*
X70500000Y-108500000D01*
D35*
X65500000Y-89000000D02*
X65500000Y-86000000D01*
D38*
X70500000Y-108500000D02*
X70500000Y-105500000D01*
X82145480Y-111145480D02*
X73145480Y-111145480D01*
X69000000Y-90373547D02*
X69482343Y-89891204D01*
X69000000Y-104000000D02*
X69000000Y-90373547D01*
X90000000Y-119000000D02*
X82145480Y-111145480D01*
D35*
X128436132Y-87436132D02*
X131484325Y-87436132D01*
X87500000Y-71000000D02*
X112000000Y-71000000D01*
D36*
%TO.N,Net-(R3_1-Pad1)*%
X110500000Y-77000000D02*
X110500000Y-73000000D01*
D35*
X110500000Y-73000000D02*
X107000000Y-73000000D01*
X109225000Y-121540000D02*
X114096971Y-121540000D01*
X114096971Y-121540000D02*
X114169825Y-121612854D01*
%TD*%
%TA.AperFunction,Conductor*%
%TO.N,VCC*%
G36*
X123025002Y-53308303D02*
G01*
X123070065Y-53337264D01*
X146921486Y-77188685D01*
X146955512Y-77250997D01*
X146950447Y-77321812D01*
X146921486Y-77366875D01*
X143886225Y-80402136D01*
X143885933Y-80402389D01*
X143885656Y-80402541D01*
X143884998Y-80403201D01*
X143884995Y-80403203D01*
X143789106Y-80499290D01*
X143789103Y-80499293D01*
X143782767Y-80505643D01*
X143778464Y-80513522D01*
X143769685Y-80529596D01*
X143759927Y-80544768D01*
X143743558Y-80566609D01*
X143738323Y-80580575D01*
X143731294Y-80599325D01*
X143730347Y-80601624D01*
X143729122Y-80603867D01*
X143718136Y-80634399D01*
X143717642Y-80635742D01*
X143692429Y-80702998D01*
X143692214Y-80705888D01*
X143691422Y-80708635D01*
X129577285Y-119931648D01*
X129531733Y-120058236D01*
X129527230Y-120069122D01*
X129508719Y-120108550D01*
X129507338Y-120117419D01*
X129499892Y-120165239D01*
X129498800Y-120171277D01*
X129489035Y-120218675D01*
X129489035Y-120218680D01*
X129487224Y-120227469D01*
X129487953Y-120236414D01*
X129491084Y-120274831D01*
X129491500Y-120285066D01*
X129491500Y-122776455D01*
X129471498Y-122844576D01*
X129454595Y-122865550D01*
X127606800Y-124713345D01*
X127544488Y-124747371D01*
X127517705Y-124750250D01*
X123402295Y-124750250D01*
X123334174Y-124730248D01*
X123313200Y-124713345D01*
X122932812Y-124332957D01*
X122918868Y-124325343D01*
X122917035Y-124325474D01*
X122910420Y-124329725D01*
X122526800Y-124713345D01*
X122464488Y-124747371D01*
X122437705Y-124750250D01*
X103793596Y-124750250D01*
X103725475Y-124730248D01*
X103678982Y-124676592D01*
X103668878Y-124606318D01*
X103675614Y-124580020D01*
X103698971Y-124517715D01*
X103701745Y-124510316D01*
X103708500Y-124448134D01*
X103708500Y-123216696D01*
X121107775Y-123216696D01*
X121120220Y-123475773D01*
X121121356Y-123485028D01*
X121171961Y-123739430D01*
X121174449Y-123748402D01*
X121220100Y-123875551D01*
X121228412Y-123886945D01*
X121232724Y-123886062D01*
X121232873Y-123885952D01*
X121846528Y-123272297D01*
X121852906Y-123260617D01*
X123985858Y-123260617D01*
X123985989Y-123262450D01*
X123990240Y-123269065D01*
X124603785Y-123882610D01*
X124616165Y-123889370D01*
X124620930Y-123885803D01*
X124621806Y-123883857D01*
X124624998Y-123875088D01*
X124695402Y-123625457D01*
X124697262Y-123616315D01*
X124730187Y-123357504D01*
X124730668Y-123351218D01*
X124732987Y-123262645D01*
X124732836Y-123256336D01*
X124729890Y-123216696D01*
X126187775Y-123216696D01*
X126200220Y-123475773D01*
X126201356Y-123485028D01*
X126251961Y-123739430D01*
X126254449Y-123748402D01*
X126300100Y-123875551D01*
X126308412Y-123886945D01*
X126312724Y-123886062D01*
X126312873Y-123885952D01*
X126926528Y-123272297D01*
X126934142Y-123258353D01*
X126934011Y-123256520D01*
X126929760Y-123249905D01*
X126318081Y-122638226D01*
X126305701Y-122631466D01*
X126301372Y-122634706D01*
X126282428Y-122679884D01*
X126279473Y-122688718D01*
X126215628Y-122940110D01*
X126214006Y-122949307D01*
X126188020Y-123207370D01*
X126187775Y-123216696D01*
X124729890Y-123216696D01*
X124713501Y-122996148D01*
X124712125Y-122986942D01*
X124654878Y-122733952D01*
X124652154Y-122725041D01*
X124620347Y-122643248D01*
X124611740Y-122632077D01*
X124606958Y-122633187D01*
X123993472Y-123246673D01*
X123985858Y-123260617D01*
X121852906Y-123260617D01*
X121854142Y-123258353D01*
X121854011Y-123256520D01*
X121849760Y-123249905D01*
X121238081Y-122638226D01*
X121225701Y-122631466D01*
X121221372Y-122634706D01*
X121202428Y-122679884D01*
X121199473Y-122688718D01*
X121135628Y-122940110D01*
X121134006Y-122949307D01*
X121108020Y-123207370D01*
X121107775Y-123216696D01*
X103708500Y-123216696D01*
X103708500Y-122138134D01*
X104841500Y-122138134D01*
X104848255Y-122200316D01*
X104899385Y-122336705D01*
X104986739Y-122453261D01*
X105103295Y-122540615D01*
X105239684Y-122591745D01*
X105301866Y-122598500D01*
X108794626Y-122598500D01*
X108841725Y-122607634D01*
X108896040Y-122629524D01*
X108896043Y-122629525D01*
X108901604Y-122631766D01*
X108907485Y-122632914D01*
X108907490Y-122632916D01*
X109109441Y-122672354D01*
X109109444Y-122672354D01*
X109113887Y-122673222D01*
X109119571Y-122673500D01*
X113042456Y-122673500D01*
X113110577Y-122693502D01*
X113124286Y-122703689D01*
X113280409Y-122837030D01*
X113284617Y-122839609D01*
X113284623Y-122839613D01*
X113448619Y-122940110D01*
X113482862Y-122961094D01*
X113487432Y-122962987D01*
X113487436Y-122962989D01*
X113567490Y-122996148D01*
X113702231Y-123051959D01*
X113782434Y-123071214D01*
X113928301Y-123106234D01*
X113928307Y-123106235D01*
X113933114Y-123107389D01*
X114169825Y-123126019D01*
X114406536Y-123107389D01*
X114411343Y-123106235D01*
X114411349Y-123106234D01*
X114557216Y-123071214D01*
X114637419Y-123051959D01*
X114772160Y-122996148D01*
X114852214Y-122962989D01*
X114852218Y-122962987D01*
X114856788Y-122961094D01*
X114891031Y-122940110D01*
X115055027Y-122839613D01*
X115055033Y-122839609D01*
X115059241Y-122837030D01*
X115239794Y-122682823D01*
X115394001Y-122502270D01*
X115396580Y-122498062D01*
X115396584Y-122498056D01*
X115515479Y-122304037D01*
X115518065Y-122299817D01*
X115524981Y-122283122D01*
X115607036Y-122085021D01*
X115607037Y-122085019D01*
X115608930Y-122080448D01*
X115664360Y-121849565D01*
X115682990Y-121612854D01*
X115679126Y-121563754D01*
X122289070Y-121563754D01*
X122290825Y-121569650D01*
X122907188Y-122186013D01*
X122921132Y-122193627D01*
X122922965Y-122193496D01*
X122929580Y-122189245D01*
X123541835Y-121576990D01*
X123548595Y-121564610D01*
X123547954Y-121563754D01*
X127369070Y-121563754D01*
X127370825Y-121569650D01*
X127987188Y-122186013D01*
X128001132Y-122193627D01*
X128002965Y-122193496D01*
X128009580Y-122189245D01*
X128621835Y-121576990D01*
X128628595Y-121564610D01*
X128626649Y-121562011D01*
X128624641Y-121560975D01*
X128427703Y-121497935D01*
X128418643Y-121495759D01*
X128162630Y-121454065D01*
X128153343Y-121453253D01*
X127893992Y-121449858D01*
X127884681Y-121450428D01*
X127627682Y-121485404D01*
X127618546Y-121487345D01*
X127375418Y-121558211D01*
X127369070Y-121563754D01*
X123547954Y-121563754D01*
X123546649Y-121562011D01*
X123544641Y-121560975D01*
X123347703Y-121497935D01*
X123338643Y-121495759D01*
X123082630Y-121454065D01*
X123073343Y-121453253D01*
X122813992Y-121449858D01*
X122804681Y-121450428D01*
X122547682Y-121485404D01*
X122538546Y-121487345D01*
X122295418Y-121558211D01*
X122289070Y-121563754D01*
X115679126Y-121563754D01*
X115664360Y-121376143D01*
X115608930Y-121145260D01*
X115607036Y-121140687D01*
X115519960Y-120930465D01*
X115519958Y-120930461D01*
X115518065Y-120925891D01*
X115494563Y-120887540D01*
X115396584Y-120727652D01*
X115396580Y-120727646D01*
X115394001Y-120723438D01*
X115239794Y-120542885D01*
X115059241Y-120388678D01*
X115055033Y-120386099D01*
X115055027Y-120386095D01*
X114861008Y-120267200D01*
X114856788Y-120264614D01*
X114852218Y-120262721D01*
X114852214Y-120262719D01*
X114641992Y-120175643D01*
X114641990Y-120175642D01*
X114637419Y-120173749D01*
X114557216Y-120154494D01*
X114411349Y-120119474D01*
X114411343Y-120119473D01*
X114406536Y-120118319D01*
X114169825Y-120099689D01*
X113933114Y-120118319D01*
X113928307Y-120119473D01*
X113928301Y-120119474D01*
X113782434Y-120154494D01*
X113702231Y-120173749D01*
X113697660Y-120175642D01*
X113697658Y-120175643D01*
X113487436Y-120262719D01*
X113487432Y-120262721D01*
X113482862Y-120264614D01*
X113478643Y-120267199D01*
X113478632Y-120267205D01*
X113281625Y-120387932D01*
X113215790Y-120406500D01*
X109170959Y-120406500D01*
X109009685Y-120421887D01*
X109003931Y-120423575D01*
X108823850Y-120476405D01*
X108788380Y-120481500D01*
X105301866Y-120481500D01*
X105239684Y-120488255D01*
X105103295Y-120539385D01*
X104986739Y-120626739D01*
X104899385Y-120743295D01*
X104848255Y-120879684D01*
X104841500Y-120941866D01*
X104841500Y-122138134D01*
X103708500Y-122138134D01*
X103708500Y-119873046D01*
X122292719Y-119873046D01*
X122295184Y-119876338D01*
X122295805Y-119876669D01*
X122446327Y-119929234D01*
X122455336Y-119931648D01*
X122710166Y-119980029D01*
X122719423Y-119981083D01*
X122978607Y-119991268D01*
X122987921Y-119990942D01*
X123245753Y-119962705D01*
X123254930Y-119961004D01*
X123505755Y-119894967D01*
X123514574Y-119891930D01*
X123537946Y-119881889D01*
X123548630Y-119873046D01*
X127372719Y-119873046D01*
X127375184Y-119876338D01*
X127375805Y-119876669D01*
X127526327Y-119929234D01*
X127535336Y-119931648D01*
X127790166Y-119980029D01*
X127799423Y-119981083D01*
X128058607Y-119991268D01*
X128067921Y-119990942D01*
X128325753Y-119962705D01*
X128334930Y-119961004D01*
X128585755Y-119894967D01*
X128594574Y-119891930D01*
X128617946Y-119881889D01*
X128628811Y-119872896D01*
X128627359Y-119867504D01*
X128012812Y-119252957D01*
X127998868Y-119245343D01*
X127997035Y-119245474D01*
X127990420Y-119249725D01*
X127379479Y-119860666D01*
X127372719Y-119873046D01*
X123548630Y-119873046D01*
X123548811Y-119872896D01*
X123547359Y-119867504D01*
X122932812Y-119252957D01*
X122918868Y-119245343D01*
X122917035Y-119245474D01*
X122910420Y-119249725D01*
X122299479Y-119860666D01*
X122292719Y-119873046D01*
X103708500Y-119873046D01*
X103708500Y-117054669D01*
X104842001Y-117054669D01*
X104842371Y-117061490D01*
X104847895Y-117112352D01*
X104851521Y-117127604D01*
X104896676Y-117248054D01*
X104905214Y-117263649D01*
X104981715Y-117365724D01*
X104994276Y-117378285D01*
X105096351Y-117454786D01*
X105111946Y-117463324D01*
X105232394Y-117508478D01*
X105247649Y-117512105D01*
X105298514Y-117517631D01*
X105305328Y-117518000D01*
X107081885Y-117518000D01*
X107097124Y-117513525D01*
X107098329Y-117512135D01*
X107100000Y-117504452D01*
X107100000Y-117499884D01*
X108200000Y-117499884D01*
X108204475Y-117515123D01*
X108205865Y-117516328D01*
X108213548Y-117517999D01*
X109994669Y-117517999D01*
X110001490Y-117517629D01*
X110052352Y-117512105D01*
X110067604Y-117508479D01*
X110188054Y-117463324D01*
X110203649Y-117454786D01*
X110305724Y-117378285D01*
X110318285Y-117365724D01*
X110394786Y-117263649D01*
X110403324Y-117248054D01*
X110448478Y-117127606D01*
X110452105Y-117112351D01*
X110457631Y-117061486D01*
X110458000Y-117054672D01*
X110458000Y-117028115D01*
X110453525Y-117012876D01*
X110452135Y-117011671D01*
X110444452Y-117010000D01*
X108218115Y-117010000D01*
X108202876Y-117014475D01*
X108201671Y-117015865D01*
X108200000Y-117023548D01*
X108200000Y-117499884D01*
X107100000Y-117499884D01*
X107100000Y-117028115D01*
X107095525Y-117012876D01*
X107094135Y-117011671D01*
X107086452Y-117010000D01*
X104860116Y-117010000D01*
X104844877Y-117014475D01*
X104843672Y-117015865D01*
X104842001Y-117023548D01*
X104842001Y-117054669D01*
X103708500Y-117054669D01*
X103708500Y-115891885D01*
X104842000Y-115891885D01*
X104846475Y-115907124D01*
X104847865Y-115908329D01*
X104855548Y-115910000D01*
X107081885Y-115910000D01*
X107097124Y-115905525D01*
X107098329Y-115904135D01*
X107100000Y-115896452D01*
X107100000Y-115891885D01*
X108200000Y-115891885D01*
X108204475Y-115907124D01*
X108205865Y-115908329D01*
X108213548Y-115910000D01*
X110439884Y-115910000D01*
X110455123Y-115905525D01*
X110456328Y-115904135D01*
X110457999Y-115896452D01*
X110457999Y-115865331D01*
X110457629Y-115858510D01*
X110452105Y-115807648D01*
X110448479Y-115792396D01*
X110403324Y-115671946D01*
X110394786Y-115656351D01*
X110318285Y-115554276D01*
X110305724Y-115541715D01*
X110203649Y-115465214D01*
X110188054Y-115456676D01*
X110067606Y-115411522D01*
X110052351Y-115407895D01*
X110001486Y-115402369D01*
X109994672Y-115402000D01*
X108218115Y-115402000D01*
X108202876Y-115406475D01*
X108201671Y-115407865D01*
X108200000Y-115415548D01*
X108200000Y-115891885D01*
X107100000Y-115891885D01*
X107100000Y-115420116D01*
X107095525Y-115404877D01*
X107094135Y-115403672D01*
X107086452Y-115402001D01*
X105305331Y-115402001D01*
X105298510Y-115402371D01*
X105247648Y-115407895D01*
X105232396Y-115411521D01*
X105111946Y-115456676D01*
X105096351Y-115465214D01*
X104994276Y-115541715D01*
X104981715Y-115554276D01*
X104905214Y-115656351D01*
X104896676Y-115671946D01*
X104851522Y-115792394D01*
X104847895Y-115807649D01*
X104842369Y-115858514D01*
X104842000Y-115865328D01*
X104842000Y-115891885D01*
X103708500Y-115891885D01*
X103708500Y-113551866D01*
X103701745Y-113489684D01*
X103650615Y-113353295D01*
X103563261Y-113236739D01*
X103446705Y-113149385D01*
X103310316Y-113098255D01*
X103248134Y-113091500D01*
X93751866Y-113091500D01*
X93689684Y-113098255D01*
X93553295Y-113149385D01*
X93436739Y-113236739D01*
X93349385Y-113353295D01*
X93298255Y-113489684D01*
X93291500Y-113551866D01*
X93291500Y-117115500D01*
X93271498Y-117183621D01*
X93217842Y-117230114D01*
X93165500Y-117241500D01*
X90780585Y-117241500D01*
X90712464Y-117221498D01*
X90691490Y-117204595D01*
X83427753Y-109940858D01*
X83422845Y-109935664D01*
X83373579Y-109880466D01*
X83373577Y-109880464D01*
X83370462Y-109876974D01*
X83282614Y-109803912D01*
X83280963Y-109802514D01*
X83267833Y-109791200D01*
X83194409Y-109727934D01*
X83188354Y-109724114D01*
X83175025Y-109714429D01*
X83173105Y-109712832D01*
X83173097Y-109712826D01*
X83169510Y-109709843D01*
X83138069Y-109690764D01*
X83071801Y-109650551D01*
X83069932Y-109649394D01*
X83008421Y-109610584D01*
X82973361Y-109588463D01*
X82966807Y-109585579D01*
X82952190Y-109577970D01*
X82946061Y-109574251D01*
X82840732Y-109530083D01*
X82838711Y-109529215D01*
X82798366Y-109511463D01*
X82734125Y-109483196D01*
X82729618Y-109481967D01*
X82729609Y-109481964D01*
X82727209Y-109481310D01*
X82711632Y-109475947D01*
X82705025Y-109473177D01*
X82700497Y-109472027D01*
X82700494Y-109472026D01*
X82594307Y-109445058D01*
X82592181Y-109444498D01*
X82572007Y-109438998D01*
X82481959Y-109414448D01*
X82477319Y-109413899D01*
X82477314Y-109413898D01*
X82474853Y-109413607D01*
X82458637Y-109410602D01*
X82451697Y-109408839D01*
X82402136Y-109403848D01*
X82338052Y-109397395D01*
X82335867Y-109397156D01*
X82230005Y-109384627D01*
X82206791Y-109374719D01*
X82197958Y-109380396D01*
X82166308Y-109385441D01*
X82117874Y-109386921D01*
X82114026Y-109386980D01*
X81782950Y-109386980D01*
X81773643Y-109384247D01*
X81747999Y-109386980D01*
X76259110Y-109386980D01*
X76215735Y-109374244D01*
X76193053Y-109385247D01*
X76172227Y-109386980D01*
X76156992Y-109386980D01*
X76088871Y-109366978D01*
X76042378Y-109313322D01*
X76032274Y-109243048D01*
X76061768Y-109178468D01*
X76113892Y-109142581D01*
X76117672Y-109141205D01*
X76175799Y-109134503D01*
X76187254Y-109135879D01*
X76212984Y-109146914D01*
X76223612Y-109140084D01*
X76250212Y-109135295D01*
X76271117Y-109133815D01*
X76280015Y-109133500D01*
X81730283Y-109133500D01*
X81741344Y-109134433D01*
X81741365Y-109134153D01*
X81747339Y-109134592D01*
X81753257Y-109135598D01*
X81757715Y-109135501D01*
X81763361Y-109137619D01*
X81780201Y-109135010D01*
X81806642Y-109134433D01*
X81848021Y-109133530D01*
X81850769Y-109133500D01*
X82162460Y-109133500D01*
X82202983Y-109145399D01*
X82223771Y-109135270D01*
X82244814Y-109133500D01*
X82932609Y-109133500D01*
X83093883Y-109118113D01*
X83301428Y-109057226D01*
X83312367Y-109051592D01*
X83488385Y-108960937D01*
X83488388Y-108960935D01*
X83493716Y-108958191D01*
X83550217Y-108913809D01*
X83659090Y-108828289D01*
X83659095Y-108828285D01*
X83663807Y-108824583D01*
X83667739Y-108820052D01*
X83801635Y-108665752D01*
X83801639Y-108665747D01*
X83805566Y-108661221D01*
X83848507Y-108586994D01*
X83851599Y-108581650D01*
X83903024Y-108532701D01*
X83915509Y-108527114D01*
X84004119Y-108493100D01*
X84962470Y-108125223D01*
X85660371Y-107857324D01*
X85660372Y-107857324D01*
X85662903Y-107856352D01*
X85665339Y-107855168D01*
X85665345Y-107855165D01*
X85669209Y-107853286D01*
X85675295Y-107850327D01*
X85689170Y-107839404D01*
X85782686Y-107765781D01*
X85789742Y-107760226D01*
X85874300Y-107641626D01*
X85922173Y-107504060D01*
X85928391Y-107380772D01*
X85929058Y-107367551D01*
X85929058Y-107367550D01*
X85929510Y-107358587D01*
X85902790Y-107246534D01*
X85897332Y-107223643D01*
X85897330Y-107223638D01*
X85895724Y-107216902D01*
X85892686Y-107210676D01*
X85892684Y-107210671D01*
X85891397Y-107208036D01*
X85890318Y-107205824D01*
X85707854Y-106895596D01*
X85515560Y-106568653D01*
X85498265Y-106499795D01*
X85520944Y-106432518D01*
X85528211Y-106423114D01*
X85535933Y-106414041D01*
X85535936Y-106414037D01*
X85539210Y-106410190D01*
X85541829Y-106405865D01*
X85541833Y-106405860D01*
X85556231Y-106382086D01*
X85563903Y-106370839D01*
X85583860Y-106344736D01*
X85620983Y-106275502D01*
X85624247Y-106269778D01*
X85662341Y-106206878D01*
X85664961Y-106202552D01*
X85666856Y-106197863D01*
X85666859Y-106197856D01*
X85677273Y-106172082D01*
X85683052Y-106159746D01*
X85696180Y-106135261D01*
X85696182Y-106135257D01*
X85698571Y-106130801D01*
X85724145Y-106056529D01*
X85726455Y-106050349D01*
X85730740Y-106039745D01*
X85755896Y-105977481D01*
X85763176Y-105945439D01*
X85766909Y-105932335D01*
X85775956Y-105906059D01*
X85777602Y-105901279D01*
X85778462Y-105896299D01*
X85778465Y-105896288D01*
X85790978Y-105823845D01*
X85792270Y-105817377D01*
X85808555Y-105745698D01*
X85808556Y-105745689D01*
X85809675Y-105740765D01*
X85811739Y-105707959D01*
X85813326Y-105694455D01*
X85818919Y-105662074D01*
X85820240Y-105632985D01*
X85820240Y-105576802D01*
X85820489Y-105568890D01*
X85824252Y-105509090D01*
X85824918Y-105498497D01*
X85820841Y-105456916D01*
X85820240Y-105444621D01*
X85820240Y-97365291D01*
X85840242Y-97297170D01*
X85857145Y-97276196D01*
X88596331Y-94537010D01*
X88658643Y-94502984D01*
X88729458Y-94508049D01*
X88786294Y-94550596D01*
X88811105Y-94617116D01*
X88796677Y-94685257D01*
X88791581Y-94694842D01*
X88498472Y-95329189D01*
X88241230Y-95978908D01*
X88240672Y-95980587D01*
X88240666Y-95980602D01*
X88186476Y-96143503D01*
X88020657Y-96641973D01*
X87974649Y-96811310D01*
X87838605Y-97312038D01*
X87837442Y-97316318D01*
X87837082Y-97318011D01*
X87837079Y-97318024D01*
X87692519Y-97998123D01*
X87692516Y-97998141D01*
X87692155Y-97999838D01*
X87691887Y-98001572D01*
X87691886Y-98001575D01*
X87658275Y-98218690D01*
X87585250Y-98690402D01*
X87517060Y-99385858D01*
X87487798Y-100084035D01*
X87494438Y-100559562D01*
X87497554Y-100782758D01*
X87497676Y-100784498D01*
X87497676Y-100784506D01*
X87508235Y-100935504D01*
X87546300Y-101479846D01*
X87633881Y-102173126D01*
X87634200Y-102174862D01*
X87634201Y-102174871D01*
X87759260Y-102856262D01*
X87760026Y-102860437D01*
X87760441Y-102862153D01*
X87760442Y-102862157D01*
X87836081Y-103174809D01*
X87924341Y-103539634D01*
X87924845Y-103541304D01*
X87924849Y-103541318D01*
X88125805Y-104206916D01*
X88125811Y-104206934D01*
X88126314Y-104208600D01*
X88365314Y-104865248D01*
X88365998Y-104866845D01*
X88366004Y-104866859D01*
X88506456Y-105194557D01*
X88640597Y-105507531D01*
X88951304Y-106133446D01*
X89296466Y-106741041D01*
X89675007Y-107328421D01*
X90085745Y-107893754D01*
X90086851Y-107895110D01*
X90086854Y-107895114D01*
X90225623Y-108065262D01*
X90527401Y-108435278D01*
X90528582Y-108436571D01*
X90528586Y-108436576D01*
X90997398Y-108949989D01*
X90998598Y-108951303D01*
X90999855Y-108952534D01*
X90999857Y-108952536D01*
X91472802Y-109415678D01*
X91497864Y-109440221D01*
X91499188Y-109441380D01*
X91499189Y-109441381D01*
X92022318Y-109899346D01*
X92022332Y-109899358D01*
X92023645Y-109900507D01*
X92574299Y-110330726D01*
X93148110Y-110729535D01*
X93527243Y-110962779D01*
X93647773Y-111036929D01*
X93743289Y-111095691D01*
X93744839Y-111096529D01*
X94356443Y-111427223D01*
X94356457Y-111427230D01*
X94357979Y-111428053D01*
X94359560Y-111428797D01*
X94359570Y-111428802D01*
X94454552Y-111473497D01*
X94990264Y-111725584D01*
X94991896Y-111726243D01*
X94991902Y-111726246D01*
X95288948Y-111846260D01*
X95638171Y-111987355D01*
X95639845Y-111987925D01*
X95639848Y-111987926D01*
X96297999Y-112211979D01*
X96298007Y-112211982D01*
X96299680Y-112212551D01*
X96301387Y-112213028D01*
X96301398Y-112213031D01*
X96971020Y-112399993D01*
X96971025Y-112399994D01*
X96972729Y-112400470D01*
X97655219Y-112550525D01*
X98345020Y-112662248D01*
X99039982Y-112735292D01*
X99509275Y-112758244D01*
X99736176Y-112769342D01*
X99736184Y-112769342D01*
X99737939Y-112769428D01*
X99739697Y-112769416D01*
X99739710Y-112769416D01*
X100124035Y-112766732D01*
X100436712Y-112764549D01*
X100438474Y-112764438D01*
X100438478Y-112764438D01*
X101132344Y-112720784D01*
X101134124Y-112720672D01*
X101439875Y-112684213D01*
X101826267Y-112638139D01*
X101826283Y-112638137D01*
X101827999Y-112637932D01*
X101829714Y-112637630D01*
X101829718Y-112637629D01*
X102514428Y-112516896D01*
X102514439Y-112516894D01*
X102516173Y-112516588D01*
X102791364Y-112452043D01*
X103194780Y-112357423D01*
X103194792Y-112357420D01*
X103196501Y-112357019D01*
X103202356Y-112355296D01*
X103865178Y-112160217D01*
X103865177Y-112160217D01*
X103866860Y-112159722D01*
X104291540Y-112008500D01*
X104523482Y-111925909D01*
X104523486Y-111925907D01*
X104525161Y-111925311D01*
X105169350Y-111654519D01*
X105203201Y-111638009D01*
X105357592Y-111562707D01*
X105797419Y-111348189D01*
X105798960Y-111347328D01*
X105798971Y-111347322D01*
X106249211Y-111095691D01*
X106407408Y-111007278D01*
X106408905Y-111006328D01*
X106408915Y-111006322D01*
X106995920Y-110633797D01*
X106995919Y-110633797D01*
X106997417Y-110632847D01*
X107565604Y-110226065D01*
X107886719Y-109967882D01*
X108108838Y-109789294D01*
X108108849Y-109789284D01*
X108110198Y-109788200D01*
X108335231Y-109585579D01*
X108628190Y-109321798D01*
X108628199Y-109321789D01*
X108629500Y-109320618D01*
X109121892Y-108824777D01*
X109585837Y-108302223D01*
X110019890Y-107754585D01*
X110422695Y-107183572D01*
X110734864Y-106683997D01*
X110792067Y-106592454D01*
X110792068Y-106592453D01*
X110792998Y-106590964D01*
X110843119Y-106499795D01*
X110978354Y-106253802D01*
X111129642Y-105978609D01*
X111265791Y-105694444D01*
X111430826Y-105349992D01*
X111430834Y-105349974D01*
X111431580Y-105348417D01*
X111494997Y-105194557D01*
X111499007Y-105184827D01*
X111543459Y-105129469D01*
X111610783Y-105106930D01*
X111679605Y-105124368D01*
X111728074Y-105176246D01*
X111741500Y-105232842D01*
X111741500Y-110992835D01*
X111740422Y-111009282D01*
X111737521Y-111031317D01*
X111741281Y-111111051D01*
X111741360Y-111112719D01*
X111741500Y-111118655D01*
X111741500Y-111141230D01*
X111741749Y-111144020D01*
X111741749Y-111144021D01*
X111742199Y-111149064D01*
X111740859Y-111181701D01*
X111710173Y-111359362D01*
X111709499Y-111363265D01*
X111709319Y-111367222D01*
X111709319Y-111367225D01*
X111708529Y-111384630D01*
X111708178Y-111392354D01*
X111708178Y-112873090D01*
X111708129Y-112876608D01*
X111707274Y-112907233D01*
X111705344Y-112976311D01*
X111706013Y-112981325D01*
X111715736Y-113054192D01*
X111716437Y-113060753D01*
X111720600Y-113112492D01*
X111722738Y-113139071D01*
X111730575Y-113170976D01*
X111733104Y-113184364D01*
X111737449Y-113216926D01*
X111738910Y-113221767D01*
X111738911Y-113221769D01*
X111760156Y-113292135D01*
X111761897Y-113298496D01*
X111780641Y-113374812D01*
X111782619Y-113379472D01*
X111793479Y-113405057D01*
X111798116Y-113417867D01*
X111807611Y-113449314D01*
X111809829Y-113453862D01*
X111809832Y-113453869D01*
X111842049Y-113519924D01*
X111844785Y-113525926D01*
X111863753Y-113570610D01*
X111875490Y-113598262D01*
X111878182Y-113602536D01*
X111892997Y-113626062D01*
X111899623Y-113637966D01*
X111914024Y-113667494D01*
X111916943Y-113671631D01*
X111916943Y-113671632D01*
X111959319Y-113731703D01*
X111962979Y-113737192D01*
X112004845Y-113803673D01*
X112008186Y-113807462D01*
X112008190Y-113807468D01*
X112026576Y-113828323D01*
X112035022Y-113839018D01*
X112053952Y-113865853D01*
X112056622Y-113868777D01*
X112070332Y-113883791D01*
X112073587Y-113887356D01*
X112113303Y-113927072D01*
X112118722Y-113932842D01*
X112162028Y-113981964D01*
X112162031Y-113981967D01*
X112165376Y-113985761D01*
X112169284Y-113988971D01*
X112169285Y-113988972D01*
X112197667Y-114012285D01*
X112206786Y-114020555D01*
X113086907Y-114900676D01*
X113089361Y-114903198D01*
X113131438Y-114947693D01*
X113157914Y-114975691D01*
X113220339Y-115023418D01*
X113225474Y-115027562D01*
X113285302Y-115078480D01*
X113289627Y-115081099D01*
X113289632Y-115081103D01*
X113313406Y-115095501D01*
X113324653Y-115103173D01*
X113350756Y-115123130D01*
X113355214Y-115125520D01*
X113355215Y-115125521D01*
X113419983Y-115160249D01*
X113425708Y-115163514D01*
X113492940Y-115204231D01*
X113523399Y-115216537D01*
X113535740Y-115222317D01*
X113564691Y-115237841D01*
X113569472Y-115239487D01*
X113569476Y-115239489D01*
X113638983Y-115263422D01*
X113645161Y-115265732D01*
X113659544Y-115271543D01*
X113718011Y-115295165D01*
X113722951Y-115296287D01*
X113722950Y-115296287D01*
X113750042Y-115302442D01*
X113763141Y-115306173D01*
X113794213Y-115316872D01*
X113871682Y-115330253D01*
X113878086Y-115331533D01*
X113954726Y-115348945D01*
X113987535Y-115351009D01*
X114001035Y-115352595D01*
X114033418Y-115358189D01*
X114037375Y-115358369D01*
X114037378Y-115358369D01*
X114061088Y-115359446D01*
X114061107Y-115359446D01*
X114062507Y-115359510D01*
X114118690Y-115359510D01*
X114126601Y-115359759D01*
X114196995Y-115364188D01*
X114238574Y-115360111D01*
X114250870Y-115359510D01*
X116624974Y-115359510D01*
X116628492Y-115359559D01*
X116723140Y-115362203D01*
X116723143Y-115362203D01*
X116728195Y-115362344D01*
X116806088Y-115351951D01*
X116812629Y-115351252D01*
X116841322Y-115348943D01*
X116885913Y-115345356D01*
X116885917Y-115345355D01*
X116890955Y-115344950D01*
X116922868Y-115337111D01*
X116936248Y-115334584D01*
X116968810Y-115330239D01*
X116973651Y-115328778D01*
X116973653Y-115328777D01*
X117044019Y-115307532D01*
X117050382Y-115305791D01*
X117064017Y-115302442D01*
X117126696Y-115287047D01*
X117156942Y-115274209D01*
X117169753Y-115269571D01*
X117196352Y-115261540D01*
X117201198Y-115260077D01*
X117205746Y-115257859D01*
X117205753Y-115257856D01*
X117271808Y-115225639D01*
X117277809Y-115222904D01*
X117315104Y-115207073D01*
X117385625Y-115198867D01*
X117449387Y-115230091D01*
X117486146Y-115290831D01*
X117490088Y-115315145D01*
X117506359Y-115573770D01*
X117565505Y-115883822D01*
X117663044Y-116184016D01*
X117664731Y-116187602D01*
X117664733Y-116187606D01*
X117795750Y-116466033D01*
X117795754Y-116466040D01*
X117797438Y-116469619D01*
X117966568Y-116736125D01*
X118167767Y-116979332D01*
X118397860Y-117195404D01*
X118653221Y-117380934D01*
X118656690Y-117382841D01*
X118656693Y-117382843D01*
X118926352Y-117531090D01*
X118929821Y-117532997D01*
X118933490Y-117534450D01*
X118933495Y-117534452D01*
X119120676Y-117608562D01*
X119223298Y-117649193D01*
X119529025Y-117727690D01*
X119842179Y-117767250D01*
X120157821Y-117767250D01*
X120470975Y-117727690D01*
X120776702Y-117649193D01*
X121006127Y-117558357D01*
X121076826Y-117551878D01*
X121139806Y-117584650D01*
X121175070Y-117646270D01*
X121174633Y-117706524D01*
X121135628Y-117860110D01*
X121134006Y-117869307D01*
X121108020Y-118127370D01*
X121107775Y-118136696D01*
X121120220Y-118395773D01*
X121121356Y-118405028D01*
X121171961Y-118659430D01*
X121174449Y-118668402D01*
X121220100Y-118795551D01*
X121228412Y-118806945D01*
X121232724Y-118806062D01*
X121232873Y-118805952D01*
X121858208Y-118180617D01*
X123985858Y-118180617D01*
X123985989Y-118182450D01*
X123990240Y-118189065D01*
X124603785Y-118802610D01*
X124616165Y-118809370D01*
X124620930Y-118805803D01*
X124621806Y-118803857D01*
X124624998Y-118795088D01*
X124695402Y-118545457D01*
X124697262Y-118536315D01*
X124730187Y-118277504D01*
X124730668Y-118271218D01*
X124732987Y-118182645D01*
X124732836Y-118176336D01*
X124729890Y-118136696D01*
X126187775Y-118136696D01*
X126200220Y-118395773D01*
X126201356Y-118405028D01*
X126251961Y-118659430D01*
X126254449Y-118668402D01*
X126300100Y-118795551D01*
X126308412Y-118806945D01*
X126312724Y-118806062D01*
X126312873Y-118805952D01*
X126926528Y-118192297D01*
X126932906Y-118180617D01*
X129065858Y-118180617D01*
X129065989Y-118182450D01*
X129070240Y-118189065D01*
X129683785Y-118802610D01*
X129696165Y-118809370D01*
X129700930Y-118805803D01*
X129701806Y-118803857D01*
X129704998Y-118795088D01*
X129775402Y-118545457D01*
X129777262Y-118536315D01*
X129810187Y-118277504D01*
X129810668Y-118271218D01*
X129812987Y-118182645D01*
X129812836Y-118176336D01*
X129793501Y-117916148D01*
X129792125Y-117906942D01*
X129734878Y-117653952D01*
X129732154Y-117645041D01*
X129700347Y-117563248D01*
X129691740Y-117552077D01*
X129686958Y-117553187D01*
X129073472Y-118166673D01*
X129065858Y-118180617D01*
X126932906Y-118180617D01*
X126934142Y-118178353D01*
X126934011Y-118176520D01*
X126929760Y-118169905D01*
X126318081Y-117558226D01*
X126305701Y-117551466D01*
X126301372Y-117554706D01*
X126282428Y-117599884D01*
X126279473Y-117608718D01*
X126215628Y-117860110D01*
X126214006Y-117869307D01*
X126188020Y-118127370D01*
X126187775Y-118136696D01*
X124729890Y-118136696D01*
X124713501Y-117916148D01*
X124712125Y-117906942D01*
X124654878Y-117653952D01*
X124652154Y-117645041D01*
X124620347Y-117563248D01*
X124611740Y-117552077D01*
X124606958Y-117553187D01*
X123993472Y-118166673D01*
X123985858Y-118180617D01*
X121858208Y-118180617D01*
X123541835Y-116496990D01*
X123548595Y-116484610D01*
X123547954Y-116483754D01*
X127369070Y-116483754D01*
X127370825Y-116489650D01*
X127987188Y-117106013D01*
X128001132Y-117113627D01*
X128002965Y-117113496D01*
X128009580Y-117109245D01*
X128621835Y-116496990D01*
X128628595Y-116484610D01*
X128626649Y-116482011D01*
X128624641Y-116480975D01*
X128427703Y-116417935D01*
X128418643Y-116415759D01*
X128162630Y-116374065D01*
X128153343Y-116373253D01*
X127893992Y-116369858D01*
X127884681Y-116370428D01*
X127627682Y-116405404D01*
X127618546Y-116407345D01*
X127375418Y-116478211D01*
X127369070Y-116483754D01*
X123547954Y-116483754D01*
X123546649Y-116482011D01*
X123544641Y-116480975D01*
X123347703Y-116417935D01*
X123338643Y-116415759D01*
X123082630Y-116374065D01*
X123073343Y-116373253D01*
X122813992Y-116369858D01*
X122804681Y-116370428D01*
X122547682Y-116405404D01*
X122538542Y-116407346D01*
X122451337Y-116432764D01*
X122380341Y-116432623D01*
X122320691Y-116394121D01*
X122291326Y-116329482D01*
X122302071Y-116258150D01*
X122335267Y-116187606D01*
X122335269Y-116187602D01*
X122336956Y-116184016D01*
X122434495Y-115883822D01*
X122493641Y-115573770D01*
X122513460Y-115258750D01*
X122493641Y-114943730D01*
X122434495Y-114633678D01*
X122336956Y-114333484D01*
X122330667Y-114320119D01*
X122204250Y-114051467D01*
X122204246Y-114051460D01*
X122202562Y-114047881D01*
X122033432Y-113781375D01*
X121909721Y-113631834D01*
X121834758Y-113541220D01*
X121834757Y-113541219D01*
X121832233Y-113538168D01*
X121602140Y-113322096D01*
X121346779Y-113136566D01*
X121342165Y-113134029D01*
X121073648Y-112986410D01*
X121073647Y-112986409D01*
X121070179Y-112984503D01*
X121066510Y-112983050D01*
X121066505Y-112983048D01*
X120780372Y-112869760D01*
X120780371Y-112869760D01*
X120776702Y-112868307D01*
X120470975Y-112789810D01*
X120169068Y-112751671D01*
X120103997Y-112723291D01*
X120064595Y-112664231D01*
X120063378Y-112593245D01*
X120095770Y-112537571D01*
X120587936Y-112045405D01*
X120650248Y-112011379D01*
X120677031Y-112008500D01*
X124935771Y-112008500D01*
X124945657Y-112008888D01*
X125000000Y-112013165D01*
X125057711Y-112008623D01*
X125059787Y-112008500D01*
X125061001Y-112008500D01*
X125063509Y-112008298D01*
X125063514Y-112008298D01*
X125138298Y-112002281D01*
X125138517Y-112002263D01*
X125234360Y-111994720D01*
X125234359Y-111994720D01*
X125236711Y-111994535D01*
X125237790Y-111994276D01*
X125241965Y-111993940D01*
X125362078Y-111964437D01*
X125362312Y-111964381D01*
X125467594Y-111939105D01*
X125470074Y-111938078D01*
X125471543Y-111937659D01*
X125472791Y-111937244D01*
X125477706Y-111936037D01*
X125482362Y-111934061D01*
X125482364Y-111934060D01*
X125513989Y-111920635D01*
X125586464Y-111889872D01*
X125587280Y-111889529D01*
X125686963Y-111848240D01*
X125690837Y-111845866D01*
X125695408Y-111843734D01*
X125696488Y-111843169D01*
X125701156Y-111841188D01*
X125797773Y-111780345D01*
X125798986Y-111779592D01*
X125847896Y-111749620D01*
X125889416Y-111724176D01*
X125893184Y-111720958D01*
X125897010Y-111718178D01*
X125901187Y-111715350D01*
X125902279Y-111714533D01*
X125906567Y-111711833D01*
X125989578Y-111638650D01*
X125991072Y-111637354D01*
X126066213Y-111573177D01*
X126069969Y-111569969D01*
X126073178Y-111566212D01*
X126076683Y-111562707D01*
X126076764Y-111562788D01*
X126084236Y-111555198D01*
X126088655Y-111551302D01*
X126156811Y-111468328D01*
X126158363Y-111466474D01*
X126179299Y-111441961D01*
X126224176Y-111389416D01*
X126227114Y-111384621D01*
X126237179Y-111370486D01*
X126239520Y-111367636D01*
X126239525Y-111367628D01*
X126242734Y-111363722D01*
X126295208Y-111273563D01*
X126296639Y-111271168D01*
X126348240Y-111186963D01*
X126350420Y-111181701D01*
X126351486Y-111179126D01*
X126358996Y-111163964D01*
X126362296Y-111158294D01*
X126364841Y-111153922D01*
X126401125Y-111059399D01*
X126402341Y-111056352D01*
X126437209Y-110972171D01*
X126439105Y-110967594D01*
X126441752Y-110956568D01*
X126446640Y-110940826D01*
X126450021Y-110932018D01*
X126451833Y-110927298D01*
X126471915Y-110831171D01*
X126472733Y-110827524D01*
X126493381Y-110741518D01*
X126493381Y-110741517D01*
X126494535Y-110736711D01*
X126495649Y-110722560D01*
X126497922Y-110706685D01*
X126500440Y-110694632D01*
X126500441Y-110694626D01*
X126501474Y-110689680D01*
X126505795Y-110594529D01*
X126506052Y-110590375D01*
X126512777Y-110504930D01*
X126513165Y-110500000D01*
X126512777Y-110495065D01*
X126511827Y-110482988D01*
X126511569Y-110467396D01*
X126512257Y-110452241D01*
X126512257Y-110452234D01*
X126512486Y-110447183D01*
X126511905Y-110442163D01*
X126511905Y-110442157D01*
X126501878Y-110355496D01*
X126501431Y-110350902D01*
X126494923Y-110268214D01*
X126494922Y-110268209D01*
X126494535Y-110263289D01*
X126489887Y-110243928D01*
X126487241Y-110228998D01*
X126485166Y-110211063D01*
X126485165Y-110211060D01*
X126484585Y-110206044D01*
X126460245Y-110120025D01*
X126458967Y-110115134D01*
X126440262Y-110037227D01*
X126439105Y-110032406D01*
X126430390Y-110011366D01*
X126425564Y-109997468D01*
X126419867Y-109977335D01*
X126418490Y-109972468D01*
X126403751Y-109940858D01*
X126381953Y-109894113D01*
X126379739Y-109889082D01*
X126350134Y-109817609D01*
X126350133Y-109817607D01*
X126348240Y-109813037D01*
X126334857Y-109791198D01*
X126328096Y-109778616D01*
X126318038Y-109757047D01*
X126315901Y-109752464D01*
X126313059Y-109748283D01*
X126313055Y-109748275D01*
X126268930Y-109683347D01*
X126265710Y-109678361D01*
X126248668Y-109650551D01*
X126224176Y-109610584D01*
X126205681Y-109588929D01*
X126197283Y-109577924D01*
X126182301Y-109555879D01*
X126182300Y-109555878D01*
X126179456Y-109551693D01*
X126158613Y-109529652D01*
X126124054Y-109493107D01*
X126119791Y-109488364D01*
X126073183Y-109433793D01*
X126073176Y-109433786D01*
X126069969Y-109430031D01*
X126046145Y-109409683D01*
X126036444Y-109400461D01*
X126012668Y-109375319D01*
X126001759Y-109366978D01*
X125950908Y-109328100D01*
X125945606Y-109323815D01*
X125929311Y-109309898D01*
X125889416Y-109275824D01*
X125885202Y-109273242D01*
X125885197Y-109273238D01*
X125860280Y-109257969D01*
X125849584Y-109250632D01*
X125823842Y-109230950D01*
X125823838Y-109230947D01*
X125819826Y-109227880D01*
X125815376Y-109225494D01*
X125815373Y-109225492D01*
X125753849Y-109192504D01*
X125747554Y-109188891D01*
X125732970Y-109179954D01*
X125686963Y-109151760D01*
X125652747Y-109137587D01*
X125641453Y-109132237D01*
X125605891Y-109113169D01*
X125537812Y-109089728D01*
X125530667Y-109087021D01*
X125467594Y-109060895D01*
X125428818Y-109051585D01*
X125417233Y-109048208D01*
X125381158Y-109035786D01*
X125381147Y-109035783D01*
X125376369Y-109034138D01*
X125308261Y-109022374D01*
X125300327Y-109020738D01*
X125296983Y-109019935D01*
X125282371Y-109016427D01*
X125241524Y-109006620D01*
X125241518Y-109006619D01*
X125236711Y-109005465D01*
X125231774Y-109005076D01*
X125231765Y-109005075D01*
X125230713Y-109004992D01*
X125230337Y-109004849D01*
X125226886Y-109004302D01*
X125227001Y-109003577D01*
X125164372Y-108979706D01*
X125122233Y-108922567D01*
X125117675Y-108851717D01*
X125154589Y-108787306D01*
X125245357Y-108702514D01*
X125245358Y-108702512D01*
X125249264Y-108698864D01*
X125328708Y-108594390D01*
X125385580Y-108519601D01*
X125385583Y-108519597D01*
X125388812Y-108515350D01*
X125495444Y-108310946D01*
X125499313Y-108298931D01*
X125564478Y-108096572D01*
X125564479Y-108096569D01*
X125566112Y-108091497D01*
X125598796Y-107863280D01*
X125598577Y-107855165D01*
X125592704Y-107638154D01*
X125592560Y-107632818D01*
X125565165Y-107495094D01*
X125548622Y-107411930D01*
X125548621Y-107411927D01*
X125547582Y-107406703D01*
X125537655Y-107380772D01*
X125467059Y-107196382D01*
X125467057Y-107196378D01*
X125465150Y-107191397D01*
X125441651Y-107151742D01*
X125424132Y-107082944D01*
X125446589Y-107015593D01*
X125501894Y-106971075D01*
X125524388Y-106964150D01*
X125692348Y-106929215D01*
X125744986Y-106904614D01*
X125798334Y-106892762D01*
X126091722Y-106892762D01*
X126095240Y-106892811D01*
X126189888Y-106895455D01*
X126189891Y-106895455D01*
X126194943Y-106895596D01*
X126272836Y-106885203D01*
X126279377Y-106884504D01*
X126308070Y-106882195D01*
X126352661Y-106878608D01*
X126352665Y-106878607D01*
X126357703Y-106878202D01*
X126389616Y-106870363D01*
X126402996Y-106867836D01*
X126435558Y-106863491D01*
X126440399Y-106862030D01*
X126440401Y-106862029D01*
X126510767Y-106840784D01*
X126517130Y-106839043D01*
X126593444Y-106820299D01*
X126623690Y-106807461D01*
X126636501Y-106802823D01*
X126663100Y-106794792D01*
X126667946Y-106793329D01*
X126672494Y-106791111D01*
X126672501Y-106791108D01*
X126738556Y-106758891D01*
X126744558Y-106756155D01*
X126789242Y-106737187D01*
X126816894Y-106725450D01*
X126844694Y-106707943D01*
X126856598Y-106701317D01*
X126886126Y-106686916D01*
X126950338Y-106641619D01*
X126955824Y-106637961D01*
X127018024Y-106598791D01*
X127018025Y-106598790D01*
X127022305Y-106596095D01*
X127026094Y-106592754D01*
X127026100Y-106592750D01*
X127046955Y-106574364D01*
X127057650Y-106565918D01*
X127060601Y-106563836D01*
X127084485Y-106546988D01*
X127105988Y-106527353D01*
X127145704Y-106487637D01*
X127151474Y-106482218D01*
X127200596Y-106438912D01*
X127200599Y-106438909D01*
X127204393Y-106435564D01*
X127230917Y-106403273D01*
X127239187Y-106394154D01*
X130769876Y-102863465D01*
X130772398Y-102861011D01*
X130841222Y-102795928D01*
X130841224Y-102795925D01*
X130844891Y-102792458D01*
X130892621Y-102730029D01*
X130896762Y-102724898D01*
X130944401Y-102668923D01*
X130944402Y-102668922D01*
X130947680Y-102665070D01*
X130950299Y-102660745D01*
X130950303Y-102660740D01*
X130964701Y-102636966D01*
X130972373Y-102625719D01*
X130992330Y-102599616D01*
X131029453Y-102530382D01*
X131032717Y-102524658D01*
X131070812Y-102461756D01*
X131073431Y-102457432D01*
X131085738Y-102426971D01*
X131091518Y-102414631D01*
X131104650Y-102390140D01*
X131107041Y-102385681D01*
X131127347Y-102326710D01*
X131132622Y-102311389D01*
X131134932Y-102305211D01*
X131162468Y-102237056D01*
X131164365Y-102232361D01*
X131171642Y-102200329D01*
X131175373Y-102187231D01*
X131186072Y-102156159D01*
X131199453Y-102078690D01*
X131200736Y-102072272D01*
X131217025Y-102000576D01*
X131217025Y-102000575D01*
X131218145Y-101995646D01*
X131220209Y-101962837D01*
X131221795Y-101949337D01*
X131227389Y-101916954D01*
X131227761Y-101908762D01*
X131228646Y-101889284D01*
X131228646Y-101889265D01*
X131228710Y-101887865D01*
X131228710Y-101831683D01*
X131228959Y-101823771D01*
X131230096Y-101805708D01*
X131233388Y-101753378D01*
X131229311Y-101711799D01*
X131228710Y-101699503D01*
X131228710Y-97936391D01*
X131228759Y-97932873D01*
X131231403Y-97838225D01*
X131231403Y-97838222D01*
X131231544Y-97833170D01*
X131221151Y-97755277D01*
X131220451Y-97748728D01*
X131220416Y-97748285D01*
X131218143Y-97720043D01*
X131214556Y-97675452D01*
X131214555Y-97675448D01*
X131214150Y-97670410D01*
X131206311Y-97638497D01*
X131203783Y-97625113D01*
X131200108Y-97597569D01*
X131199439Y-97592555D01*
X131176732Y-97517346D01*
X131174991Y-97510983D01*
X131164372Y-97467749D01*
X131156247Y-97434669D01*
X131143409Y-97404423D01*
X131138771Y-97391612D01*
X131130740Y-97365013D01*
X131129277Y-97360167D01*
X131127059Y-97355619D01*
X131127056Y-97355612D01*
X131094839Y-97289557D01*
X131092103Y-97283555D01*
X131063372Y-97215870D01*
X131061398Y-97211219D01*
X131043891Y-97183419D01*
X131037262Y-97171509D01*
X131025497Y-97147386D01*
X131022864Y-97141987D01*
X130977567Y-97077775D01*
X130973909Y-97072289D01*
X130934739Y-97010089D01*
X130934738Y-97010088D01*
X130932043Y-97005808D01*
X130928702Y-97002019D01*
X130928698Y-97002013D01*
X130910312Y-96981158D01*
X130901866Y-96970463D01*
X130885219Y-96946865D01*
X130882936Y-96943628D01*
X130872388Y-96932076D01*
X130864272Y-96923188D01*
X130864264Y-96923180D01*
X130863301Y-96922125D01*
X130823585Y-96882409D01*
X130818166Y-96876639D01*
X130774860Y-96827517D01*
X130774857Y-96827514D01*
X130771512Y-96823720D01*
X130756996Y-96811796D01*
X130739221Y-96797196D01*
X130730102Y-96788926D01*
X129892270Y-95951094D01*
X129858006Y-95887659D01*
X129854129Y-95869021D01*
X129854126Y-95869013D01*
X129852636Y-95861848D01*
X129827147Y-95807310D01*
X129780850Y-95708250D01*
X129780848Y-95708246D01*
X129777748Y-95701614D01*
X129668006Y-95562905D01*
X129660584Y-95557033D01*
X129534693Y-95457432D01*
X129534691Y-95457431D01*
X129529298Y-95453164D01*
X129434797Y-95407378D01*
X129431772Y-95406277D01*
X129431765Y-95406274D01*
X129325448Y-95367578D01*
X129279448Y-95338272D01*
X129241569Y-95300393D01*
X129239659Y-95298767D01*
X129239652Y-95298761D01*
X129107165Y-95186006D01*
X129107163Y-95186004D01*
X129103313Y-95182728D01*
X128895675Y-95056977D01*
X128670604Y-94966043D01*
X128625760Y-94955855D01*
X128438820Y-94913383D01*
X128438817Y-94913382D01*
X128433889Y-94912263D01*
X128428842Y-94911945D01*
X128428839Y-94911945D01*
X128208383Y-94898075D01*
X128191620Y-94897020D01*
X128150507Y-94901052D01*
X128094836Y-94906510D01*
X128039446Y-94899512D01*
X127933607Y-94860990D01*
X127933600Y-94860988D01*
X127930537Y-94859873D01*
X127927373Y-94859080D01*
X127927371Y-94859079D01*
X127891944Y-94850196D01*
X127827397Y-94834011D01*
X127820508Y-94833825D01*
X127820504Y-94833824D01*
X127685329Y-94830167D01*
X127650590Y-94829227D01*
X127477426Y-94865245D01*
X127409440Y-94897020D01*
X127323820Y-94937036D01*
X127323818Y-94937037D01*
X127317192Y-94940134D01*
X127178483Y-95049876D01*
X127068742Y-95188584D01*
X127065744Y-95194771D01*
X127065742Y-95194775D01*
X127026527Y-95275717D01*
X127022957Y-95283085D01*
X127021860Y-95286098D01*
X127021857Y-95286106D01*
X126874708Y-95690395D01*
X126847473Y-95765224D01*
X126842160Y-95779820D01*
X126842055Y-95780075D01*
X126841988Y-95780196D01*
X126841846Y-95780585D01*
X126841846Y-95780586D01*
X126761621Y-96001001D01*
X126758963Y-96008303D01*
X126758937Y-96008437D01*
X126758849Y-96008713D01*
X126616899Y-96398720D01*
X126578057Y-96505437D01*
X126552195Y-96608578D01*
X126552009Y-96615468D01*
X126552008Y-96615472D01*
X126549461Y-96709619D01*
X126547411Y-96785384D01*
X126583430Y-96958548D01*
X126629720Y-97057591D01*
X126636258Y-97071581D01*
X126646981Y-97141763D01*
X126618057Y-97206601D01*
X126558671Y-97245509D01*
X126522110Y-97250930D01*
X120589155Y-97250930D01*
X120521034Y-97230928D01*
X120500060Y-97214025D01*
X119059744Y-95773709D01*
X119052580Y-95765224D01*
X119052367Y-95765408D01*
X119048452Y-95760872D01*
X119044981Y-95755979D01*
X118976471Y-95690395D01*
X118974507Y-95688472D01*
X118946317Y-95660282D01*
X118940397Y-95655393D01*
X118933503Y-95649261D01*
X118893075Y-95610560D01*
X118893070Y-95610556D01*
X118888739Y-95606410D01*
X118884594Y-95603734D01*
X118874880Y-95595093D01*
X118812038Y-95532251D01*
X118803363Y-95526176D01*
X118694808Y-95450165D01*
X118631654Y-95405944D01*
X118626672Y-95403621D01*
X118626667Y-95403618D01*
X118491154Y-95340428D01*
X118437869Y-95293511D01*
X118418408Y-95225234D01*
X118438950Y-95157274D01*
X118455309Y-95137138D01*
X119049935Y-94542512D01*
X119112247Y-94508486D01*
X119139030Y-94505607D01*
X120556192Y-94505607D01*
X120624313Y-94525609D01*
X120645287Y-94542512D01*
X121889383Y-95786608D01*
X121918256Y-95831928D01*
X121919598Y-95837585D01*
X121937318Y-95872893D01*
X121995845Y-95989515D01*
X121995848Y-95989519D01*
X121998932Y-95995665D01*
X122003275Y-96001000D01*
X122003276Y-96001001D01*
X122045951Y-96053419D01*
X122065229Y-96077099D01*
X122226799Y-96238669D01*
X122242759Y-96258483D01*
X122244702Y-96262255D01*
X122259293Y-96280830D01*
X122374604Y-96427629D01*
X122374608Y-96427634D01*
X122378310Y-96432346D01*
X122382840Y-96436277D01*
X122382841Y-96436278D01*
X122537141Y-96570174D01*
X122537146Y-96570178D01*
X122541672Y-96574105D01*
X122546865Y-96577109D01*
X122576150Y-96594051D01*
X122602150Y-96614020D01*
X122772901Y-96784771D01*
X122783394Y-96793291D01*
X122850101Y-96847457D01*
X122850104Y-96847459D01*
X122855449Y-96851799D01*
X123013668Y-96930857D01*
X123020794Y-96932535D01*
X123020797Y-96932536D01*
X123178707Y-96969718D01*
X123178711Y-96969718D01*
X123185831Y-96971395D01*
X123193147Y-96971389D01*
X123193150Y-96971389D01*
X123274457Y-96971318D01*
X123362701Y-96971241D01*
X123479060Y-96943628D01*
X123527672Y-96932092D01*
X123527673Y-96932092D01*
X123534793Y-96930402D01*
X123552964Y-96921283D01*
X123686724Y-96854154D01*
X123692873Y-96851068D01*
X123730409Y-96820509D01*
X123771812Y-96786802D01*
X123771818Y-96786796D01*
X123774306Y-96784771D01*
X124340557Y-96218520D01*
X124361834Y-96192317D01*
X124403243Y-96141320D01*
X124403245Y-96141317D01*
X124407585Y-96135972D01*
X124486643Y-95977753D01*
X124492568Y-95952592D01*
X124525504Y-95812715D01*
X124525504Y-95812711D01*
X124527181Y-95805591D01*
X124527165Y-95786608D01*
X124527085Y-95695871D01*
X124527074Y-95683243D01*
X124547017Y-95615107D01*
X124600631Y-95568567D01*
X124652964Y-95557135D01*
X124672839Y-95557118D01*
X124776915Y-95557027D01*
X124894631Y-95529092D01*
X124941886Y-95517878D01*
X124941887Y-95517878D01*
X124949007Y-95516188D01*
X124992723Y-95494249D01*
X125100938Y-95439940D01*
X125107087Y-95436854D01*
X125121219Y-95425349D01*
X125186026Y-95372588D01*
X125186032Y-95372582D01*
X125188520Y-95370557D01*
X125754771Y-94804306D01*
X125774448Y-94780073D01*
X125817457Y-94727106D01*
X125817459Y-94727103D01*
X125821799Y-94721758D01*
X125900857Y-94563539D01*
X125907717Y-94534405D01*
X125939718Y-94398501D01*
X125939718Y-94398497D01*
X125941395Y-94391377D01*
X125941378Y-94370990D01*
X125941256Y-94231950D01*
X125941241Y-94214507D01*
X125908810Y-94077847D01*
X125902092Y-94049536D01*
X125902092Y-94049535D01*
X125900402Y-94042415D01*
X125890171Y-94022028D01*
X125824155Y-93890485D01*
X125824152Y-93890481D01*
X125821068Y-93884335D01*
X125793518Y-93850495D01*
X125756801Y-93805394D01*
X125756797Y-93805389D01*
X125754771Y-93802901D01*
X125728627Y-93776757D01*
X125701781Y-93736995D01*
X125688987Y-93706927D01*
X125684023Y-93693064D01*
X125682038Y-93686298D01*
X125674333Y-93660033D01*
X125645965Y-93604952D01*
X125642043Y-93596600D01*
X125640476Y-93592916D01*
X125623769Y-93553653D01*
X125620126Y-93545091D01*
X125620126Y-93545090D01*
X125617778Y-93539573D01*
X125598551Y-93511014D01*
X125591055Y-93498339D01*
X125578048Y-93473085D01*
X125575298Y-93467745D01*
X125537024Y-93419019D01*
X125531601Y-93411569D01*
X125499516Y-93363912D01*
X125499514Y-93363910D01*
X125496985Y-93360153D01*
X125493162Y-93355937D01*
X125471969Y-93334744D01*
X125461978Y-93323482D01*
X125451799Y-93310524D01*
X125441690Y-93297654D01*
X125393542Y-93255873D01*
X125387029Y-93249804D01*
X123897601Y-91760376D01*
X123863575Y-91698064D01*
X123868640Y-91627249D01*
X123897601Y-91582186D01*
X124486559Y-90993229D01*
X125163091Y-90316697D01*
X125270486Y-90188254D01*
X125328040Y-90087351D01*
X125348391Y-90060686D01*
X125370557Y-90038520D01*
X125390234Y-90014287D01*
X125433243Y-89961320D01*
X125433245Y-89961317D01*
X125437585Y-89955972D01*
X125458632Y-89913851D01*
X125470315Y-89890470D01*
X125518656Y-89838474D01*
X125587435Y-89820867D01*
X125654814Y-89843240D01*
X125672122Y-89857695D01*
X126425050Y-90610623D01*
X126435918Y-90623015D01*
X126446040Y-90636207D01*
X126446047Y-90636215D01*
X126449455Y-90640656D01*
X126509404Y-90695205D01*
X126509763Y-90695532D01*
X126514058Y-90699631D01*
X126529989Y-90715562D01*
X126550005Y-90732298D01*
X126553954Y-90735743D01*
X126611457Y-90788067D01*
X126611461Y-90788070D01*
X126615614Y-90791849D01*
X126620369Y-90794832D01*
X126620372Y-90794834D01*
X126630802Y-90801376D01*
X126644675Y-90811455D01*
X126654123Y-90819356D01*
X126654130Y-90819361D01*
X126658432Y-90822958D01*
X126730019Y-90863790D01*
X126730818Y-90864246D01*
X126735346Y-90866956D01*
X126801174Y-90908250D01*
X126801177Y-90908252D01*
X126805922Y-90911228D01*
X126811127Y-90913321D01*
X126811130Y-90913322D01*
X126822557Y-90917916D01*
X126837989Y-90925376D01*
X126848697Y-90931484D01*
X126848706Y-90931488D01*
X126853571Y-90934263D01*
X126858848Y-90936132D01*
X126858853Y-90936134D01*
X126932120Y-90962079D01*
X126937056Y-90963944D01*
X127014361Y-90995020D01*
X127019848Y-90996156D01*
X127019850Y-90996157D01*
X127031927Y-90998658D01*
X127048422Y-91003263D01*
X127065337Y-91009253D01*
X127147588Y-91022723D01*
X127152758Y-91023681D01*
X127234345Y-91040577D01*
X127238957Y-91040843D01*
X127238958Y-91040843D01*
X127262126Y-91042179D01*
X127275231Y-91043626D01*
X127281488Y-91044650D01*
X127281492Y-91044650D01*
X127287035Y-91045558D01*
X127292648Y-91045470D01*
X127292650Y-91045470D01*
X127393842Y-91043880D01*
X127395821Y-91043864D01*
X130092771Y-91043864D01*
X130135865Y-91051463D01*
X130359994Y-91133039D01*
X130362549Y-91133731D01*
X130362556Y-91133733D01*
X130521299Y-91176714D01*
X130521301Y-91176714D01*
X130526448Y-91178108D01*
X130755952Y-91200004D01*
X130761268Y-91199609D01*
X130761270Y-91199609D01*
X130870907Y-91191462D01*
X130985863Y-91182919D01*
X131010843Y-91176714D01*
X131204426Y-91128628D01*
X131204429Y-91128627D01*
X131209610Y-91127340D01*
X131259650Y-91105426D01*
X131415898Y-91037000D01*
X131415901Y-91036998D01*
X131420793Y-91034856D01*
X131613375Y-90908114D01*
X131781848Y-90750734D01*
X131833180Y-90683229D01*
X131918164Y-90571471D01*
X131918167Y-90571467D01*
X131921396Y-90567220D01*
X132028028Y-90362816D01*
X132037281Y-90334083D01*
X132097062Y-90148442D01*
X132097063Y-90148439D01*
X132098696Y-90143367D01*
X132131380Y-89915150D01*
X132129826Y-89857695D01*
X132127073Y-89755979D01*
X132125144Y-89684688D01*
X132123414Y-89675987D01*
X132081206Y-89463800D01*
X132081205Y-89463797D01*
X132080166Y-89458573D01*
X132077495Y-89451594D01*
X131999643Y-89248252D01*
X131999641Y-89248248D01*
X131997734Y-89243267D01*
X131974235Y-89203612D01*
X131956716Y-89134814D01*
X131979173Y-89067463D01*
X132034478Y-89022945D01*
X132056972Y-89016020D01*
X132224932Y-88981085D01*
X132350051Y-88922608D01*
X132378538Y-88909294D01*
X132378540Y-88909293D01*
X132385166Y-88906196D01*
X132523875Y-88796454D01*
X132633616Y-88657746D01*
X132636614Y-88651559D01*
X132636616Y-88651555D01*
X132677998Y-88566141D01*
X132677999Y-88566140D01*
X132679401Y-88563245D01*
X132688749Y-88537563D01*
X133100499Y-87406289D01*
X133124301Y-87340893D01*
X133150163Y-87237752D01*
X133150622Y-87220817D01*
X133154749Y-87068260D01*
X133154947Y-87060946D01*
X133118928Y-86887782D01*
X133115830Y-86881153D01*
X133115829Y-86881150D01*
X133047142Y-86734184D01*
X133047140Y-86734180D01*
X133044040Y-86727548D01*
X132934298Y-86588839D01*
X132878364Y-86544586D01*
X132800985Y-86483366D01*
X132800983Y-86483365D01*
X132795590Y-86479098D01*
X132722342Y-86443609D01*
X132703981Y-86434713D01*
X132703978Y-86434712D01*
X132701089Y-86433312D01*
X131196829Y-85885807D01*
X131193665Y-85885014D01*
X131193663Y-85885013D01*
X131115970Y-85865532D01*
X131093689Y-85859945D01*
X131086800Y-85859759D01*
X131086796Y-85859758D01*
X130951621Y-85856101D01*
X130916882Y-85855161D01*
X130743718Y-85891179D01*
X130656186Y-85932089D01*
X130590112Y-85962970D01*
X130590110Y-85962971D01*
X130583484Y-85966068D01*
X130444775Y-86075810D01*
X130335034Y-86214518D01*
X130332034Y-86220711D01*
X130326771Y-86231572D01*
X130279068Y-86284155D01*
X130213380Y-86302632D01*
X128957833Y-86302632D01*
X128889712Y-86282630D01*
X128868738Y-86265727D01*
X121746376Y-79143365D01*
X121712350Y-79081053D01*
X121717415Y-79010238D01*
X121759962Y-78953402D01*
X121826482Y-78928591D01*
X121895856Y-78943682D01*
X121905473Y-78949505D01*
X121944777Y-78975767D01*
X121948476Y-78977591D01*
X121948481Y-78977594D01*
X122078697Y-79041809D01*
X122210305Y-79106711D01*
X122214210Y-79108036D01*
X122214211Y-79108037D01*
X122486740Y-79200548D01*
X122486744Y-79200549D01*
X122490653Y-79201876D01*
X122494697Y-79202680D01*
X122494703Y-79202682D01*
X122776985Y-79258832D01*
X122776991Y-79258833D01*
X122781024Y-79259635D01*
X122785129Y-79259904D01*
X122785136Y-79259905D01*
X123072331Y-79278728D01*
X123076450Y-79278998D01*
X123080569Y-79278728D01*
X123367764Y-79259905D01*
X123367771Y-79259904D01*
X123371876Y-79259635D01*
X123375909Y-79258833D01*
X123375915Y-79258832D01*
X123658197Y-79202682D01*
X123658203Y-79202680D01*
X123662247Y-79201876D01*
X123666156Y-79200549D01*
X123666160Y-79200548D01*
X123938689Y-79108037D01*
X123938690Y-79108036D01*
X123942595Y-79106711D01*
X124074203Y-79041809D01*
X124204419Y-78977594D01*
X124204424Y-78977591D01*
X124208123Y-78975767D01*
X124245357Y-78950888D01*
X132343227Y-78950888D01*
X132343322Y-78954517D01*
X132343322Y-78954519D01*
X132344068Y-78982990D01*
X132344068Y-78982992D01*
X132350734Y-79237551D01*
X132352309Y-79297718D01*
X132401195Y-79641207D01*
X132489236Y-79976800D01*
X132615266Y-80300050D01*
X132616963Y-80303255D01*
X132752598Y-80559425D01*
X132777614Y-80606673D01*
X132779664Y-80609656D01*
X132779666Y-80609659D01*
X132972072Y-80889611D01*
X132972078Y-80889618D01*
X132974129Y-80892603D01*
X133111598Y-81050187D01*
X133186107Y-81135598D01*
X133202205Y-81154052D01*
X133204890Y-81156495D01*
X133414607Y-81347322D01*
X133458820Y-81387553D01*
X133740572Y-81590013D01*
X134043727Y-81758747D01*
X134364267Y-81891519D01*
X134367761Y-81892514D01*
X134367763Y-81892515D01*
X134694442Y-81985572D01*
X134694447Y-81985573D01*
X134697943Y-81986569D01*
X134878841Y-82016192D01*
X135036751Y-82042051D01*
X135036758Y-82042052D01*
X135040332Y-82042637D01*
X135213615Y-82050809D01*
X135383270Y-82058810D01*
X135383271Y-82058810D01*
X135386897Y-82058981D01*
X135395754Y-82058377D01*
X135729412Y-82035631D01*
X135729420Y-82035630D01*
X135733043Y-82035383D01*
X135736618Y-82034720D01*
X135736621Y-82034720D01*
X136070618Y-81972817D01*
X136070622Y-81972816D01*
X136074183Y-81972156D01*
X136364828Y-81882742D01*
X136402317Y-81871209D01*
X136405795Y-81870139D01*
X136723484Y-81730683D01*
X136798664Y-81686752D01*
X137019899Y-81557473D01*
X137019901Y-81557472D01*
X137023039Y-81555638D01*
X137025948Y-81553454D01*
X137297583Y-81349505D01*
X137297587Y-81349502D01*
X137300490Y-81347322D01*
X137552158Y-81108497D01*
X137774709Y-80842330D01*
X137965192Y-80552346D01*
X138054227Y-80375319D01*
X138119456Y-80245627D01*
X138119459Y-80245619D01*
X138121083Y-80242391D01*
X138122328Y-80238989D01*
X138239068Y-79919984D01*
X138239069Y-79919980D01*
X138240316Y-79916573D01*
X138241161Y-79913051D01*
X138241164Y-79913043D01*
X138320463Y-79582738D01*
X138320464Y-79582734D01*
X138321310Y-79579209D01*
X138321747Y-79575599D01*
X138362655Y-79237551D01*
X138362655Y-79237544D01*
X138362991Y-79234772D01*
X138363344Y-79223564D01*
X138368850Y-79048344D01*
X138368938Y-79045547D01*
X138368777Y-79042751D01*
X138349175Y-78702793D01*
X138349174Y-78702788D01*
X138348966Y-78699173D01*
X138331588Y-78599600D01*
X138289939Y-78360962D01*
X138289937Y-78360955D01*
X138289315Y-78357389D01*
X138285861Y-78345726D01*
X138248821Y-78220684D01*
X138190776Y-78024727D01*
X138185693Y-78012810D01*
X138056079Y-77708933D01*
X138056077Y-77708930D01*
X138054655Y-77705595D01*
X138039468Y-77678968D01*
X137884547Y-77407363D01*
X137882756Y-77404223D01*
X137677357Y-77124607D01*
X137441181Y-76870451D01*
X137177358Y-76645125D01*
X136889386Y-76451616D01*
X136581080Y-76292487D01*
X136256528Y-76169849D01*
X136253007Y-76168965D01*
X136253002Y-76168963D01*
X136091717Y-76128451D01*
X135920031Y-76085327D01*
X135897815Y-76082402D01*
X135579654Y-76040515D01*
X135579646Y-76040514D01*
X135576050Y-76040041D01*
X135431384Y-76037768D01*
X135232785Y-76034648D01*
X135232781Y-76034648D01*
X135229143Y-76034591D01*
X135225529Y-76034952D01*
X135225523Y-76034952D01*
X135000576Y-76057405D01*
X134883908Y-76069050D01*
X134544922Y-76142961D01*
X134541495Y-76144134D01*
X134541489Y-76144136D01*
X134462635Y-76171134D01*
X134216678Y-76255344D01*
X133903527Y-76404710D01*
X133609618Y-76589079D01*
X133606782Y-76591351D01*
X133606775Y-76591356D01*
X133362723Y-76786879D01*
X133338848Y-76806006D01*
X133336297Y-76808584D01*
X133116124Y-77031075D01*
X133094805Y-77052618D01*
X133092564Y-77055476D01*
X132920698Y-77274666D01*
X132880725Y-77325645D01*
X132878832Y-77328734D01*
X132878830Y-77328737D01*
X132832955Y-77403598D01*
X132699444Y-77621468D01*
X132697919Y-77624753D01*
X132697917Y-77624757D01*
X132640785Y-77747839D01*
X132553366Y-77936167D01*
X132502750Y-78089216D01*
X132474164Y-78175652D01*
X132444426Y-78265570D01*
X132443690Y-78269125D01*
X132443689Y-78269128D01*
X132391552Y-78520888D01*
X132374069Y-78605311D01*
X132366011Y-78695604D01*
X132346575Y-78913379D01*
X132343227Y-78950888D01*
X124245357Y-78950888D01*
X124354566Y-78877917D01*
X124450857Y-78813578D01*
X124450862Y-78813574D01*
X124454288Y-78811285D01*
X124457382Y-78808571D01*
X124457388Y-78808567D01*
X124673788Y-78618788D01*
X124676877Y-78616079D01*
X124778069Y-78500692D01*
X124869365Y-78396590D01*
X124869369Y-78396584D01*
X124872083Y-78393490D01*
X124887584Y-78370292D01*
X125013476Y-78181880D01*
X125036565Y-78147325D01*
X125049596Y-78120902D01*
X125130860Y-77956114D01*
X125167509Y-77881797D01*
X125189480Y-77817072D01*
X125261346Y-77605362D01*
X125261347Y-77605358D01*
X125262674Y-77601449D01*
X125267811Y-77575624D01*
X125319630Y-77315117D01*
X125319631Y-77315111D01*
X125320433Y-77311078D01*
X125322412Y-77280892D01*
X125339526Y-77019771D01*
X125339796Y-77015652D01*
X125336619Y-76967180D01*
X125320703Y-76724338D01*
X125320702Y-76724331D01*
X125320433Y-76720226D01*
X125305495Y-76645125D01*
X125263480Y-76433905D01*
X125263478Y-76433899D01*
X125262674Y-76429855D01*
X125254795Y-76406642D01*
X125168835Y-76153413D01*
X125168834Y-76153412D01*
X125167509Y-76149507D01*
X125036565Y-75883979D01*
X124977499Y-75795581D01*
X124874376Y-75641245D01*
X124874372Y-75641240D01*
X124872083Y-75637814D01*
X124869369Y-75634720D01*
X124869365Y-75634714D01*
X124679586Y-75418314D01*
X124676877Y-75415225D01*
X124673788Y-75412516D01*
X124457388Y-75222737D01*
X124457382Y-75222733D01*
X124454288Y-75220019D01*
X124450862Y-75217730D01*
X124450857Y-75217726D01*
X124211556Y-75057831D01*
X124208123Y-75055537D01*
X124204424Y-75053713D01*
X124204419Y-75053710D01*
X124068137Y-74986504D01*
X123942595Y-74924593D01*
X123676644Y-74834315D01*
X123666160Y-74830756D01*
X123666156Y-74830755D01*
X123662247Y-74829428D01*
X123658203Y-74828624D01*
X123658197Y-74828622D01*
X123375915Y-74772472D01*
X123375909Y-74772471D01*
X123371876Y-74771669D01*
X123367771Y-74771400D01*
X123367764Y-74771399D01*
X123080569Y-74752576D01*
X123076450Y-74752306D01*
X123072331Y-74752576D01*
X122785136Y-74771399D01*
X122785129Y-74771400D01*
X122781024Y-74771669D01*
X122776991Y-74772471D01*
X122776985Y-74772472D01*
X122494703Y-74828622D01*
X122494697Y-74828624D01*
X122490653Y-74829428D01*
X122486744Y-74830755D01*
X122486740Y-74830756D01*
X122476256Y-74834315D01*
X122210305Y-74924593D01*
X122084763Y-74986504D01*
X121948481Y-75053710D01*
X121948476Y-75053713D01*
X121944777Y-75055537D01*
X121941344Y-75057831D01*
X121702043Y-75217726D01*
X121702038Y-75217730D01*
X121698612Y-75220019D01*
X121695518Y-75222733D01*
X121695512Y-75222737D01*
X121479112Y-75412516D01*
X121476023Y-75415225D01*
X121473314Y-75418314D01*
X121283535Y-75634714D01*
X121283531Y-75634720D01*
X121280817Y-75637814D01*
X121278528Y-75641240D01*
X121278524Y-75641245D01*
X121175401Y-75795581D01*
X121116335Y-75883979D01*
X120985391Y-76149507D01*
X120984066Y-76153412D01*
X120984065Y-76153413D01*
X120898106Y-76406642D01*
X120890226Y-76429855D01*
X120889422Y-76433899D01*
X120889420Y-76433905D01*
X120847406Y-76645125D01*
X120832467Y-76720226D01*
X120832198Y-76724331D01*
X120832197Y-76724338D01*
X120816281Y-76967180D01*
X120813104Y-77015652D01*
X120813374Y-77019771D01*
X120830489Y-77280892D01*
X120832467Y-77311078D01*
X120833269Y-77315111D01*
X120833270Y-77315117D01*
X120885089Y-77575624D01*
X120890226Y-77601449D01*
X120891553Y-77605358D01*
X120891554Y-77605362D01*
X120963420Y-77817072D01*
X120985391Y-77881797D01*
X121022040Y-77956114D01*
X121103305Y-78120902D01*
X121116335Y-78147325D01*
X121118629Y-78150758D01*
X121142597Y-78186629D01*
X121163812Y-78254382D01*
X121145029Y-78322849D01*
X121092212Y-78370292D01*
X121022129Y-78381649D01*
X120957032Y-78353313D01*
X120948737Y-78345726D01*
X112876720Y-70273709D01*
X112869556Y-70265224D01*
X112869343Y-70265408D01*
X112865428Y-70260872D01*
X112861957Y-70255979D01*
X112793447Y-70190395D01*
X112791483Y-70188472D01*
X112763293Y-70160282D01*
X112757373Y-70155393D01*
X112750479Y-70149261D01*
X112710054Y-70110563D01*
X112710050Y-70110560D01*
X112705715Y-70106410D01*
X112700676Y-70103157D01*
X112700673Y-70103154D01*
X112676800Y-70087740D01*
X112664916Y-70079042D01*
X112642997Y-70060941D01*
X112642998Y-70060941D01*
X112638375Y-70057124D01*
X112583981Y-70027406D01*
X112576061Y-70022693D01*
X112529054Y-69992341D01*
X112529050Y-69992339D01*
X112524009Y-69989084D01*
X112492080Y-69976216D01*
X112478778Y-69969928D01*
X112453829Y-69956297D01*
X112448565Y-69953421D01*
X112442860Y-69951595D01*
X112442858Y-69951594D01*
X112410039Y-69941089D01*
X112389545Y-69934529D01*
X112380865Y-69931395D01*
X112328959Y-69910476D01*
X112323396Y-69908234D01*
X112317510Y-69907084D01*
X112317508Y-69907084D01*
X112289615Y-69901637D01*
X112275351Y-69897975D01*
X112248273Y-69889307D01*
X112248271Y-69889307D01*
X112242568Y-69887481D01*
X112236619Y-69886766D01*
X112236613Y-69886765D01*
X112181045Y-69880089D01*
X112171925Y-69878653D01*
X112122440Y-69868990D01*
X112111113Y-69866778D01*
X112105429Y-69866500D01*
X112075455Y-69866500D01*
X112060427Y-69865601D01*
X112033767Y-69862398D01*
X112033763Y-69862398D01*
X112027820Y-69861684D01*
X112021844Y-69862107D01*
X112021841Y-69862107D01*
X111964249Y-69866185D01*
X111955350Y-69866500D01*
X101706564Y-69866500D01*
X101638443Y-69846498D01*
X101591950Y-69792842D01*
X101581846Y-69722568D01*
X101611832Y-69657422D01*
X101792915Y-69450938D01*
X101792919Y-69450932D01*
X101795633Y-69447838D01*
X101960115Y-69201673D01*
X102091059Y-68936145D01*
X102186224Y-68655797D01*
X102243983Y-68365426D01*
X102263346Y-68070000D01*
X102252198Y-67899915D01*
X102244253Y-67778686D01*
X102244252Y-67778679D01*
X102243983Y-67774574D01*
X102239171Y-67750379D01*
X102187030Y-67488253D01*
X102187028Y-67488247D01*
X102186224Y-67484203D01*
X102162225Y-67413502D01*
X102092385Y-67207761D01*
X102092384Y-67207760D01*
X102091059Y-67203855D01*
X101973940Y-66966361D01*
X101961942Y-66942031D01*
X101961939Y-66942026D01*
X101960115Y-66938327D01*
X101894339Y-66839886D01*
X101797926Y-66695593D01*
X101797922Y-66695588D01*
X101795633Y-66692162D01*
X101792919Y-66689068D01*
X101792915Y-66689062D01*
X101603136Y-66472662D01*
X101600427Y-66469573D01*
X101529047Y-66406974D01*
X101380938Y-66277085D01*
X101380932Y-66277081D01*
X101377838Y-66274367D01*
X101374412Y-66272078D01*
X101374407Y-66272074D01*
X101135106Y-66112179D01*
X101131673Y-66109885D01*
X101127974Y-66108061D01*
X101127969Y-66108058D01*
X100991687Y-66040852D01*
X100866145Y-65978941D01*
X100862239Y-65977615D01*
X100589710Y-65885104D01*
X100589706Y-65885103D01*
X100585797Y-65883776D01*
X100581753Y-65882972D01*
X100581747Y-65882970D01*
X100299465Y-65826820D01*
X100299459Y-65826819D01*
X100295426Y-65826017D01*
X100291321Y-65825748D01*
X100291314Y-65825747D01*
X100004119Y-65806924D01*
X100000000Y-65806654D01*
X99995881Y-65806924D01*
X99708686Y-65825747D01*
X99708679Y-65825748D01*
X99704574Y-65826017D01*
X99700541Y-65826819D01*
X99700535Y-65826820D01*
X99418253Y-65882970D01*
X99418247Y-65882972D01*
X99414203Y-65883776D01*
X99410294Y-65885103D01*
X99410290Y-65885104D01*
X99137761Y-65977615D01*
X99133855Y-65978941D01*
X99008313Y-66040852D01*
X98872031Y-66108058D01*
X98872026Y-66108061D01*
X98868327Y-66109885D01*
X98864894Y-66112179D01*
X98625593Y-66272074D01*
X98625588Y-66272078D01*
X98622162Y-66274367D01*
X98619068Y-66277081D01*
X98619062Y-66277085D01*
X98470953Y-66406974D01*
X98399573Y-66469573D01*
X98396864Y-66472662D01*
X98207085Y-66689062D01*
X98207081Y-66689068D01*
X98204367Y-66692162D01*
X98202078Y-66695588D01*
X98202074Y-66695593D01*
X98105661Y-66839886D01*
X98039885Y-66938327D01*
X98038061Y-66942026D01*
X98038058Y-66942031D01*
X98026060Y-66966361D01*
X97908941Y-67203855D01*
X97907616Y-67207760D01*
X97907615Y-67207761D01*
X97837776Y-67413502D01*
X97813776Y-67484203D01*
X97812972Y-67488247D01*
X97812970Y-67488253D01*
X97760830Y-67750379D01*
X97756017Y-67774574D01*
X97755748Y-67778679D01*
X97755747Y-67778686D01*
X97747802Y-67899915D01*
X97736654Y-68070000D01*
X97756017Y-68365426D01*
X97813776Y-68655797D01*
X97908941Y-68936145D01*
X98039885Y-69201673D01*
X98204367Y-69447838D01*
X98207081Y-69450932D01*
X98207085Y-69450938D01*
X98388168Y-69657422D01*
X98418045Y-69721826D01*
X98408359Y-69792159D01*
X98362186Y-69846091D01*
X98293436Y-69866500D01*
X87606367Y-69866500D01*
X87595306Y-69865567D01*
X87595285Y-69865847D01*
X87589312Y-69865408D01*
X87583393Y-69864402D01*
X87488630Y-69866470D01*
X87485881Y-69866500D01*
X87445959Y-69866500D01*
X87438295Y-69867231D01*
X87429099Y-69867769D01*
X87393435Y-69868547D01*
X87373148Y-69868990D01*
X87373147Y-69868990D01*
X87367152Y-69869121D01*
X87333506Y-69876365D01*
X87318956Y-69878617D01*
X87298490Y-69880570D01*
X87284685Y-69881887D01*
X87278925Y-69883577D01*
X87278924Y-69883577D01*
X87225232Y-69899329D01*
X87216283Y-69901603D01*
X87155705Y-69914644D01*
X87150186Y-69916992D01*
X87150184Y-69916993D01*
X87124034Y-69928120D01*
X87110173Y-69933083D01*
X87077140Y-69942774D01*
X87022059Y-69971142D01*
X87013714Y-69975061D01*
X86956680Y-69999329D01*
X86951703Y-70002680D01*
X86928121Y-70018556D01*
X86915446Y-70026052D01*
X86884852Y-70041809D01*
X86836126Y-70080083D01*
X86828676Y-70085506D01*
X86777260Y-70120122D01*
X86773044Y-70123945D01*
X86751851Y-70145138D01*
X86740590Y-70155128D01*
X86714761Y-70175417D01*
X86710830Y-70179947D01*
X86710829Y-70179948D01*
X86672981Y-70223564D01*
X86666911Y-70230078D01*
X79449458Y-77447531D01*
X79387146Y-77481557D01*
X79316331Y-77476492D01*
X79259495Y-77433945D01*
X79234684Y-77367425D01*
X79236784Y-77333854D01*
X79258832Y-77223015D01*
X79258833Y-77223009D01*
X79259635Y-77218976D01*
X79261621Y-77188685D01*
X79278728Y-76927669D01*
X79278998Y-76923550D01*
X79260904Y-76647479D01*
X79259905Y-76632236D01*
X79259904Y-76632229D01*
X79259635Y-76628124D01*
X79252322Y-76591356D01*
X79202682Y-76341803D01*
X79202680Y-76341797D01*
X79201876Y-76337753D01*
X79187075Y-76294149D01*
X79108037Y-76061311D01*
X79108036Y-76061310D01*
X79106711Y-76057405D01*
X78975767Y-75791877D01*
X78811285Y-75545712D01*
X78808571Y-75542618D01*
X78808567Y-75542612D01*
X78618788Y-75326212D01*
X78616079Y-75323123D01*
X78498512Y-75220019D01*
X78396590Y-75130635D01*
X78396584Y-75130631D01*
X78393490Y-75127917D01*
X78390064Y-75125628D01*
X78390059Y-75125624D01*
X78150758Y-74965729D01*
X78147325Y-74963435D01*
X78143626Y-74961611D01*
X78143621Y-74961608D01*
X78007339Y-74894402D01*
X77881797Y-74832491D01*
X77872774Y-74829428D01*
X77605362Y-74738654D01*
X77605358Y-74738653D01*
X77601449Y-74737326D01*
X77597405Y-74736522D01*
X77597399Y-74736520D01*
X77315117Y-74680370D01*
X77315111Y-74680369D01*
X77311078Y-74679567D01*
X77306973Y-74679298D01*
X77306966Y-74679297D01*
X77019771Y-74660474D01*
X77015652Y-74660204D01*
X77011533Y-74660474D01*
X76724338Y-74679297D01*
X76724331Y-74679298D01*
X76720226Y-74679567D01*
X76716193Y-74680369D01*
X76716187Y-74680370D01*
X76433905Y-74736520D01*
X76433899Y-74736522D01*
X76429855Y-74737326D01*
X76425946Y-74738653D01*
X76425942Y-74738654D01*
X76158530Y-74829428D01*
X76149507Y-74832491D01*
X76023965Y-74894402D01*
X75887683Y-74961608D01*
X75887678Y-74961611D01*
X75883979Y-74963435D01*
X75880546Y-74965729D01*
X75641245Y-75125624D01*
X75641240Y-75125628D01*
X75637814Y-75127917D01*
X75634720Y-75130631D01*
X75634714Y-75130635D01*
X75532792Y-75220019D01*
X75415225Y-75323123D01*
X75412516Y-75326212D01*
X75222737Y-75542612D01*
X75222733Y-75542618D01*
X75220019Y-75545712D01*
X75055537Y-75791877D01*
X74924593Y-76057405D01*
X74923268Y-76061310D01*
X74923267Y-76061311D01*
X74844230Y-76294149D01*
X74829428Y-76337753D01*
X74828624Y-76341797D01*
X74828622Y-76341803D01*
X74778983Y-76591356D01*
X74771669Y-76628124D01*
X74771400Y-76632229D01*
X74771399Y-76632236D01*
X74770400Y-76647479D01*
X74752306Y-76923550D01*
X74752576Y-76927669D01*
X74769684Y-77188685D01*
X74771669Y-77218976D01*
X74772471Y-77223009D01*
X74772472Y-77223015D01*
X74828622Y-77505297D01*
X74829428Y-77509347D01*
X74830755Y-77513256D01*
X74830756Y-77513260D01*
X74920748Y-77778369D01*
X74924593Y-77789695D01*
X74970013Y-77881797D01*
X75049742Y-78043471D01*
X75055537Y-78055223D01*
X75057831Y-78058656D01*
X75198464Y-78269128D01*
X75220019Y-78301388D01*
X75222733Y-78304482D01*
X75222737Y-78304488D01*
X75412516Y-78520888D01*
X75415225Y-78523977D01*
X75507969Y-78605311D01*
X75554101Y-78645768D01*
X75592128Y-78705722D01*
X75591706Y-78776717D01*
X75552967Y-78836214D01*
X75488212Y-78865322D01*
X75471023Y-78866500D01*
X71606367Y-78866500D01*
X71595306Y-78865567D01*
X71595285Y-78865847D01*
X71589312Y-78865408D01*
X71583393Y-78864402D01*
X71488630Y-78866470D01*
X71485881Y-78866500D01*
X71445959Y-78866500D01*
X71438295Y-78867231D01*
X71429099Y-78867769D01*
X71387295Y-78868681D01*
X71373150Y-78868990D01*
X71373149Y-78868990D01*
X71367152Y-78869121D01*
X71361292Y-78870383D01*
X71361289Y-78870383D01*
X71333500Y-78876366D01*
X71318948Y-78878618D01*
X71313927Y-78879097D01*
X71284685Y-78881887D01*
X71225231Y-78899329D01*
X71216286Y-78901600D01*
X71161577Y-78913379D01*
X71161571Y-78913381D01*
X71155704Y-78914644D01*
X71124020Y-78928125D01*
X71110185Y-78933079D01*
X71077140Y-78942774D01*
X71071806Y-78945521D01*
X71071804Y-78945522D01*
X71022055Y-78971145D01*
X71013695Y-78975070D01*
X70995082Y-78982990D01*
X70956680Y-78999330D01*
X70928131Y-79018551D01*
X70915453Y-79026049D01*
X70884852Y-79041809D01*
X70880138Y-79045512D01*
X70880130Y-79045517D01*
X70836119Y-79080088D01*
X70828657Y-79085520D01*
X70777260Y-79120123D01*
X70773044Y-79123945D01*
X70751851Y-79145138D01*
X70740590Y-79155128D01*
X70714761Y-79175417D01*
X70710830Y-79179947D01*
X70710829Y-79179948D01*
X70672981Y-79223564D01*
X70666911Y-79230078D01*
X64773709Y-85123280D01*
X64765224Y-85130444D01*
X64765408Y-85130657D01*
X64760872Y-85134572D01*
X64755979Y-85138043D01*
X64751833Y-85142374D01*
X64690395Y-85206553D01*
X64688472Y-85208517D01*
X64660282Y-85236707D01*
X64658373Y-85239019D01*
X64658370Y-85239022D01*
X64655396Y-85242624D01*
X64649261Y-85249521D01*
X64610563Y-85289946D01*
X64610560Y-85289950D01*
X64606410Y-85294285D01*
X64603157Y-85299324D01*
X64603154Y-85299327D01*
X64587740Y-85323200D01*
X64579042Y-85335083D01*
X64557124Y-85361625D01*
X64527406Y-85416019D01*
X64522693Y-85423939D01*
X64492341Y-85470946D01*
X64492339Y-85470950D01*
X64489084Y-85475991D01*
X64476216Y-85507920D01*
X64469928Y-85521222D01*
X64453421Y-85551435D01*
X64451595Y-85557140D01*
X64451594Y-85557142D01*
X64434531Y-85610449D01*
X64431395Y-85619135D01*
X64408234Y-85676604D01*
X64407084Y-85682490D01*
X64407084Y-85682492D01*
X64401637Y-85710385D01*
X64397975Y-85724648D01*
X64387481Y-85757432D01*
X64386766Y-85763381D01*
X64386765Y-85763387D01*
X64380089Y-85818955D01*
X64378653Y-85828075D01*
X64373364Y-85855161D01*
X64366778Y-85888887D01*
X64366500Y-85894571D01*
X64366500Y-85924545D01*
X64365601Y-85939573D01*
X64362424Y-85966024D01*
X64361684Y-85972180D01*
X64362107Y-85978156D01*
X64362107Y-85978159D01*
X64366185Y-86035751D01*
X64366500Y-86044650D01*
X64366500Y-88893633D01*
X64365567Y-88904694D01*
X64365847Y-88904715D01*
X64365408Y-88910688D01*
X64364402Y-88916607D01*
X64364533Y-88922608D01*
X64366470Y-89011370D01*
X64366500Y-89014119D01*
X64366500Y-89054041D01*
X64367231Y-89061705D01*
X64367769Y-89070901D01*
X64367944Y-89078924D01*
X64368828Y-89119406D01*
X64369121Y-89132848D01*
X64376365Y-89166494D01*
X64378617Y-89181044D01*
X64381887Y-89215315D01*
X64383577Y-89221075D01*
X64383577Y-89221076D01*
X64399329Y-89274768D01*
X64401603Y-89283717D01*
X64414644Y-89344295D01*
X64416992Y-89349814D01*
X64416993Y-89349816D01*
X64428120Y-89375966D01*
X64433083Y-89389827D01*
X64442774Y-89422860D01*
X64470258Y-89476223D01*
X64471139Y-89477934D01*
X64475061Y-89486286D01*
X64499329Y-89543320D01*
X64511192Y-89560941D01*
X64518556Y-89571879D01*
X64526052Y-89584554D01*
X64541809Y-89615148D01*
X64580083Y-89663874D01*
X64585506Y-89671324D01*
X64612592Y-89711555D01*
X64620122Y-89722740D01*
X64623945Y-89726956D01*
X64645138Y-89748149D01*
X64655128Y-89759410D01*
X64675417Y-89785239D01*
X64679947Y-89789170D01*
X64679948Y-89789171D01*
X64723564Y-89827019D01*
X64730078Y-89833089D01*
X65514484Y-90617495D01*
X65521648Y-90625980D01*
X65521861Y-90625796D01*
X65525776Y-90630332D01*
X65529247Y-90635225D01*
X65533578Y-90639371D01*
X65597757Y-90700809D01*
X65599721Y-90702732D01*
X65627911Y-90730922D01*
X65630223Y-90732831D01*
X65630226Y-90732834D01*
X65633828Y-90735808D01*
X65640725Y-90741943D01*
X65681150Y-90780641D01*
X65681154Y-90780644D01*
X65685489Y-90784794D01*
X65711170Y-90801376D01*
X65714401Y-90803462D01*
X65726285Y-90812159D01*
X65752830Y-90834080D01*
X65807209Y-90863790D01*
X65815128Y-90868501D01*
X65867195Y-90902120D01*
X65899132Y-90914991D01*
X65912428Y-90921277D01*
X65942640Y-90937783D01*
X65948356Y-90939613D01*
X65948359Y-90939614D01*
X66001650Y-90956672D01*
X66010337Y-90959808D01*
X66020600Y-90963944D01*
X66067808Y-90982970D01*
X66073686Y-90984118D01*
X66073690Y-90984119D01*
X66091886Y-90987672D01*
X66101589Y-90989567D01*
X66115851Y-90993229D01*
X66142916Y-91001893D01*
X66142926Y-91001895D01*
X66148636Y-91003723D01*
X66154592Y-91004439D01*
X66154599Y-91004440D01*
X66210159Y-91011115D01*
X66219279Y-91012551D01*
X66262639Y-91021018D01*
X66280091Y-91024426D01*
X66285775Y-91024704D01*
X66315749Y-91024704D01*
X66330777Y-91025603D01*
X66357437Y-91028806D01*
X66357441Y-91028806D01*
X66363384Y-91029520D01*
X66369360Y-91029097D01*
X66369363Y-91029097D01*
X66426959Y-91025019D01*
X66435857Y-91024704D01*
X67115500Y-91024704D01*
X67183621Y-91044706D01*
X67230114Y-91098362D01*
X67241500Y-91150704D01*
X67241500Y-103945103D01*
X67241297Y-103952246D01*
X67237103Y-104026100D01*
X67237103Y-104026107D01*
X67236838Y-104030776D01*
X67246565Y-104136632D01*
X67247287Y-104144489D01*
X67247469Y-104146668D01*
X67255939Y-104260652D01*
X67256971Y-104265211D01*
X67257516Y-104267619D01*
X67260097Y-104283911D01*
X67260753Y-104291050D01*
X67261865Y-104295594D01*
X67287914Y-104402051D01*
X67288418Y-104404190D01*
X67313623Y-104515577D01*
X67315314Y-104519926D01*
X67315317Y-104519935D01*
X67316218Y-104522251D01*
X67321172Y-104537964D01*
X67322877Y-104544930D01*
X67324652Y-104549267D01*
X67324652Y-104549269D01*
X67366141Y-104650683D01*
X67366956Y-104652725D01*
X67390974Y-104714486D01*
X67408353Y-104759177D01*
X67410674Y-104763238D01*
X67411910Y-104765401D01*
X67419131Y-104780206D01*
X67421845Y-104786839D01*
X67480288Y-104885075D01*
X67481352Y-104886899D01*
X67538049Y-104986098D01*
X67542481Y-104991720D01*
X67551809Y-105005291D01*
X67555481Y-105011463D01*
X67558428Y-105015071D01*
X67558433Y-105015077D01*
X67627790Y-105099965D01*
X67629163Y-105101677D01*
X67699862Y-105191357D01*
X67703264Y-105194557D01*
X67776036Y-105263014D01*
X67778798Y-105265693D01*
X68258804Y-105745698D01*
X68704595Y-106191489D01*
X68738620Y-106253802D01*
X68741500Y-106280585D01*
X68741500Y-108445103D01*
X68741297Y-108452246D01*
X68737103Y-108526100D01*
X68737103Y-108526107D01*
X68736838Y-108530776D01*
X68747287Y-108644489D01*
X68747469Y-108646668D01*
X68755939Y-108760652D01*
X68756971Y-108765211D01*
X68757516Y-108767619D01*
X68760097Y-108783911D01*
X68760753Y-108791050D01*
X68761865Y-108795594D01*
X68787914Y-108902051D01*
X68788418Y-108904190D01*
X68792706Y-108923140D01*
X68813623Y-109015577D01*
X68815314Y-109019926D01*
X68815317Y-109019935D01*
X68816218Y-109022251D01*
X68821172Y-109037964D01*
X68822877Y-109044930D01*
X68824652Y-109049267D01*
X68824652Y-109049269D01*
X68866141Y-109150683D01*
X68866956Y-109152725D01*
X68901923Y-109242641D01*
X68908353Y-109259177D01*
X68910674Y-109263238D01*
X68911910Y-109265401D01*
X68919131Y-109280206D01*
X68921845Y-109286839D01*
X68980288Y-109385075D01*
X68981352Y-109386899D01*
X69016461Y-109448326D01*
X69038049Y-109486098D01*
X69041740Y-109490780D01*
X69042481Y-109491720D01*
X69051809Y-109505291D01*
X69055481Y-109511463D01*
X69058428Y-109515071D01*
X69058433Y-109515077D01*
X69127790Y-109599965D01*
X69129166Y-109601680D01*
X69191621Y-109680903D01*
X69199862Y-109691357D01*
X69238745Y-109727934D01*
X69276052Y-109763029D01*
X69278814Y-109765709D01*
X71863207Y-112350102D01*
X71868115Y-112355296D01*
X71920498Y-112413986D01*
X71924092Y-112416975D01*
X71924097Y-112416980D01*
X72008353Y-112487055D01*
X72010017Y-112488463D01*
X72096552Y-112563026D01*
X72100505Y-112565520D01*
X72102605Y-112566845D01*
X72115929Y-112576525D01*
X72121450Y-112581117D01*
X72125449Y-112583543D01*
X72125455Y-112583548D01*
X72219185Y-112640426D01*
X72221054Y-112641582D01*
X72313647Y-112700003D01*
X72317600Y-112702497D01*
X72321877Y-112704379D01*
X72321881Y-112704381D01*
X72324158Y-112705383D01*
X72338766Y-112712987D01*
X72344899Y-112716709D01*
X72349201Y-112718513D01*
X72349205Y-112718515D01*
X72450258Y-112760890D01*
X72452278Y-112761758D01*
X72469710Y-112769428D01*
X72556835Y-112807764D01*
X72561342Y-112808993D01*
X72561351Y-112808996D01*
X72563751Y-112809650D01*
X72579328Y-112815013D01*
X72585935Y-112817783D01*
X72590463Y-112818933D01*
X72590466Y-112818934D01*
X72696653Y-112845902D01*
X72698771Y-112846460D01*
X72809001Y-112876512D01*
X72813641Y-112877061D01*
X72813646Y-112877062D01*
X72816107Y-112877353D01*
X72832323Y-112880358D01*
X72839263Y-112882121D01*
X72888824Y-112887112D01*
X72952908Y-112893565D01*
X72955093Y-112893804D01*
X73053800Y-112905486D01*
X73068560Y-112907233D01*
X73173099Y-112904039D01*
X73176947Y-112903980D01*
X78586488Y-112903980D01*
X78654609Y-112923982D01*
X78701102Y-112977638D01*
X78711206Y-113047912D01*
X78681712Y-113112492D01*
X78654733Y-113135734D01*
X78653221Y-113136566D01*
X78397860Y-113322096D01*
X78167767Y-113538168D01*
X78165243Y-113541219D01*
X78165242Y-113541220D01*
X78090279Y-113631834D01*
X77966568Y-113781375D01*
X77797438Y-114047881D01*
X77795754Y-114051460D01*
X77795750Y-114051467D01*
X77669333Y-114320119D01*
X77663044Y-114333484D01*
X77565505Y-114633678D01*
X77506359Y-114943730D01*
X77504123Y-114979271D01*
X77489792Y-115207073D01*
X77488833Y-115222309D01*
X77486540Y-115258750D01*
X77506359Y-115573770D01*
X77565505Y-115883822D01*
X77663044Y-116184016D01*
X77704766Y-116272681D01*
X77715671Y-116342834D01*
X77686917Y-116407747D01*
X77627633Y-116446810D01*
X77552345Y-116446329D01*
X77457669Y-116416023D01*
X77453062Y-116415273D01*
X77453059Y-116415272D01*
X77196973Y-116373566D01*
X77196974Y-116373566D01*
X77192362Y-116372815D01*
X77062018Y-116371109D01*
X76928260Y-116369358D01*
X76928257Y-116369358D01*
X76923583Y-116369297D01*
X76657236Y-116405545D01*
X76652750Y-116406853D01*
X76652748Y-116406853D01*
X76584765Y-116426668D01*
X76399173Y-116480763D01*
X76394920Y-116482723D01*
X76394919Y-116482724D01*
X76364933Y-116496548D01*
X76155062Y-116593300D01*
X76151153Y-116595863D01*
X76068036Y-116650357D01*
X75998951Y-116670985D01*
X72992203Y-116670985D01*
X72920383Y-116648512D01*
X72878598Y-116619524D01*
X72878595Y-116619522D01*
X72874756Y-116616859D01*
X72848342Y-116603833D01*
X72637863Y-116500036D01*
X72637860Y-116500035D01*
X72633675Y-116497971D01*
X72607681Y-116489650D01*
X72531920Y-116465399D01*
X72377669Y-116416023D01*
X72373062Y-116415273D01*
X72373059Y-116415272D01*
X72116973Y-116373566D01*
X72116974Y-116373566D01*
X72112362Y-116372815D01*
X71982018Y-116371109D01*
X71848260Y-116369358D01*
X71848257Y-116369358D01*
X71843583Y-116369297D01*
X71577236Y-116405545D01*
X71572750Y-116406853D01*
X71572748Y-116406853D01*
X71504765Y-116426668D01*
X71319173Y-116480763D01*
X71314920Y-116482723D01*
X71314919Y-116482724D01*
X71284933Y-116496548D01*
X71075062Y-116593300D01*
X71042283Y-116614791D01*
X70854180Y-116738116D01*
X70854175Y-116738120D01*
X70850267Y-116740682D01*
X70649725Y-116919673D01*
X70477843Y-117126339D01*
X70338395Y-117356141D01*
X70336586Y-117360455D01*
X70336584Y-117360459D01*
X70272399Y-117513525D01*
X70234447Y-117604030D01*
X70168280Y-117864562D01*
X70141349Y-118132011D01*
X70141573Y-118136677D01*
X70141573Y-118136682D01*
X70144245Y-118192297D01*
X70154246Y-118400504D01*
X70155157Y-118405084D01*
X70155158Y-118405092D01*
X70174231Y-118500977D01*
X70167903Y-118571691D01*
X70124348Y-118627758D01*
X70057396Y-118651377D01*
X69988302Y-118635050D01*
X69939004Y-118583960D01*
X69932094Y-118568220D01*
X69920614Y-118536315D01*
X61400805Y-94859873D01*
X56309003Y-80709817D01*
X56308900Y-80709452D01*
X56308881Y-80709137D01*
X56281862Y-80634294D01*
X56262469Y-80580575D01*
X56262468Y-80580573D01*
X56259421Y-80572133D01*
X56254125Y-80564883D01*
X56243318Y-80550089D01*
X56233754Y-80534811D01*
X56220962Y-80510692D01*
X56196584Y-80485660D01*
X56194911Y-80483828D01*
X56193401Y-80481761D01*
X56170579Y-80458939D01*
X56169406Y-80457752D01*
X56124674Y-80411819D01*
X56124673Y-80411818D01*
X56119340Y-80406342D01*
X56116822Y-80404920D01*
X56114660Y-80403020D01*
X54662528Y-78950888D01*
X61632549Y-78950888D01*
X61632644Y-78954517D01*
X61632644Y-78954519D01*
X61633390Y-78982990D01*
X61633390Y-78982992D01*
X61640056Y-79237551D01*
X61641631Y-79297718D01*
X61690517Y-79641207D01*
X61778558Y-79976800D01*
X61904588Y-80300050D01*
X61906285Y-80303255D01*
X62041920Y-80559425D01*
X62066936Y-80606673D01*
X62068986Y-80609656D01*
X62068988Y-80609659D01*
X62261394Y-80889611D01*
X62261400Y-80889618D01*
X62263451Y-80892603D01*
X62400920Y-81050187D01*
X62475429Y-81135598D01*
X62491527Y-81154052D01*
X62494212Y-81156495D01*
X62703929Y-81347322D01*
X62748142Y-81387553D01*
X63029894Y-81590013D01*
X63333049Y-81758747D01*
X63653589Y-81891519D01*
X63657083Y-81892514D01*
X63657085Y-81892515D01*
X63983764Y-81985572D01*
X63983769Y-81985573D01*
X63987265Y-81986569D01*
X64168163Y-82016192D01*
X64326073Y-82042051D01*
X64326080Y-82042052D01*
X64329654Y-82042637D01*
X64502937Y-82050809D01*
X64672592Y-82058810D01*
X64672593Y-82058810D01*
X64676219Y-82058981D01*
X64685076Y-82058377D01*
X65018734Y-82035631D01*
X65018742Y-82035630D01*
X65022365Y-82035383D01*
X65025940Y-82034720D01*
X65025943Y-82034720D01*
X65359940Y-81972817D01*
X65359944Y-81972816D01*
X65363505Y-81972156D01*
X65654150Y-81882742D01*
X65691639Y-81871209D01*
X65695117Y-81870139D01*
X66012806Y-81730683D01*
X66087986Y-81686752D01*
X66309221Y-81557473D01*
X66309223Y-81557472D01*
X66312361Y-81555638D01*
X66315270Y-81553454D01*
X66586905Y-81349505D01*
X66586909Y-81349502D01*
X66589812Y-81347322D01*
X66841480Y-81108497D01*
X67064031Y-80842330D01*
X67254514Y-80552346D01*
X67343549Y-80375319D01*
X67408778Y-80245627D01*
X67408781Y-80245619D01*
X67410405Y-80242391D01*
X67411650Y-80238989D01*
X67528390Y-79919984D01*
X67528391Y-79919980D01*
X67529638Y-79916573D01*
X67530483Y-79913051D01*
X67530486Y-79913043D01*
X67609785Y-79582738D01*
X67609786Y-79582734D01*
X67610632Y-79579209D01*
X67611069Y-79575599D01*
X67651977Y-79237551D01*
X67651977Y-79237544D01*
X67652313Y-79234772D01*
X67652666Y-79223564D01*
X67658172Y-79048344D01*
X67658260Y-79045547D01*
X67658099Y-79042751D01*
X67638497Y-78702793D01*
X67638496Y-78702788D01*
X67638288Y-78699173D01*
X67620910Y-78599600D01*
X67579261Y-78360962D01*
X67579259Y-78360955D01*
X67578637Y-78357389D01*
X67575183Y-78345726D01*
X67538143Y-78220684D01*
X67480098Y-78024727D01*
X67475015Y-78012810D01*
X67345401Y-77708933D01*
X67345399Y-77708930D01*
X67343977Y-77705595D01*
X67328790Y-77678968D01*
X67173869Y-77407363D01*
X67172078Y-77404223D01*
X66966679Y-77124607D01*
X66730503Y-76870451D01*
X66466680Y-76645125D01*
X66178708Y-76451616D01*
X65870402Y-76292487D01*
X65545850Y-76169849D01*
X65542329Y-76168965D01*
X65542324Y-76168963D01*
X65381039Y-76128451D01*
X65209353Y-76085327D01*
X65187137Y-76082402D01*
X64868976Y-76040515D01*
X64868968Y-76040514D01*
X64865372Y-76040041D01*
X64720706Y-76037768D01*
X64522107Y-76034648D01*
X64522103Y-76034648D01*
X64518465Y-76034591D01*
X64514851Y-76034952D01*
X64514845Y-76034952D01*
X64289898Y-76057405D01*
X64173230Y-76069050D01*
X63834244Y-76142961D01*
X63830817Y-76144134D01*
X63830811Y-76144136D01*
X63751957Y-76171134D01*
X63506000Y-76255344D01*
X63192849Y-76404710D01*
X62898940Y-76589079D01*
X62896104Y-76591351D01*
X62896097Y-76591356D01*
X62652045Y-76786879D01*
X62628170Y-76806006D01*
X62625619Y-76808584D01*
X62405446Y-77031075D01*
X62384127Y-77052618D01*
X62381886Y-77055476D01*
X62210020Y-77274666D01*
X62170047Y-77325645D01*
X62168154Y-77328734D01*
X62168152Y-77328737D01*
X62122277Y-77403598D01*
X61988766Y-77621468D01*
X61987241Y-77624753D01*
X61987239Y-77624757D01*
X61930107Y-77747839D01*
X61842688Y-77936167D01*
X61792072Y-78089216D01*
X61763486Y-78175652D01*
X61733748Y-78265570D01*
X61733012Y-78269125D01*
X61733011Y-78269128D01*
X61680874Y-78520888D01*
X61663391Y-78605311D01*
X61655333Y-78695604D01*
X61635897Y-78913379D01*
X61632549Y-78950888D01*
X54662528Y-78950888D01*
X54610968Y-78899328D01*
X53078514Y-77366875D01*
X53044488Y-77304563D01*
X53049553Y-77233748D01*
X53078514Y-77188685D01*
X65458447Y-64808752D01*
X75774685Y-64808752D01*
X75774780Y-64812381D01*
X75774780Y-64812383D01*
X75775526Y-64840854D01*
X75775526Y-64840856D01*
X75782192Y-65095415D01*
X75783767Y-65155582D01*
X75832653Y-65499071D01*
X75920694Y-65834664D01*
X76046724Y-66157914D01*
X76048421Y-66161119D01*
X76181910Y-66413236D01*
X76209072Y-66464537D01*
X76211122Y-66467520D01*
X76211124Y-66467523D01*
X76403530Y-66747475D01*
X76403536Y-66747482D01*
X76405587Y-66750467D01*
X76543056Y-66908051D01*
X76572699Y-66942031D01*
X76633663Y-67011916D01*
X76636348Y-67014359D01*
X76846065Y-67205186D01*
X76890278Y-67245417D01*
X77172030Y-67447877D01*
X77475185Y-67616611D01*
X77795725Y-67749383D01*
X77799219Y-67750378D01*
X77799221Y-67750379D01*
X78125900Y-67843436D01*
X78125905Y-67843437D01*
X78129401Y-67844433D01*
X78326101Y-67876644D01*
X78468209Y-67899915D01*
X78468216Y-67899916D01*
X78471790Y-67900501D01*
X78645072Y-67908673D01*
X78814728Y-67916674D01*
X78814729Y-67916674D01*
X78818355Y-67916845D01*
X78827212Y-67916241D01*
X79160870Y-67893495D01*
X79160878Y-67893494D01*
X79164501Y-67893247D01*
X79168076Y-67892584D01*
X79168079Y-67892584D01*
X79502076Y-67830681D01*
X79502080Y-67830680D01*
X79505641Y-67830020D01*
X79837253Y-67728003D01*
X80154942Y-67588547D01*
X80326576Y-67488253D01*
X80451357Y-67415337D01*
X80451359Y-67415336D01*
X80454497Y-67413502D01*
X80457406Y-67411318D01*
X80729041Y-67207369D01*
X80729045Y-67207366D01*
X80731948Y-67205186D01*
X80983616Y-66966361D01*
X81206167Y-66700194D01*
X81209190Y-66695593D01*
X81357656Y-66469573D01*
X81396650Y-66410210D01*
X81548617Y-66108058D01*
X81550914Y-66103491D01*
X81550917Y-66103483D01*
X81552541Y-66100255D01*
X81553786Y-66096853D01*
X81670526Y-65777848D01*
X81670527Y-65777844D01*
X81671774Y-65774437D01*
X81672619Y-65770915D01*
X81672622Y-65770907D01*
X81751921Y-65440602D01*
X81751922Y-65440598D01*
X81752768Y-65437073D01*
X81753205Y-65433463D01*
X81794113Y-65095415D01*
X81794113Y-65095408D01*
X81794449Y-65092636D01*
X81800396Y-64903411D01*
X81799907Y-64894930D01*
X81780633Y-64560657D01*
X81780632Y-64560652D01*
X81780424Y-64557037D01*
X81720773Y-64215253D01*
X81622234Y-63882591D01*
X81620810Y-63879252D01*
X81487537Y-63566797D01*
X81487535Y-63566794D01*
X81486113Y-63563459D01*
X81436366Y-63476242D01*
X81316005Y-63265227D01*
X81314214Y-63262087D01*
X81108815Y-62982471D01*
X80872639Y-62728315D01*
X80608816Y-62502989D01*
X80320844Y-62309480D01*
X80012538Y-62150351D01*
X79687986Y-62027713D01*
X79684465Y-62026829D01*
X79684460Y-62026827D01*
X79523175Y-61986315D01*
X79351489Y-61943191D01*
X79329273Y-61940266D01*
X79011112Y-61898379D01*
X79011104Y-61898378D01*
X79007508Y-61897905D01*
X78862842Y-61895632D01*
X78664243Y-61892512D01*
X78664239Y-61892512D01*
X78660601Y-61892455D01*
X78656987Y-61892816D01*
X78656981Y-61892816D01*
X78413640Y-61917105D01*
X78315366Y-61926914D01*
X77976380Y-62000825D01*
X77972953Y-62001998D01*
X77972947Y-62002000D01*
X77894093Y-62028998D01*
X77648136Y-62113208D01*
X77334985Y-62262574D01*
X77041076Y-62446943D01*
X77038240Y-62449215D01*
X77038233Y-62449220D01*
X76794181Y-62644743D01*
X76770306Y-62663870D01*
X76526263Y-62910482D01*
X76524022Y-62913340D01*
X76467529Y-62985389D01*
X76312183Y-63183509D01*
X76310290Y-63186598D01*
X76310288Y-63186601D01*
X76264030Y-63262087D01*
X76130902Y-63479332D01*
X76129377Y-63482617D01*
X76129375Y-63482621D01*
X76090302Y-63566797D01*
X75984824Y-63794031D01*
X75875884Y-64123434D01*
X75805527Y-64463175D01*
X75774685Y-64808752D01*
X65458447Y-64808752D01*
X76929935Y-53337264D01*
X76992247Y-53303238D01*
X77063062Y-53308303D01*
X77108125Y-53337264D01*
X80144214Y-56373353D01*
X80152297Y-56382246D01*
X80153677Y-56383917D01*
X80158352Y-56391582D01*
X80201881Y-56431213D01*
X80206126Y-56435265D01*
X80220819Y-56449958D01*
X80224401Y-56452643D01*
X80224406Y-56452647D01*
X80225342Y-56453348D01*
X80234597Y-56460999D01*
X80241109Y-56466928D01*
X80245171Y-56469613D01*
X80245176Y-56469617D01*
X80257938Y-56478053D01*
X80264023Y-56482339D01*
X80300672Y-56509807D01*
X80300679Y-56509811D01*
X80307859Y-56515192D01*
X80316265Y-56518343D01*
X80324138Y-56522653D01*
X80323844Y-56523191D01*
X80334221Y-56528478D01*
X90976612Y-63563459D01*
X92983503Y-64890082D01*
X92997429Y-64900752D01*
X93019041Y-64919839D01*
X93027164Y-64923653D01*
X93027166Y-64923654D01*
X93034225Y-64926968D01*
X93084125Y-64950396D01*
X93149468Y-64981306D01*
X93150213Y-64981424D01*
X93150890Y-64981742D01*
X93222021Y-64992818D01*
X93293325Y-65004131D01*
X93325817Y-64999978D01*
X93341792Y-64998961D01*
X106654343Y-64998961D01*
X106671844Y-65000182D01*
X106691514Y-65002941D01*
X106691515Y-65002941D01*
X106700399Y-65004187D01*
X106742759Y-64997996D01*
X106771417Y-64993807D01*
X106771777Y-64993755D01*
X106787849Y-64991453D01*
X106843097Y-64983541D01*
X106843782Y-64983230D01*
X106844525Y-64983121D01*
X106909958Y-64953142D01*
X106910260Y-64953004D01*
X106967522Y-64926968D01*
X106967523Y-64926967D01*
X106975692Y-64923253D01*
X106982492Y-64917394D01*
X107000510Y-64901869D01*
X107013274Y-64892213D01*
X107139532Y-64808752D01*
X118201091Y-64808752D01*
X118201186Y-64812381D01*
X118201186Y-64812383D01*
X118201932Y-64840854D01*
X118201932Y-64840856D01*
X118208598Y-65095415D01*
X118210173Y-65155582D01*
X118259059Y-65499071D01*
X118347100Y-65834664D01*
X118473130Y-66157914D01*
X118474827Y-66161119D01*
X118608316Y-66413236D01*
X118635478Y-66464537D01*
X118637528Y-66467520D01*
X118637530Y-66467523D01*
X118829936Y-66747475D01*
X118829942Y-66747482D01*
X118831993Y-66750467D01*
X118969462Y-66908051D01*
X118999105Y-66942031D01*
X119060069Y-67011916D01*
X119062754Y-67014359D01*
X119272471Y-67205186D01*
X119316684Y-67245417D01*
X119598436Y-67447877D01*
X119901591Y-67616611D01*
X120222131Y-67749383D01*
X120225625Y-67750378D01*
X120225627Y-67750379D01*
X120552306Y-67843436D01*
X120552311Y-67843437D01*
X120555807Y-67844433D01*
X120752507Y-67876644D01*
X120894615Y-67899915D01*
X120894622Y-67899916D01*
X120898196Y-67900501D01*
X121071478Y-67908673D01*
X121241134Y-67916674D01*
X121241135Y-67916674D01*
X121244761Y-67916845D01*
X121253618Y-67916241D01*
X121587276Y-67893495D01*
X121587284Y-67893494D01*
X121590907Y-67893247D01*
X121594482Y-67892584D01*
X121594485Y-67892584D01*
X121928482Y-67830681D01*
X121928486Y-67830680D01*
X121932047Y-67830020D01*
X122263659Y-67728003D01*
X122581348Y-67588547D01*
X122752982Y-67488253D01*
X122877763Y-67415337D01*
X122877765Y-67415336D01*
X122880903Y-67413502D01*
X122883812Y-67411318D01*
X123155447Y-67207369D01*
X123155451Y-67207366D01*
X123158354Y-67205186D01*
X123410022Y-66966361D01*
X123632573Y-66700194D01*
X123635596Y-66695593D01*
X123784062Y-66469573D01*
X123823056Y-66410210D01*
X123975023Y-66108058D01*
X123977320Y-66103491D01*
X123977323Y-66103483D01*
X123978947Y-66100255D01*
X123980192Y-66096853D01*
X124096932Y-65777848D01*
X124096933Y-65777844D01*
X124098180Y-65774437D01*
X124099025Y-65770915D01*
X124099028Y-65770907D01*
X124178327Y-65440602D01*
X124178328Y-65440598D01*
X124179174Y-65437073D01*
X124179611Y-65433463D01*
X124220519Y-65095415D01*
X124220519Y-65095408D01*
X124220855Y-65092636D01*
X124226802Y-64903411D01*
X124226313Y-64894930D01*
X124207039Y-64560657D01*
X124207038Y-64560652D01*
X124206830Y-64557037D01*
X124147179Y-64215253D01*
X124048640Y-63882591D01*
X124047216Y-63879252D01*
X123913943Y-63566797D01*
X123913941Y-63566794D01*
X123912519Y-63563459D01*
X123862772Y-63476242D01*
X123742411Y-63265227D01*
X123740620Y-63262087D01*
X123535221Y-62982471D01*
X123299045Y-62728315D01*
X123035222Y-62502989D01*
X122747250Y-62309480D01*
X122438944Y-62150351D01*
X122114392Y-62027713D01*
X122110871Y-62026829D01*
X122110866Y-62026827D01*
X121949581Y-61986315D01*
X121777895Y-61943191D01*
X121755679Y-61940266D01*
X121437518Y-61898379D01*
X121437510Y-61898378D01*
X121433914Y-61897905D01*
X121289248Y-61895632D01*
X121090649Y-61892512D01*
X121090645Y-61892512D01*
X121087007Y-61892455D01*
X121083393Y-61892816D01*
X121083387Y-61892816D01*
X120840046Y-61917105D01*
X120741772Y-61926914D01*
X120402786Y-62000825D01*
X120399359Y-62001998D01*
X120399353Y-62002000D01*
X120320499Y-62028998D01*
X120074542Y-62113208D01*
X119761391Y-62262574D01*
X119467482Y-62446943D01*
X119464646Y-62449215D01*
X119464639Y-62449220D01*
X119220587Y-62644743D01*
X119196712Y-62663870D01*
X118952669Y-62910482D01*
X118950428Y-62913340D01*
X118893935Y-62985389D01*
X118738589Y-63183509D01*
X118736696Y-63186598D01*
X118736694Y-63186601D01*
X118690436Y-63262087D01*
X118557308Y-63479332D01*
X118555783Y-63482617D01*
X118555781Y-63482621D01*
X118516708Y-63566797D01*
X118411230Y-63794031D01*
X118302290Y-64123434D01*
X118231933Y-64463175D01*
X118201091Y-64808752D01*
X107139532Y-64808752D01*
X116118441Y-58873390D01*
X119665936Y-56528376D01*
X119676257Y-56522239D01*
X119678170Y-56521222D01*
X119686617Y-56518172D01*
X119734108Y-56483477D01*
X119738954Y-56480107D01*
X119756305Y-56468638D01*
X119760535Y-56464880D01*
X119769884Y-56457341D01*
X119773061Y-56455020D01*
X119773063Y-56455019D01*
X119776988Y-56452151D01*
X119791243Y-56437896D01*
X119796656Y-56432792D01*
X119830916Y-56402357D01*
X119837624Y-56396398D01*
X119842391Y-56388793D01*
X119848188Y-56381942D01*
X119848655Y-56382337D01*
X119855915Y-56373224D01*
X122891875Y-53337264D01*
X122954187Y-53303238D01*
X123025002Y-53308303D01*
G37*
%TD.AperFunction*%
%TA.AperFunction,Conductor*%
G36*
X111917012Y-72520477D02*
G01*
X111923595Y-72526606D01*
X125954439Y-86557450D01*
X125988465Y-86619762D01*
X125983400Y-86690577D01*
X125940853Y-86747413D01*
X125874333Y-86772224D01*
X125836828Y-86767035D01*
X125836332Y-86769143D01*
X125671293Y-86730282D01*
X125671289Y-86730282D01*
X125664169Y-86728605D01*
X125656853Y-86728611D01*
X125656850Y-86728611D01*
X125575543Y-86728682D01*
X125487299Y-86728759D01*
X125408693Y-86747413D01*
X125322328Y-86767908D01*
X125322327Y-86767908D01*
X125315207Y-86769598D01*
X125308668Y-86772880D01*
X125308667Y-86772880D01*
X125255963Y-86799330D01*
X125157127Y-86848932D01*
X125151794Y-86853274D01*
X125151792Y-86853275D01*
X125078188Y-86913198D01*
X125078182Y-86913204D01*
X125075694Y-86915229D01*
X125055965Y-86934958D01*
X125032705Y-86953296D01*
X124893725Y-87038463D01*
X124889532Y-87042198D01*
X124889529Y-87042201D01*
X124813042Y-87110349D01*
X124725992Y-87187908D01*
X124587373Y-87364694D01*
X124552514Y-87430533D01*
X124530254Y-87460669D01*
X124509443Y-87481480D01*
X124507397Y-87484000D01*
X124446757Y-87558680D01*
X124446755Y-87558683D01*
X124442415Y-87564028D01*
X124363357Y-87722247D01*
X124361679Y-87729373D01*
X124361678Y-87729376D01*
X124348698Y-87784504D01*
X124322819Y-87894409D01*
X124322825Y-87901725D01*
X124322825Y-87901728D01*
X124322854Y-87935174D01*
X124322918Y-88007084D01*
X124322926Y-88016755D01*
X124302983Y-88084893D01*
X124249369Y-88131433D01*
X124197036Y-88142865D01*
X124177161Y-88142882D01*
X124073085Y-88142973D01*
X124018831Y-88155848D01*
X123908114Y-88182122D01*
X123908113Y-88182122D01*
X123900993Y-88183812D01*
X123894454Y-88187094D01*
X123894453Y-88187094D01*
X123749062Y-88260060D01*
X123742913Y-88263146D01*
X123737580Y-88267488D01*
X123737578Y-88267489D01*
X123663974Y-88327412D01*
X123663968Y-88327418D01*
X123661480Y-88329443D01*
X123649679Y-88341244D01*
X123629760Y-88357461D01*
X123469592Y-88462671D01*
X123469214Y-88462919D01*
X123400038Y-88483607D01*
X122638808Y-88483607D01*
X122570687Y-88463605D01*
X122549713Y-88446702D01*
X120362163Y-86259152D01*
X120354999Y-86250667D01*
X120354786Y-86250851D01*
X120350871Y-86246315D01*
X120347400Y-86241422D01*
X120278890Y-86175838D01*
X120276926Y-86173915D01*
X120248736Y-86145725D01*
X120242816Y-86140836D01*
X120235922Y-86134704D01*
X120195497Y-86096006D01*
X120195493Y-86096003D01*
X120191158Y-86091853D01*
X120186119Y-86088600D01*
X120186116Y-86088597D01*
X120162243Y-86073183D01*
X120150359Y-86064485D01*
X120128440Y-86046384D01*
X120128441Y-86046384D01*
X120123818Y-86042567D01*
X120069424Y-86012849D01*
X120061504Y-86008136D01*
X120014497Y-85977784D01*
X120014493Y-85977782D01*
X120009452Y-85974527D01*
X119977523Y-85961659D01*
X119964221Y-85955371D01*
X119939272Y-85941740D01*
X119934008Y-85938864D01*
X119928303Y-85937038D01*
X119928301Y-85937037D01*
X119904461Y-85929406D01*
X119874988Y-85919972D01*
X119866308Y-85916838D01*
X119814402Y-85895919D01*
X119808839Y-85893677D01*
X119802953Y-85892527D01*
X119802951Y-85892527D01*
X119775058Y-85887080D01*
X119760794Y-85883418D01*
X119733716Y-85874750D01*
X119733714Y-85874750D01*
X119728011Y-85872924D01*
X119722062Y-85872209D01*
X119722056Y-85872208D01*
X119666488Y-85865532D01*
X119657368Y-85864096D01*
X119611611Y-85855161D01*
X119596556Y-85852221D01*
X119590872Y-85851943D01*
X119560898Y-85851943D01*
X119545870Y-85851044D01*
X119519210Y-85847841D01*
X119519206Y-85847841D01*
X119513263Y-85847127D01*
X119507287Y-85847550D01*
X119507284Y-85847550D01*
X119449692Y-85851628D01*
X119440793Y-85851943D01*
X110537474Y-85851943D01*
X110469353Y-85831941D01*
X110448379Y-85815038D01*
X109859115Y-85225774D01*
X109810370Y-85186582D01*
X109803185Y-85183315D01*
X109803183Y-85183314D01*
X109685943Y-85130008D01*
X109685942Y-85130008D01*
X109677774Y-85126294D01*
X109668891Y-85125022D01*
X109668888Y-85125021D01*
X109542477Y-85106918D01*
X109533588Y-85105645D01*
X109524699Y-85106918D01*
X109398287Y-85125021D01*
X109398284Y-85125022D01*
X109389401Y-85126294D01*
X109381233Y-85130008D01*
X109381232Y-85130008D01*
X109263992Y-85183314D01*
X109263990Y-85183315D01*
X109256805Y-85186582D01*
X109208060Y-85225774D01*
X107725774Y-86708060D01*
X107723637Y-86710718D01*
X107723636Y-86710719D01*
X107709132Y-86728759D01*
X107686582Y-86756805D01*
X107683315Y-86763990D01*
X107683314Y-86763992D01*
X107630044Y-86881153D01*
X107626294Y-86889401D01*
X107625022Y-86898284D01*
X107625021Y-86898287D01*
X107616575Y-86957267D01*
X107605645Y-87033588D01*
X107606918Y-87042477D01*
X107621913Y-87147180D01*
X107626294Y-87177774D01*
X107630008Y-87185942D01*
X107630008Y-87185943D01*
X107682834Y-87302126D01*
X107686582Y-87310370D01*
X107691529Y-87316522D01*
X107691529Y-87316523D01*
X107719527Y-87351345D01*
X107725774Y-87359115D01*
X109140885Y-88774226D01*
X109143543Y-88776363D01*
X109143544Y-88776364D01*
X109183036Y-88808116D01*
X109189630Y-88813418D01*
X109196815Y-88816685D01*
X109196817Y-88816686D01*
X109314057Y-88869992D01*
X109314058Y-88869992D01*
X109322226Y-88873706D01*
X109331109Y-88874978D01*
X109331112Y-88874979D01*
X109457523Y-88893082D01*
X109466412Y-88894355D01*
X109475301Y-88893082D01*
X109601713Y-88874979D01*
X109601716Y-88874978D01*
X109610599Y-88873706D01*
X109618767Y-88869992D01*
X109618771Y-88869991D01*
X109629939Y-88864913D01*
X109700229Y-88854925D01*
X109764761Y-88884526D01*
X109803046Y-88944315D01*
X109807230Y-88964910D01*
X109825379Y-89119406D01*
X109826813Y-89124374D01*
X109890290Y-89344295D01*
X109892002Y-89350228D01*
X109894226Y-89354891D01*
X109894228Y-89354896D01*
X109937453Y-89445518D01*
X109995430Y-89567070D01*
X109998389Y-89571312D01*
X109998391Y-89571315D01*
X110125475Y-89753485D01*
X110132885Y-89764107D01*
X110148904Y-89780522D01*
X110280282Y-89915150D01*
X110300675Y-89936048D01*
X110304844Y-89939111D01*
X110304847Y-89939113D01*
X110490123Y-90075211D01*
X110494296Y-90078276D01*
X110708546Y-90186972D01*
X110713483Y-90188529D01*
X110713484Y-90188529D01*
X110837666Y-90227683D01*
X110937671Y-90259214D01*
X111099120Y-90282192D01*
X111170403Y-90292337D01*
X111170404Y-90292337D01*
X111175519Y-90293065D01*
X111180681Y-90292948D01*
X111180683Y-90292948D01*
X111312568Y-90289955D01*
X111415702Y-90287615D01*
X111440194Y-90282987D01*
X111510843Y-90289993D01*
X111566490Y-90334083D01*
X111589466Y-90401259D01*
X111588851Y-90420407D01*
X111588496Y-90423675D01*
X111587546Y-90428655D01*
X111580768Y-90671307D01*
X111581437Y-90676320D01*
X111581437Y-90676322D01*
X111599468Y-90811455D01*
X111612873Y-90911922D01*
X111614335Y-90916763D01*
X111614335Y-90916765D01*
X111679842Y-91133733D01*
X111683035Y-91144310D01*
X111789448Y-91362490D01*
X111792361Y-91366619D01*
X111876693Y-91486166D01*
X111929376Y-91560849D01*
X111949011Y-91582352D01*
X112014032Y-91647373D01*
X112015114Y-91648468D01*
X112096726Y-91732099D01*
X112100898Y-91735164D01*
X112104660Y-91738434D01*
X112111091Y-91744432D01*
X114416325Y-94049666D01*
X114418779Y-94052189D01*
X114457049Y-94092659D01*
X114489321Y-94155897D01*
X114491500Y-94179231D01*
X114491500Y-94782075D01*
X114471498Y-94850196D01*
X114454595Y-94871170D01*
X113699723Y-95626042D01*
X113698097Y-95627952D01*
X113698091Y-95627959D01*
X113589138Y-95755979D01*
X113582058Y-95764298D01*
X113456307Y-95971936D01*
X113365373Y-96197007D01*
X113364253Y-96201937D01*
X113320214Y-96395778D01*
X113311593Y-96433722D01*
X113311275Y-96438769D01*
X113311275Y-96438772D01*
X113304453Y-96547196D01*
X113296350Y-96675991D01*
X113320039Y-96917580D01*
X113382047Y-97152274D01*
X113384103Y-97156891D01*
X113384103Y-97156892D01*
X113459250Y-97325673D01*
X113468684Y-97396040D01*
X113438578Y-97460337D01*
X113416414Y-97480135D01*
X113384425Y-97502534D01*
X113384422Y-97502536D01*
X113379914Y-97505693D01*
X113230389Y-97655218D01*
X113109101Y-97828436D01*
X113106780Y-97833414D01*
X113106778Y-97833417D01*
X113029175Y-97999838D01*
X113019734Y-98020084D01*
X113018312Y-98025391D01*
X112989224Y-98133948D01*
X112984428Y-98148322D01*
X112950034Y-98233881D01*
X112904477Y-98453865D01*
X112901190Y-98510873D01*
X112901190Y-100766832D01*
X112881188Y-100834953D01*
X112864285Y-100855927D01*
X112706121Y-101014091D01*
X112643809Y-101048117D01*
X112572994Y-101043052D01*
X112516158Y-101000505D01*
X112491347Y-100933985D01*
X112491222Y-100917963D01*
X112499671Y-100766832D01*
X112508543Y-100608145D01*
X112509040Y-100572562D01*
X112513404Y-100260062D01*
X112513404Y-100260047D01*
X112513422Y-100258750D01*
X112502044Y-99851410D01*
X112493960Y-99561976D01*
X112493959Y-99561966D01*
X112493911Y-99560232D01*
X112489295Y-99505256D01*
X112435583Y-98865632D01*
X112435437Y-98863892D01*
X112415643Y-98723045D01*
X112375478Y-98437258D01*
X112338185Y-98171902D01*
X112202455Y-97486420D01*
X112028673Y-96809583D01*
X112021447Y-96786802D01*
X111923311Y-96477441D01*
X111817380Y-96143503D01*
X111814520Y-96135972D01*
X111645261Y-95690395D01*
X111569235Y-95490256D01*
X111335840Y-94966043D01*
X111285724Y-94853480D01*
X111285721Y-94853474D01*
X111285011Y-94851879D01*
X111276691Y-94835689D01*
X110966411Y-94231950D01*
X110966405Y-94231939D01*
X110965595Y-94230363D01*
X110611984Y-93627647D01*
X110225279Y-93045609D01*
X110141629Y-92933792D01*
X109807738Y-92487470D01*
X109807726Y-92487455D01*
X109806687Y-92486066D01*
X109756320Y-92426040D01*
X109358634Y-91952097D01*
X109357513Y-91950761D01*
X108879158Y-91441365D01*
X108373114Y-90959465D01*
X107840958Y-90506565D01*
X107513036Y-90257659D01*
X107285739Y-90085131D01*
X107285732Y-90085126D01*
X107284350Y-90084077D01*
X106705027Y-89693318D01*
X106104794Y-89335508D01*
X106103264Y-89334708D01*
X106103253Y-89334702D01*
X105809332Y-89181044D01*
X105485523Y-89011761D01*
X104849146Y-88723087D01*
X104444514Y-88566141D01*
X104199280Y-88471021D01*
X104199268Y-88471017D01*
X104197647Y-88470388D01*
X104195987Y-88469849D01*
X104195974Y-88469844D01*
X103850095Y-88357461D01*
X103533058Y-88254449D01*
X102857451Y-88075946D01*
X102855709Y-88075589D01*
X102855703Y-88075587D01*
X102174687Y-87935795D01*
X102174686Y-87935795D01*
X102172933Y-87935435D01*
X101667014Y-87860728D01*
X101483401Y-87833614D01*
X101483394Y-87833613D01*
X101481639Y-87833354D01*
X100785724Y-87770020D01*
X100783981Y-87769959D01*
X100783963Y-87769958D01*
X100279895Y-87752356D01*
X100087359Y-87745633D01*
X100085591Y-87745670D01*
X100085586Y-87745670D01*
X99390480Y-87760230D01*
X99390474Y-87760230D01*
X99388722Y-87760267D01*
X98691991Y-87813878D01*
X98690249Y-87814110D01*
X98690234Y-87814112D01*
X98001084Y-87906064D01*
X98001078Y-87906065D01*
X97999339Y-87906297D01*
X97312926Y-88037238D01*
X97311243Y-88037658D01*
X97311223Y-88037662D01*
X96935129Y-88131433D01*
X96634893Y-88206290D01*
X96633220Y-88206808D01*
X96633216Y-88206809D01*
X96504491Y-88246656D01*
X95967353Y-88412928D01*
X95965731Y-88413531D01*
X95965714Y-88413537D01*
X95632220Y-88537563D01*
X95312390Y-88656507D01*
X95055663Y-88768668D01*
X94751266Y-88901656D01*
X94672044Y-88936267D01*
X94670479Y-88937057D01*
X94670478Y-88937058D01*
X94414391Y-89066417D01*
X94344569Y-89079277D01*
X94278877Y-89052348D01*
X94238174Y-88994178D01*
X94235381Y-88923236D01*
X94268485Y-88864856D01*
X95549666Y-87583675D01*
X95552188Y-87581221D01*
X95621001Y-87516148D01*
X95624681Y-87512668D01*
X95672418Y-87450231D01*
X95676531Y-87445132D01*
X95727470Y-87385280D01*
X95730089Y-87380955D01*
X95730093Y-87380950D01*
X95744491Y-87357176D01*
X95752163Y-87345929D01*
X95772120Y-87319826D01*
X95809247Y-87250584D01*
X95812510Y-87244863D01*
X95850602Y-87181966D01*
X95850603Y-87181965D01*
X95853220Y-87177643D01*
X95865534Y-87147166D01*
X95871303Y-87134850D01*
X95886831Y-87105891D01*
X95912423Y-87031567D01*
X95914718Y-87025429D01*
X95942258Y-86957267D01*
X95942259Y-86957263D01*
X95944155Y-86952571D01*
X95948157Y-86934958D01*
X95951432Y-86920540D01*
X95955163Y-86907441D01*
X95965862Y-86876369D01*
X95979243Y-86798900D01*
X95980526Y-86792482D01*
X95981689Y-86787366D01*
X95997935Y-86715856D01*
X95999999Y-86683047D01*
X96001585Y-86669547D01*
X96007179Y-86637164D01*
X96007699Y-86625712D01*
X96008436Y-86609494D01*
X96008436Y-86609475D01*
X96008500Y-86608075D01*
X96008500Y-86551893D01*
X96008749Y-86543981D01*
X96012860Y-86478642D01*
X96013178Y-86473588D01*
X96009101Y-86432009D01*
X96008500Y-86419713D01*
X96008500Y-86243421D01*
X96028502Y-86175300D01*
X96082158Y-86128807D01*
X96152432Y-86118703D01*
X96210065Y-86142595D01*
X96260795Y-86180615D01*
X96397184Y-86231745D01*
X96459366Y-86238500D01*
X98460634Y-86238500D01*
X98522816Y-86231745D01*
X98659205Y-86180615D01*
X98775761Y-86093261D01*
X98863115Y-85976705D01*
X98866728Y-85967067D01*
X98867512Y-85966024D01*
X98870577Y-85960425D01*
X98871385Y-85960867D01*
X98909368Y-85910302D01*
X98975929Y-85885600D01*
X99045278Y-85900806D01*
X99064687Y-85913929D01*
X99129379Y-85967067D01*
X99136278Y-85972734D01*
X99208022Y-86014490D01*
X99335350Y-86088597D01*
X99346078Y-86094841D01*
X99350801Y-86096654D01*
X99567972Y-86180018D01*
X99567979Y-86180020D01*
X99572702Y-86181833D01*
X99603418Y-86188250D01*
X99619708Y-86192813D01*
X99625515Y-86194870D01*
X99688780Y-86206140D01*
X99692432Y-86206846D01*
X99810320Y-86231474D01*
X99815371Y-86231703D01*
X99815376Y-86231704D01*
X99824110Y-86232100D01*
X99829840Y-86232360D01*
X99846209Y-86234182D01*
X99862037Y-86237001D01*
X99890560Y-86237350D01*
X99955726Y-86238146D01*
X99959901Y-86238267D01*
X100047762Y-86242257D01*
X100047769Y-86242257D01*
X100052817Y-86242486D01*
X100069491Y-86240557D01*
X100085507Y-86239731D01*
X100092214Y-86239813D01*
X100097094Y-86239873D01*
X100097096Y-86239873D01*
X100102263Y-86239936D01*
X100184962Y-86227282D01*
X100189517Y-86226669D01*
X100293956Y-86214585D01*
X100317095Y-86208037D01*
X100332331Y-86204730D01*
X100339744Y-86203596D01*
X100382202Y-86189719D01*
X100386993Y-86188258D01*
X100527532Y-86148490D01*
X100532108Y-86146356D01*
X100532114Y-86146354D01*
X100742954Y-86048038D01*
X100742958Y-86048036D01*
X100747536Y-86045901D01*
X100793756Y-86014490D01*
X100900803Y-85941740D01*
X100948307Y-85909456D01*
X101124681Y-85742668D01*
X101179099Y-85671492D01*
X101236363Y-85629524D01*
X101307227Y-85625179D01*
X101369190Y-85659835D01*
X101379021Y-85671140D01*
X101382372Y-85675491D01*
X101537050Y-85845480D01*
X101544583Y-85852506D01*
X101724944Y-85994945D01*
X101733531Y-86000650D01*
X101774139Y-86023067D01*
X101787907Y-86026129D01*
X101789288Y-86024302D01*
X101790000Y-86020404D01*
X101790000Y-86015588D01*
X103290000Y-86015588D01*
X103293973Y-86029119D01*
X103297043Y-86029560D01*
X103299441Y-86028788D01*
X103316340Y-86019991D01*
X103325075Y-86014490D01*
X103508852Y-85876507D01*
X103516559Y-85869664D01*
X103675339Y-85703509D01*
X103681826Y-85695499D01*
X103811333Y-85505649D01*
X103816426Y-85496684D01*
X103816543Y-85496432D01*
X103818636Y-85482486D01*
X103814819Y-85480000D01*
X103308115Y-85480000D01*
X103292876Y-85484475D01*
X103291671Y-85485865D01*
X103290000Y-85493548D01*
X103290000Y-86015588D01*
X101790000Y-86015588D01*
X101790000Y-83961885D01*
X103290000Y-83961885D01*
X103294475Y-83977124D01*
X103295865Y-83978329D01*
X103303548Y-83980000D01*
X103806987Y-83980000D01*
X103820497Y-83976033D01*
X103817691Y-83968544D01*
X103703914Y-83792673D01*
X103697622Y-83784502D01*
X103542950Y-83614520D01*
X103535417Y-83607494D01*
X103355056Y-83465055D01*
X103346469Y-83459350D01*
X103305861Y-83436933D01*
X103292093Y-83433871D01*
X103290712Y-83435698D01*
X103290000Y-83439596D01*
X103290000Y-83961885D01*
X101790000Y-83961885D01*
X101790000Y-83444412D01*
X101786027Y-83430881D01*
X101782957Y-83430440D01*
X101780559Y-83431212D01*
X101763660Y-83440009D01*
X101754925Y-83445510D01*
X101710153Y-83479126D01*
X101643669Y-83504032D01*
X101574273Y-83489040D01*
X101523999Y-83438910D01*
X101508500Y-83378366D01*
X101508500Y-82942494D01*
X101508549Y-82938976D01*
X101511193Y-82844328D01*
X101511193Y-82844325D01*
X101511334Y-82839273D01*
X101500941Y-82761380D01*
X101500241Y-82754831D01*
X101494346Y-82681555D01*
X101494345Y-82681551D01*
X101493940Y-82676513D01*
X101486101Y-82644600D01*
X101483573Y-82631216D01*
X101483226Y-82628611D01*
X101479229Y-82598658D01*
X101463762Y-82547429D01*
X101456522Y-82523449D01*
X101454781Y-82517086D01*
X101436037Y-82440772D01*
X101423199Y-82410526D01*
X101418561Y-82397715D01*
X101410530Y-82371116D01*
X101409067Y-82366270D01*
X101406849Y-82361722D01*
X101406846Y-82361715D01*
X101374629Y-82295660D01*
X101371893Y-82289658D01*
X101343162Y-82221973D01*
X101341188Y-82217322D01*
X101323681Y-82189522D01*
X101317052Y-82177612D01*
X101302654Y-82148090D01*
X101257357Y-82083878D01*
X101253699Y-82078392D01*
X101214529Y-82016192D01*
X101214528Y-82016191D01*
X101211833Y-82011911D01*
X101208492Y-82008122D01*
X101208488Y-82008116D01*
X101190102Y-81987261D01*
X101181656Y-81976566D01*
X101173762Y-81965376D01*
X101162726Y-81949731D01*
X101143091Y-81928228D01*
X101103375Y-81888512D01*
X101097956Y-81882742D01*
X101054650Y-81833620D01*
X101054647Y-81833617D01*
X101051302Y-81829823D01*
X101019011Y-81803299D01*
X101009892Y-81795029D01*
X99688458Y-80473595D01*
X99654432Y-80411283D01*
X99659497Y-80340468D01*
X99702044Y-80283632D01*
X99768564Y-80258821D01*
X99777553Y-80258500D01*
X110556999Y-80258500D01*
X110559786Y-80258251D01*
X110559792Y-80258251D01*
X110629929Y-80251991D01*
X110723762Y-80243617D01*
X110729176Y-80242136D01*
X110729181Y-80242135D01*
X110856912Y-80207191D01*
X110940451Y-80184337D01*
X110945509Y-80181925D01*
X110945513Y-80181923D01*
X111066430Y-80124248D01*
X111143218Y-80087622D01*
X111143236Y-80087609D01*
X111163225Y-80078489D01*
X111266998Y-80043868D01*
X111273946Y-80041550D01*
X111424348Y-79948478D01*
X111549305Y-79823303D01*
X111558947Y-79807661D01*
X111638275Y-79678968D01*
X111638276Y-79678966D01*
X111642115Y-79672738D01*
X111668564Y-79592995D01*
X111695632Y-79511389D01*
X111695632Y-79511387D01*
X111697797Y-79504861D01*
X111708500Y-79400400D01*
X111708500Y-79372496D01*
X111711981Y-79343082D01*
X111748722Y-79190046D01*
X111748722Y-79190045D01*
X111750032Y-79184589D01*
X111759173Y-79026049D01*
X111762640Y-78965917D01*
X111762640Y-78965914D01*
X111762963Y-78960310D01*
X111735975Y-78737285D01*
X111714070Y-78666082D01*
X111708500Y-78629033D01*
X111708500Y-78599600D01*
X111697526Y-78493834D01*
X111664049Y-78393490D01*
X111643868Y-78333002D01*
X111641550Y-78326054D01*
X111548478Y-78175652D01*
X111461891Y-78089216D01*
X111427812Y-78026934D01*
X111432815Y-77956114D01*
X111461736Y-77911025D01*
X111544134Y-77828483D01*
X111549305Y-77823303D01*
X111553146Y-77817072D01*
X111638275Y-77678968D01*
X111638276Y-77678966D01*
X111642115Y-77672738D01*
X111682261Y-77551701D01*
X111695632Y-77511389D01*
X111695632Y-77511387D01*
X111697797Y-77504861D01*
X111699729Y-77486010D01*
X111706100Y-77423825D01*
X111708500Y-77400400D01*
X111708500Y-77383708D01*
X111711118Y-77358156D01*
X111713431Y-77346988D01*
X111755213Y-77145233D01*
X111757799Y-77100390D01*
X111758395Y-77090048D01*
X111758395Y-77090044D01*
X111758500Y-77088225D01*
X111758500Y-72943001D01*
X111743617Y-72776238D01*
X111712966Y-72664198D01*
X111708500Y-72630950D01*
X111708500Y-72615701D01*
X111728502Y-72547580D01*
X111782158Y-72501087D01*
X111852432Y-72490983D01*
X111917012Y-72520477D01*
G37*
%TD.AperFunction*%
%TD*%
M02*
