M48
; DRILL file {KiCad (6.0.4)} date Sun Oct  9 11:32:11 2022
; FORMAT={-:-/ absolute / inch / decimal}
; #@! TF.CreationDate,2022-10-09T11:32:11+02:00
; #@! TF.GenerationSoftware,Kicad,Pcbnew,(6.0.4)
; #@! TF.FileFunction,MixedPlating,1,2
FMAT,2
INCH
; #@! TA.AperFunction,Plated,PTH,ComponentDrill
T1C0.0276
; #@! TA.AperFunction,Plated,PTH,ViaDrill
T2C0.0295
; #@! TA.AperFunction,Plated,PTH,ViaDrill
T3C0.0315
; #@! TA.AperFunction,Plated,PTH,ViaDrill
T4C0.0394
; #@! TA.AperFunction,Plated,PTH,ComponentDrill
T5C0.0394
; #@! TA.AperFunction,Plated,PTH,ComponentDrill
T6C0.0433
; #@! TA.AperFunction,Plated,PTH,ComponentDrill
T7C0.0630
; #@! TA.AperFunction,NonPlated,NPTH,ComponentDrill
T8C0.1378
%
G90
G05
T1
X4.4945Y-3.8754
X4.5201Y-3.8051
T2
X4.2126Y-2.874
T3
X4.6457Y-3.7992
T4
X3.0434Y-3.9208
X3.1299Y-3.8189
X4.4949Y-4.7879
X4.9213Y-4.3504
T5
X2.7019Y-3.4465
X2.7355Y-3.539
X2.8298Y-3.798
X2.8634Y-3.8905
X2.9577Y-4.1495
X2.9914Y-4.2419
X4.8857Y-4.2415
X4.9194Y-4.149
X5.0143Y-3.8882
X5.048Y-3.7957
X5.1429Y-3.5349
X5.1765Y-3.4424
T6
X3.4252Y-3.563
X3.4959Y-3.4923
X3.5666Y-3.4216
X3.837Y-3.3358
X3.937Y-3.3358
X4.037Y-3.3358
X4.311Y-3.4252
X4.3817Y-3.4959
X4.4524Y-3.5666
T7
X2.8328Y-4.6527
X2.8328Y-4.8527
X3.0328Y-4.6527
X3.0328Y-4.8527
X4.8394Y-4.6527
X4.8394Y-4.8527
X5.0394Y-4.6527
X5.0394Y-4.8527
T8
X3.0321Y-3.0285
X3.937Y-2.6799
X4.8455Y-3.0321
T0
M30
